M48
; DRILL file {KiCad (5.1.10)-1} date 09/03/22 16:46:30
; FORMAT={-:-/ absolute / inch / decimal}
; #@! TF.CreationDate,2022-09-03T16:46:30+05:30
; #@! TF.GenerationSoftware,Kicad,Pcbnew,(5.1.10)-1
; #@! TF.FileFunction,Plated,1,2,PTH
FMAT,2
INCH
T1C0.0079
T2C0.0157
T3C0.0315
T4C0.0354
T5C0.0394
T6C0.0400
T7C0.0472
T8C0.0512
T9C0.0551
%
G90
G05
T1
X3.6142Y-3.7874
X3.6142Y-3.9921
X3.622Y-3.1339
X3.622Y-3.2913
X3.622Y-3.5669
X3.6378Y-4.8268
X3.6614Y-3.0709
X3.7323Y-4.4803
X3.7795Y-4.6693
X3.9449Y-3.1654
X4.0394Y-2.9606
X4.1496Y-2.9606
X4.2756Y-2.9606
X4.2835Y-3.6063
X4.3465Y-3.189
X4.4016Y-2.9606
X4.5276Y-2.9685
X4.5748Y-3.2047
X4.5984Y-3.4094
X4.685Y-2.9685
X4.7244Y-3.1732
X4.8504Y-2.9606
X4.8543Y-4.5866
X4.8937Y-4.9055
X5.0787Y-3.1732
X5.126Y-3.0551
X5.3937Y-3.8031
X5.4528Y-2.9567
X5.4803Y-4.1024
X5.5906Y-4.0551
X5.7362Y-2.9567
X5.7756Y-4.685
X5.9961Y-2.9646
X6.252Y-3.9685
X6.2756Y-4.5472
X6.3937Y-3.5906
X6.5118Y-4.9291
X6.9921Y-4.4567
X7.2047Y-3.4961
X7.3228Y-3.0315
X7.3543Y-4.8346
X7.4016Y-4.063
X7.6772Y-4.1811
X7.7008Y-3.9055
X7.7008Y-3.9055
X7.9764Y-3.9528
X8.1181Y-4.1024
X8.1417Y-3.4803
X8.2047Y-3.7244
X8.4409Y-3.8819
X8.4409Y-4.1102
X8.4567Y-3.1339
X8.5748Y-3.7087
X8.748Y-3.9528
X8.7874Y-3.1339
X8.8898Y-3.7087
X8.9291Y-4.7638
X9.1102Y-3.1575
X9.1102Y-4.1969
X9.1181Y-4.5276
X9.1339Y-3.811
T2
X4.1998Y-4.5876
X4.2402Y-4.8425
X4.3898Y-4.6654
X4.4547Y-4.5728
X4.4705Y-4.748
X4.5748Y-4.5118
X4.5748Y-4.3681
X4.6024Y-4.7146
X4.6654Y-3.9469
X4.6654Y-4.0846
X4.6811Y-4.4488
X4.6811Y-4.689
X4.7047Y-4.0157
X4.8012Y-3.3346
X4.8327Y-3.4744
X4.8583Y-4.2441
X4.9488Y-3.3346
X4.9902Y-3.435
X5.0098Y-3.3957
X5.0098Y-3.4646
X5.0276Y-3.6535
X5.0787Y-3.6969
X5.0945Y-3.2913
X5.185Y-4.4488
X5.185Y-4.7244
X5.185Y-4.8189
X5.185Y-4.9094
X5.185Y-4.5433
X5.185Y-4.6299
X5.185Y-4.3661
X5.2205Y-4.2441
X5.2559Y-3.4724
X5.2598Y-3.435
X5.3189Y-3.5
X5.3386Y-3.4409
X5.3484Y-3.5768
X5.4094Y-3.315
X5.437Y-3.374
X5.4685Y-3.1841
X5.5512Y-3.126
X5.5512Y-3.2185
X5.6988Y-3.128
X5.7402Y-3.4252
X5.7638Y-4.1417
X5.8189Y-3.126
X5.8189Y-3.2598
X5.9134Y-4.1417
X6.0157Y-3.1457
X6.0394Y-4.1181
X6.0886Y-3.5098
X6.1024Y-4.1181
X6.189Y-4.1575
X6.2441Y-4.126
X6.2835Y-4.1575
X6.2992Y-3.5354
X6.3504Y-3.2795
X6.4961Y-4.5748
X6.5276Y-4.2205
X6.7008Y-4.7283
X6.7795Y-4.7598
X6.8583Y-4.7874
X6.937Y-3.1417
X6.937Y-4.815
X7.0472Y-3.7638
X7.2913Y-3.2087
X7.2913Y-3.3268
X7.4173Y-4.5748
X7.4567Y-3.6693
X7.4567Y-4.2205
X7.7528Y-3.1417
X7.9055Y-4.6299
X7.9843Y-3.2126
X8.3622Y-3.2126
T3
X3.9134Y-3.748
X3.9134Y-3.8465
X3.9134Y-3.9449
X3.9134Y-4.0433
X3.9134Y-4.1417
X4.0118Y-3.748
X4.0118Y-3.8465
X4.0118Y-3.9449
X4.0118Y-4.0433
X4.0118Y-4.1417
X4.1299Y-3.2047
X4.1299Y-3.2835
X4.8228Y-3.5827
X4.8228Y-3.7748
X6.5591Y-3.8976
X6.5591Y-3.9961
X6.622Y-4.9055
X6.6575Y-3.8976
X6.6575Y-3.9961
X6.7008Y-4.9055
X6.7559Y-3.8976
X6.7559Y-3.9961
X6.7795Y-4.9055
X6.8543Y-3.8976
X6.8543Y-3.9961
X6.8583Y-4.9055
X6.937Y-4.9055
X6.9528Y-3.8976
X6.9528Y-3.9961
X7.0157Y-4.9055
X7.0512Y-3.8976
X7.0512Y-3.9961
X7.1496Y-3.8976
X7.1496Y-3.9961
X7.5669Y-4.9134
X7.6457Y-4.9134
X7.7244Y-4.9134
X7.8031Y-4.9134
X7.8819Y-4.9134
X7.9606Y-4.9134
X8.0394Y-4.9134
T4
X3.8189Y-3.189
X3.8189Y-3.2874
X4.2835Y-3.8661
X4.2835Y-3.9161
X4.2835Y-3.9661
X4.2835Y-4.0161
T5
X3.7795Y-3.5472
X3.7795Y-4.3346
T6
X6.7323Y-2.9921
X6.8323Y-2.9921
X6.9323Y-2.9921
X7.0323Y-2.9921
X7.6528Y-2.9921
X7.7528Y-2.9921
X7.8528Y-2.9921
X7.9528Y-2.9921
T7
X5.6752Y-3.3701
X5.6752Y-3.5669
X5.6791Y-4.315
X5.6791Y-4.5118
X6.1673Y-3.3701
X6.1673Y-3.5669
X6.1713Y-4.315
X6.1713Y-4.5118
X6.6161Y-3.3701
X6.6161Y-3.5669
X6.6161Y-4.315
X6.6161Y-4.5118
X7.1083Y-3.3701
X7.1083Y-3.5669
X7.1083Y-4.315
X7.1083Y-4.5118
X7.5453Y-3.3701
X7.5453Y-3.5669
X7.5453Y-4.315
X7.5453Y-4.5118
X8.0374Y-3.3701
X8.0374Y-3.5669
X8.0374Y-4.315
X8.0374Y-4.5118
X8.4823Y-3.374
X8.4823Y-3.5709
X8.4823Y-4.3189
X8.4823Y-4.5157
X8.9744Y-3.374
X8.9744Y-3.5709
X8.9744Y-4.3189
X8.9744Y-4.5157
T8
X5.9213Y-3.3701
X5.9213Y-3.4685
X5.9213Y-3.5669
X5.9252Y-4.315
X5.9252Y-4.4134
X5.9252Y-4.5118
X6.8622Y-3.3701
X6.8622Y-3.4685
X6.8622Y-3.5669
X6.8622Y-4.315
X6.8622Y-4.4134
X6.8622Y-4.5118
X7.7913Y-3.3701
X7.7913Y-3.4685
X7.7913Y-3.5669
T9
X7.7913Y-4.315
X7.7913Y-4.4134
X7.7913Y-4.5118
T0
M30
