%TF.GenerationSoftware,KiCad,Pcbnew,(5.1.10)-1*%
%TF.CreationDate,2022-09-03T16:46:32+05:30*%
%TF.ProjectId,ENC-nrf-301-02-REV05,454e432d-6e72-4662-9d33-30312d30322d,rev?*%
%TF.SameCoordinates,Original*%
%TF.FileFunction,Soldermask,Bot*%
%TF.FilePolarity,Negative*%
%FSLAX46Y46*%
G04 Gerber Fmt 4.6, Leading zero omitted, Abs format (unit mm)*
G04 Created by KiCad (PCBNEW (5.1.10)-1) date 2022-09-03 16:46:32*
%MOMM*%
%LPD*%
G01*
G04 APERTURE LIST*
%ADD10C,2.000000*%
%ADD11C,2.400000*%
%ADD12C,1.500000*%
%ADD13C,1.800000*%
%ADD14C,1.900000*%
%ADD15C,2.600000*%
%ADD16O,2.600000X2.600000*%
%ADD17O,2.200000X1.470000*%
%ADD18C,2.250000*%
%ADD19O,1.900000X2.200000*%
%ADD20O,2.127200X2.432000*%
%ADD21C,0.800000*%
G04 APERTURE END LIST*
D10*
%TO.C,SW12*%
X150500000Y-116600000D03*
D11*
X144250000Y-109600000D03*
D10*
X150500000Y-107600000D03*
D11*
X156750000Y-114600000D03*
X144250000Y-114600000D03*
X156750000Y-109600000D03*
%TD*%
D10*
%TO.C,SW9*%
X150400000Y-92600000D03*
D11*
X144150000Y-85600000D03*
D10*
X150400000Y-83600000D03*
D11*
X156650000Y-90600000D03*
X144150000Y-90600000D03*
X156650000Y-85600000D03*
%TD*%
D10*
%TO.C,SW8*%
X174300000Y-116600000D03*
D11*
X168050000Y-109600000D03*
D10*
X174300000Y-107600000D03*
D11*
X180550000Y-114600000D03*
X168050000Y-114600000D03*
X180550000Y-109600000D03*
%TD*%
D10*
%TO.C,SW21*%
X174300000Y-92600000D03*
D11*
X180550000Y-85600000D03*
D10*
X174300000Y-83600000D03*
D11*
X168050000Y-90600000D03*
X180550000Y-90600000D03*
X168050000Y-85600000D03*
%TD*%
D10*
%TO.C,SW1*%
X197900000Y-92600000D03*
D11*
X191650000Y-85600000D03*
D10*
X197900000Y-83600000D03*
D11*
X204150000Y-90600000D03*
X191650000Y-90600000D03*
X204150000Y-85600000D03*
%TD*%
D10*
%TO.C,SW4*%
X197900000Y-116600000D03*
D11*
X191650000Y-109600000D03*
D10*
X197900000Y-107600000D03*
D11*
X204150000Y-114600000D03*
X191650000Y-114600000D03*
X204150000Y-109600000D03*
%TD*%
D10*
%TO.C,SW22*%
X221700000Y-116700000D03*
D11*
X227950000Y-109700000D03*
D10*
X221700000Y-107700000D03*
D11*
X215450000Y-114700000D03*
X227950000Y-114700000D03*
X215450000Y-109700000D03*
%TD*%
D10*
%TO.C,SW6*%
X221700000Y-92700000D03*
D11*
X215450000Y-85700000D03*
D10*
X221700000Y-83700000D03*
D11*
X227950000Y-90700000D03*
X215450000Y-90700000D03*
X227950000Y-85700000D03*
%TD*%
D12*
%TO.C,SW10*%
X145900000Y-92100000D03*
D13*
X146000000Y-83700000D03*
D14*
X154800000Y-92500000D03*
D11*
X150400000Y-85600000D03*
X150400000Y-90600000D03*
X150400000Y-88100000D03*
%TD*%
D12*
%TO.C,SW11*%
X146000000Y-116100000D03*
D13*
X146100000Y-107700000D03*
D14*
X154900000Y-116500000D03*
D11*
X150500000Y-109600000D03*
X150500000Y-114600000D03*
X150500000Y-112100000D03*
%TD*%
D12*
%TO.C,SW5*%
X169800000Y-92100000D03*
D13*
X169900000Y-83700000D03*
D14*
X178700000Y-92500000D03*
D11*
X174300000Y-85600000D03*
X174300000Y-90600000D03*
X174300000Y-88100000D03*
%TD*%
D12*
%TO.C,SW7*%
X169800000Y-116100000D03*
D13*
X169900000Y-107700000D03*
D14*
X178700000Y-116500000D03*
D11*
X174300000Y-109600000D03*
X174300000Y-114600000D03*
X174300000Y-112100000D03*
%TD*%
D12*
%TO.C,SW2*%
X193400000Y-92100000D03*
D13*
X193500000Y-83700000D03*
D14*
X202300000Y-92500000D03*
D11*
X197900000Y-85600000D03*
X197900000Y-90600000D03*
X197900000Y-88100000D03*
%TD*%
D12*
%TO.C,SW3*%
X193400000Y-116100000D03*
D13*
X193500000Y-107700000D03*
D14*
X202300000Y-116500000D03*
D11*
X197900000Y-109600000D03*
X197900000Y-114600000D03*
X197900000Y-112100000D03*
%TD*%
D15*
%TO.C,SW_e1*%
X96000000Y-110100000D03*
D16*
X96000000Y-90100000D03*
%TD*%
%TO.C,D14*%
G36*
G01*
X107900000Y-97465000D02*
X109700000Y-97465000D01*
G75*
G02*
X109900000Y-97665000I0J-200000D01*
G01*
X109900000Y-98735000D01*
G75*
G02*
X109700000Y-98935000I-200000J0D01*
G01*
X107900000Y-98935000D01*
G75*
G02*
X107700000Y-98735000I0J200000D01*
G01*
X107700000Y-97665000D01*
G75*
G02*
X107900000Y-97465000I200000J0D01*
G01*
G37*
D17*
X108800000Y-99470000D03*
X108800000Y-100740000D03*
X108800000Y-102010000D03*
%TD*%
D15*
%TO.C,*%
X138450000Y-100150000D03*
%TD*%
%TO.C,J1*%
G36*
G01*
X98600000Y-94200000D02*
X100200000Y-94200000D01*
G75*
G02*
X100400000Y-94400000I0J-200000D01*
G01*
X100400000Y-96000000D01*
G75*
G02*
X100200000Y-96200000I-200000J0D01*
G01*
X98600000Y-96200000D01*
G75*
G02*
X98400000Y-96000000I0J200000D01*
G01*
X98400000Y-94400000D01*
G75*
G02*
X98600000Y-94200000I200000J0D01*
G01*
G37*
D10*
X99400000Y-97700000D03*
X99400000Y-100200000D03*
X99400000Y-102700000D03*
X99400000Y-105200000D03*
X101900000Y-95200000D03*
X101900000Y-97700000D03*
X101900000Y-100200000D03*
X101900000Y-102700000D03*
X101900000Y-105200000D03*
%TD*%
D14*
%TO.C,Y1*%
X122500000Y-91000000D03*
X122500000Y-95880000D03*
%TD*%
D15*
%TO.C,*%
X97950000Y-74400000D03*
%TD*%
%TO.C,*%
X97950000Y-125900000D03*
%TD*%
%TO.C,*%
X162450000Y-74400000D03*
%TD*%
%TO.C,*%
X186450000Y-74400000D03*
%TD*%
%TO.C,*%
X210450000Y-74400000D03*
%TD*%
%TO.C,*%
X162450000Y-125900000D03*
%TD*%
%TO.C,*%
X186450000Y-126000000D03*
%TD*%
%TO.C,*%
X210450000Y-125900000D03*
%TD*%
%TO.C,*%
X231950000Y-100150000D03*
%TD*%
%TO.C,*%
X210450000Y-100150000D03*
%TD*%
%TO.C,*%
X186450000Y-100150000D03*
%TD*%
%TO.C,J2*%
G36*
G01*
X182600000Y-98200000D02*
X182600000Y-99800000D01*
G75*
G02*
X182400000Y-100000000I-200000J0D01*
G01*
X180800000Y-100000000D01*
G75*
G02*
X180600000Y-99800000I0J200000D01*
G01*
X180600000Y-98200000D01*
G75*
G02*
X180800000Y-98000000I200000J0D01*
G01*
X182400000Y-98000000D01*
G75*
G02*
X182600000Y-98200000I0J-200000D01*
G01*
G37*
D10*
X179100000Y-99000000D03*
X176600000Y-99000000D03*
X174100000Y-99000000D03*
X171600000Y-99000000D03*
X169100000Y-99000000D03*
X166600000Y-99000000D03*
X181600000Y-101500000D03*
X179100000Y-101500000D03*
X176600000Y-101500000D03*
X174100000Y-101500000D03*
X171600000Y-101500000D03*
X169100000Y-101500000D03*
X166600000Y-101500000D03*
%TD*%
%TO.C,J5*%
G36*
G01*
X96075000Y-79875000D02*
X97925000Y-79875000D01*
G75*
G02*
X98125000Y-80075000I0J-200000D01*
G01*
X98125000Y-81925000D01*
G75*
G02*
X97925000Y-82125000I-200000J0D01*
G01*
X96075000Y-82125000D01*
G75*
G02*
X95875000Y-81925000I0J200000D01*
G01*
X95875000Y-80075000D01*
G75*
G02*
X96075000Y-79875000I200000J0D01*
G01*
G37*
D18*
X97000000Y-83500000D03*
%TD*%
%TO.C,C8*%
G36*
G01*
X105700000Y-84400000D02*
X104100000Y-84400000D01*
G75*
G02*
X103900000Y-84200000I0J200000D01*
G01*
X103900000Y-82600000D01*
G75*
G02*
X104100000Y-82400000I200000J0D01*
G01*
X105700000Y-82400000D01*
G75*
G02*
X105900000Y-82600000I0J-200000D01*
G01*
X105900000Y-84200000D01*
G75*
G02*
X105700000Y-84400000I-200000J0D01*
G01*
G37*
D10*
X104900000Y-81400000D03*
%TD*%
%TO.C,JS-1*%
G36*
G01*
X205150000Y-123900000D02*
X205150000Y-125700000D01*
G75*
G02*
X204950000Y-125900000I-200000J0D01*
G01*
X203450000Y-125900000D01*
G75*
G02*
X203250000Y-125700000I0J200000D01*
G01*
X203250000Y-123900000D01*
G75*
G02*
X203450000Y-123700000I200000J0D01*
G01*
X204950000Y-123700000D01*
G75*
G02*
X205150000Y-123900000I0J-200000D01*
G01*
G37*
D19*
X202200000Y-124800000D03*
X200200000Y-124800000D03*
X198200000Y-124800000D03*
X196200000Y-124800000D03*
X194200000Y-124800000D03*
X192200000Y-124800000D03*
%TD*%
%TO.C,JS-2*%
G36*
G01*
X179150000Y-123700000D02*
X179150000Y-125500000D01*
G75*
G02*
X178950000Y-125700000I-200000J0D01*
G01*
X177450000Y-125700000D01*
G75*
G02*
X177250000Y-125500000I0J200000D01*
G01*
X177250000Y-123700000D01*
G75*
G02*
X177450000Y-123500000I200000J0D01*
G01*
X178950000Y-123500000D01*
G75*
G02*
X179150000Y-123700000I0J-200000D01*
G01*
G37*
X176200000Y-124600000D03*
X174200000Y-124600000D03*
X172200000Y-124600000D03*
X170200000Y-124600000D03*
X168200000Y-124600000D03*
%TD*%
%TO.C,JS-3*%
G36*
G01*
X171863600Y-77216000D02*
X170136400Y-77216000D01*
G75*
G02*
X169936400Y-77016000I0J200000D01*
G01*
X169936400Y-74984000D01*
G75*
G02*
X170136400Y-74784000I200000J0D01*
G01*
X171863600Y-74784000D01*
G75*
G02*
X172063600Y-74984000I0J-200000D01*
G01*
X172063600Y-77016000D01*
G75*
G02*
X171863600Y-77216000I-200000J0D01*
G01*
G37*
D20*
X173540000Y-76000000D03*
X176080000Y-76000000D03*
X178620000Y-76000000D03*
%TD*%
%TO.C,JS-4*%
G36*
G01*
X201136400Y-74784000D02*
X202863600Y-74784000D01*
G75*
G02*
X203063600Y-74984000I0J-200000D01*
G01*
X203063600Y-77016000D01*
G75*
G02*
X202863600Y-77216000I-200000J0D01*
G01*
X201136400Y-77216000D01*
G75*
G02*
X200936400Y-77016000I0J200000D01*
G01*
X200936400Y-74984000D01*
G75*
G02*
X201136400Y-74784000I200000J0D01*
G01*
G37*
X199460000Y-76000000D03*
X196920000Y-76000000D03*
X194380000Y-76000000D03*
%TD*%
D15*
%TO.C,*%
X162450000Y-100150000D03*
%TD*%
D21*
%TO.C,*%
X102600000Y-75200000D03*
%TD*%
%TO.C,*%
X105400000Y-75200000D03*
%TD*%
%TO.C,*%
X108600000Y-75200000D03*
%TD*%
%TO.C,*%
X111800000Y-75200000D03*
%TD*%
%TO.C,*%
X115000000Y-75400000D03*
%TD*%
%TO.C,*%
X119000000Y-75400000D03*
%TD*%
%TO.C,*%
X123200000Y-75200000D03*
%TD*%
%TO.C,*%
X186000000Y-77000000D03*
%TD*%
%TO.C,*%
X138500000Y-75100000D03*
%TD*%
%TO.C,*%
X145700000Y-75100000D03*
%TD*%
%TO.C,*%
X152300000Y-75300000D03*
%TD*%
%TO.C,*%
X214800000Y-79600000D03*
%TD*%
%TO.C,*%
X223200000Y-79600000D03*
%TD*%
%TO.C,*%
X231400000Y-80200000D03*
%TD*%
%TO.C,*%
X232000000Y-96800000D03*
%TD*%
%TO.C,*%
X231400000Y-106600000D03*
%TD*%
%TO.C,*%
X231600000Y-115000000D03*
%TD*%
%TO.C,*%
X226800000Y-121000000D03*
%TD*%
%TO.C,*%
X186800000Y-122800000D03*
%TD*%
%TO.C,*%
X222200000Y-100400000D03*
%TD*%
%TO.C,*%
X214400000Y-98600000D03*
%TD*%
%TO.C,*%
X202600000Y-100400000D03*
%TD*%
%TO.C,*%
X214400000Y-104400000D03*
%TD*%
%TO.C,*%
X206200000Y-104200000D03*
%TD*%
%TO.C,*%
X195600000Y-99200000D03*
%TD*%
%TO.C,*%
X195600000Y-99200000D03*
%TD*%
%TO.C,*%
X208400000Y-94600000D03*
%TD*%
%TO.C,*%
X206800000Y-88400000D03*
%TD*%
%TO.C,*%
X217800000Y-94200000D03*
%TD*%
%TO.C,*%
X225800000Y-94200000D03*
%TD*%
%TO.C,*%
X188000000Y-103200000D03*
%TD*%
%TO.C,*%
X183000000Y-88800000D03*
%TD*%
%TO.C,*%
X158800000Y-100800000D03*
%TD*%
%TO.C,*%
X165400000Y-125200000D03*
%TD*%
%TO.C,*%
X123300000Y-116500000D03*
%TD*%
%TO.C,*%
X146700000Y-119000000D03*
%TD*%
%TO.C,*%
X124300000Y-124600000D03*
%TD*%
%TO.C,*%
X96000000Y-118600000D03*
%TD*%
%TO.C,*%
X94800000Y-113800000D03*
%TD*%
%TO.C,*%
X92400000Y-122600000D03*
%TD*%
%TO.C,*%
X91800000Y-101400000D03*
%TD*%
%TO.C,*%
X108800000Y-91600000D03*
%TD*%
%TO.C,*%
X116800000Y-86600000D03*
%TD*%
%TO.C,*%
X130200000Y-77600000D03*
%TD*%
%TO.C,*%
X120000000Y-80600000D03*
%TD*%
%TO.C,*%
X129000000Y-80600000D03*
%TD*%
%TO.C,*%
X116200000Y-81400000D03*
%TD*%
%TO.C,*%
X110400000Y-81000000D03*
%TD*%
%TO.C,*%
X100200000Y-80400000D03*
%TD*%
%TO.C,*%
X93000000Y-78000000D03*
%TD*%
%TO.C,*%
X91800000Y-96200000D03*
%TD*%
%TO.C,*%
X92000000Y-90600000D03*
%TD*%
%TO.C,*%
X92000000Y-83600000D03*
%TD*%
%TO.C,*%
X92000000Y-79600000D03*
%TD*%
%TO.C,*%
X139200000Y-104200000D03*
%TD*%
%TO.C,*%
X159400000Y-115500000D03*
%TD*%
%TO.C,*%
X177600000Y-113200000D03*
%TD*%
%TO.C,*%
X195000000Y-106200000D03*
%TD*%
%TO.C,*%
X162400000Y-91200000D03*
%TD*%
%TO.C,*%
X137000000Y-96600000D03*
%TD*%
%TO.C,*%
X142000000Y-103000000D03*
%TD*%
M02*
