%TF.GenerationSoftware,KiCad,Pcbnew,(5.1.10)-1*%
%TF.CreationDate,2022-09-03T16:46:32+05:30*%
%TF.ProjectId,ENC-nrf-301-02-REV05,454e432d-6e72-4662-9d33-30312d30322d,rev?*%
%TF.SameCoordinates,Original*%
%TF.FileFunction,Legend,Top*%
%TF.FilePolarity,Positive*%
%FSLAX46Y46*%
G04 Gerber Fmt 4.6, Leading zero omitted, Abs format (unit mm)*
G04 Created by KiCad (PCBNEW (5.1.10)-1) date 2022-09-03 16:46:32*
%MOMM*%
%LPD*%
G01*
G04 APERTURE LIST*
%ADD10C,0.200000*%
%ADD11C,0.300000*%
%ADD12C,0.120000*%
%ADD13C,0.150000*%
G04 APERTURE END LIST*
D10*
X128200000Y-86000000D02*
G75*
G03*
X128200000Y-86000000I-200000J0D01*
G01*
X128400000Y-86000000D02*
G75*
G03*
X128400000Y-86000000I-400000J0D01*
G01*
D11*
X100814285Y-125892857D02*
X101314285Y-125892857D01*
X101528571Y-126678571D02*
X100814285Y-126678571D01*
X100814285Y-125178571D01*
X101528571Y-125178571D01*
X102171428Y-126678571D02*
X102171428Y-125178571D01*
X103028571Y-126678571D01*
X103028571Y-125178571D01*
X104600000Y-126535714D02*
X104528571Y-126607142D01*
X104314285Y-126678571D01*
X104171428Y-126678571D01*
X103957142Y-126607142D01*
X103814285Y-126464285D01*
X103742857Y-126321428D01*
X103671428Y-126035714D01*
X103671428Y-125821428D01*
X103742857Y-125535714D01*
X103814285Y-125392857D01*
X103957142Y-125250000D01*
X104171428Y-125178571D01*
X104314285Y-125178571D01*
X104528571Y-125250000D01*
X104600000Y-125321428D01*
X105242857Y-126107142D02*
X106385714Y-126107142D01*
X107100000Y-125678571D02*
X107100000Y-126678571D01*
X107100000Y-125821428D02*
X107171428Y-125750000D01*
X107314285Y-125678571D01*
X107528571Y-125678571D01*
X107671428Y-125750000D01*
X107742857Y-125892857D01*
X107742857Y-126678571D01*
X108457142Y-126678571D02*
X108457142Y-125678571D01*
X108457142Y-125964285D02*
X108528571Y-125821428D01*
X108600000Y-125750000D01*
X108742857Y-125678571D01*
X108885714Y-125678571D01*
X109171428Y-125678571D02*
X109742857Y-125678571D01*
X109385714Y-126678571D02*
X109385714Y-125392857D01*
X109457142Y-125250000D01*
X109600000Y-125178571D01*
X109742857Y-125178571D01*
X110242857Y-126107142D02*
X111385714Y-126107142D01*
X111957142Y-125178571D02*
X112885714Y-125178571D01*
X112385714Y-125750000D01*
X112600000Y-125750000D01*
X112742857Y-125821428D01*
X112814285Y-125892857D01*
X112885714Y-126035714D01*
X112885714Y-126392857D01*
X112814285Y-126535714D01*
X112742857Y-126607142D01*
X112600000Y-126678571D01*
X112171428Y-126678571D01*
X112028571Y-126607142D01*
X111957142Y-126535714D01*
X113814285Y-125178571D02*
X113957142Y-125178571D01*
X114100000Y-125250000D01*
X114171428Y-125321428D01*
X114242857Y-125464285D01*
X114314285Y-125750000D01*
X114314285Y-126107142D01*
X114242857Y-126392857D01*
X114171428Y-126535714D01*
X114100000Y-126607142D01*
X113957142Y-126678571D01*
X113814285Y-126678571D01*
X113671428Y-126607142D01*
X113600000Y-126535714D01*
X113528571Y-126392857D01*
X113457142Y-126107142D01*
X113457142Y-125750000D01*
X113528571Y-125464285D01*
X113600000Y-125321428D01*
X113671428Y-125250000D01*
X113814285Y-125178571D01*
X115742857Y-126678571D02*
X114885714Y-126678571D01*
X115314285Y-126678571D02*
X115314285Y-125178571D01*
X115171428Y-125392857D01*
X115028571Y-125535714D01*
X114885714Y-125607142D01*
X116385714Y-126107142D02*
X117528571Y-126107142D01*
X118528571Y-125178571D02*
X118671428Y-125178571D01*
X118814285Y-125250000D01*
X118885714Y-125321428D01*
X118957142Y-125464285D01*
X119028571Y-125750000D01*
X119028571Y-126107142D01*
X118957142Y-126392857D01*
X118885714Y-126535714D01*
X118814285Y-126607142D01*
X118671428Y-126678571D01*
X118528571Y-126678571D01*
X118385714Y-126607142D01*
X118314285Y-126535714D01*
X118242857Y-126392857D01*
X118171428Y-126107142D01*
X118171428Y-125750000D01*
X118242857Y-125464285D01*
X118314285Y-125321428D01*
X118385714Y-125250000D01*
X118528571Y-125178571D01*
X119600000Y-125321428D02*
X119671428Y-125250000D01*
X119814285Y-125178571D01*
X120171428Y-125178571D01*
X120314285Y-125250000D01*
X120385714Y-125321428D01*
X120457142Y-125464285D01*
X120457142Y-125607142D01*
X120385714Y-125821428D01*
X119528571Y-126678571D01*
X120457142Y-126678571D01*
X216550000Y-125378571D02*
X216550000Y-126450000D01*
X216478571Y-126664285D01*
X216335714Y-126807142D01*
X216121428Y-126878571D01*
X215978571Y-126878571D01*
X217264285Y-126878571D02*
X217264285Y-125378571D01*
X218121428Y-126878571D02*
X217478571Y-126021428D01*
X218121428Y-125378571D02*
X217264285Y-126235714D01*
X218692857Y-126807142D02*
X218907142Y-126878571D01*
X219264285Y-126878571D01*
X219407142Y-126807142D01*
X219478571Y-126735714D01*
X219550000Y-126592857D01*
X219550000Y-126450000D01*
X219478571Y-126307142D01*
X219407142Y-126235714D01*
X219264285Y-126164285D01*
X218978571Y-126092857D01*
X218835714Y-126021428D01*
X218764285Y-125950000D01*
X218692857Y-125807142D01*
X218692857Y-125664285D01*
X218764285Y-125521428D01*
X218835714Y-125450000D01*
X218978571Y-125378571D01*
X219335714Y-125378571D01*
X219550000Y-125450000D01*
X219835714Y-127021428D02*
X220978571Y-127021428D01*
X221621428Y-125378571D02*
X221764285Y-125378571D01*
X221907142Y-125450000D01*
X221978571Y-125521428D01*
X222050000Y-125664285D01*
X222121428Y-125950000D01*
X222121428Y-126307142D01*
X222050000Y-126592857D01*
X221978571Y-126735714D01*
X221907142Y-126807142D01*
X221764285Y-126878571D01*
X221621428Y-126878571D01*
X221478571Y-126807142D01*
X221407142Y-126735714D01*
X221335714Y-126592857D01*
X221264285Y-126307142D01*
X221264285Y-125950000D01*
X221335714Y-125664285D01*
X221407142Y-125521428D01*
X221478571Y-125450000D01*
X221621428Y-125378571D01*
X222621428Y-125378571D02*
X223621428Y-125378571D01*
X222978571Y-126878571D01*
X223835714Y-127021428D02*
X224978571Y-127021428D01*
X225264285Y-125521428D02*
X225335714Y-125450000D01*
X225478571Y-125378571D01*
X225835714Y-125378571D01*
X225978571Y-125450000D01*
X226050000Y-125521428D01*
X226121428Y-125664285D01*
X226121428Y-125807142D01*
X226050000Y-126021428D01*
X225192857Y-126878571D01*
X226121428Y-126878571D01*
X226692857Y-125521428D02*
X226764285Y-125450000D01*
X226907142Y-125378571D01*
X227264285Y-125378571D01*
X227407142Y-125450000D01*
X227478571Y-125521428D01*
X227550000Y-125664285D01*
X227550000Y-125807142D01*
X227478571Y-126021428D01*
X226621428Y-126878571D01*
X227550000Y-126878571D01*
D10*
X130641421Y-87400000D02*
G75*
G03*
X130641421Y-87400000I-141421J0D01*
G01*
D11*
X168892857Y-69428571D02*
X169750000Y-69428571D01*
X169321428Y-70928571D02*
X169321428Y-69428571D01*
X170535714Y-69428571D02*
X170821428Y-69428571D01*
X170964285Y-69500000D01*
X171107142Y-69642857D01*
X171178571Y-69928571D01*
X171178571Y-70428571D01*
X171107142Y-70714285D01*
X170964285Y-70857142D01*
X170821428Y-70928571D01*
X170535714Y-70928571D01*
X170392857Y-70857142D01*
X170250000Y-70714285D01*
X170178571Y-70428571D01*
X170178571Y-69928571D01*
X170250000Y-69642857D01*
X170392857Y-69500000D01*
X170535714Y-69428571D01*
X171821428Y-70928571D02*
X171821428Y-69428571D01*
X172392857Y-69428571D01*
X172535714Y-69500000D01*
X172607142Y-69571428D01*
X172678571Y-69714285D01*
X172678571Y-69928571D01*
X172607142Y-70071428D01*
X172535714Y-70142857D01*
X172392857Y-70214285D01*
X171821428Y-70214285D01*
X174392857Y-70857142D02*
X174607142Y-70928571D01*
X174964285Y-70928571D01*
X175107142Y-70857142D01*
X175178571Y-70785714D01*
X175250000Y-70642857D01*
X175250000Y-70500000D01*
X175178571Y-70357142D01*
X175107142Y-70285714D01*
X174964285Y-70214285D01*
X174678571Y-70142857D01*
X174535714Y-70071428D01*
X174464285Y-70000000D01*
X174392857Y-69857142D01*
X174392857Y-69714285D01*
X174464285Y-69571428D01*
X174535714Y-69500000D01*
X174678571Y-69428571D01*
X175035714Y-69428571D01*
X175250000Y-69500000D01*
X175892857Y-70928571D02*
X175892857Y-69428571D01*
X176607142Y-70928571D02*
X176607142Y-69428571D01*
X176964285Y-69428571D01*
X177178571Y-69500000D01*
X177321428Y-69642857D01*
X177392857Y-69785714D01*
X177464285Y-70071428D01*
X177464285Y-70285714D01*
X177392857Y-70571428D01*
X177321428Y-70714285D01*
X177178571Y-70857142D01*
X176964285Y-70928571D01*
X176607142Y-70928571D01*
X178107142Y-70142857D02*
X178607142Y-70142857D01*
X178821428Y-70928571D02*
X178107142Y-70928571D01*
X178107142Y-69428571D01*
X178821428Y-69428571D01*
X181035714Y-71428571D02*
X180678571Y-71428571D01*
X180678571Y-69285714D01*
X181035714Y-69285714D01*
X182107142Y-70142857D02*
X182321428Y-70214285D01*
X182392857Y-70285714D01*
X182464285Y-70428571D01*
X182464285Y-70642857D01*
X182392857Y-70785714D01*
X182321428Y-70857142D01*
X182178571Y-70928571D01*
X181607142Y-70928571D01*
X181607142Y-69428571D01*
X182107142Y-69428571D01*
X182250000Y-69500000D01*
X182321428Y-69571428D01*
X182392857Y-69714285D01*
X182392857Y-69857142D01*
X182321428Y-70000000D01*
X182250000Y-70071428D01*
X182107142Y-70142857D01*
X181607142Y-70142857D01*
X183821428Y-70928571D02*
X183107142Y-70928571D01*
X183107142Y-69428571D01*
X184250000Y-70500000D02*
X184964285Y-70500000D01*
X184107142Y-70928571D02*
X184607142Y-69428571D01*
X185107142Y-70928571D01*
X186464285Y-70785714D02*
X186392857Y-70857142D01*
X186178571Y-70928571D01*
X186035714Y-70928571D01*
X185821428Y-70857142D01*
X185678571Y-70714285D01*
X185607142Y-70571428D01*
X185535714Y-70285714D01*
X185535714Y-70071428D01*
X185607142Y-69785714D01*
X185678571Y-69642857D01*
X185821428Y-69500000D01*
X186035714Y-69428571D01*
X186178571Y-69428571D01*
X186392857Y-69500000D01*
X186464285Y-69571428D01*
X187107142Y-70928571D02*
X187107142Y-69428571D01*
X187964285Y-70928571D02*
X187321428Y-70071428D01*
X187964285Y-69428571D02*
X187107142Y-70285714D01*
X190607142Y-70785714D02*
X190535714Y-70857142D01*
X190321428Y-70928571D01*
X190178571Y-70928571D01*
X189964285Y-70857142D01*
X189821428Y-70714285D01*
X189750000Y-70571428D01*
X189678571Y-70285714D01*
X189678571Y-70071428D01*
X189750000Y-69785714D01*
X189821428Y-69642857D01*
X189964285Y-69500000D01*
X190178571Y-69428571D01*
X190321428Y-69428571D01*
X190535714Y-69500000D01*
X190607142Y-69571428D01*
X191535714Y-69428571D02*
X191821428Y-69428571D01*
X191964285Y-69500000D01*
X192107142Y-69642857D01*
X192178571Y-69928571D01*
X192178571Y-70428571D01*
X192107142Y-70714285D01*
X191964285Y-70857142D01*
X191821428Y-70928571D01*
X191535714Y-70928571D01*
X191392857Y-70857142D01*
X191250000Y-70714285D01*
X191178571Y-70428571D01*
X191178571Y-69928571D01*
X191250000Y-69642857D01*
X191392857Y-69500000D01*
X191535714Y-69428571D01*
X192607142Y-69428571D02*
X193107142Y-70928571D01*
X193607142Y-69428571D01*
X194107142Y-70142857D02*
X194607142Y-70142857D01*
X194821428Y-70928571D02*
X194107142Y-70928571D01*
X194107142Y-69428571D01*
X194821428Y-69428571D01*
X196321428Y-70928571D02*
X195821428Y-70214285D01*
X195464285Y-70928571D02*
X195464285Y-69428571D01*
X196035714Y-69428571D01*
X196178571Y-69500000D01*
X196250000Y-69571428D01*
X196321428Y-69714285D01*
X196321428Y-69928571D01*
X196250000Y-70071428D01*
X196178571Y-70142857D01*
X196035714Y-70214285D01*
X195464285Y-70214285D01*
X198035714Y-70857142D02*
X198250000Y-70928571D01*
X198607142Y-70928571D01*
X198750000Y-70857142D01*
X198821428Y-70785714D01*
X198892857Y-70642857D01*
X198892857Y-70500000D01*
X198821428Y-70357142D01*
X198750000Y-70285714D01*
X198607142Y-70214285D01*
X198321428Y-70142857D01*
X198178571Y-70071428D01*
X198107142Y-70000000D01*
X198035714Y-69857142D01*
X198035714Y-69714285D01*
X198107142Y-69571428D01*
X198178571Y-69500000D01*
X198321428Y-69428571D01*
X198678571Y-69428571D01*
X198892857Y-69500000D01*
X199535714Y-70928571D02*
X199535714Y-69428571D01*
X200250000Y-70928571D02*
X200250000Y-69428571D01*
X200607142Y-69428571D01*
X200821428Y-69500000D01*
X200964285Y-69642857D01*
X201035714Y-69785714D01*
X201107142Y-70071428D01*
X201107142Y-70285714D01*
X201035714Y-70571428D01*
X200964285Y-70714285D01*
X200821428Y-70857142D01*
X200607142Y-70928571D01*
X200250000Y-70928571D01*
X201750000Y-70142857D02*
X202250000Y-70142857D01*
X202464285Y-70928571D02*
X201750000Y-70928571D01*
X201750000Y-69428571D01*
X202464285Y-69428571D01*
X202964285Y-71428571D02*
X203321428Y-71428571D01*
X203321428Y-69285714D01*
X202964285Y-69285714D01*
D12*
%TO.C,R16*%
X116762742Y-104877500D02*
X117237258Y-104877500D01*
X116762742Y-105922500D02*
X117237258Y-105922500D01*
%TO.C,R15*%
X116762742Y-101577500D02*
X117237258Y-101577500D01*
X116762742Y-102622500D02*
X117237258Y-102622500D01*
%TO.C,R17*%
X116662742Y-98177500D02*
X117137258Y-98177500D01*
X116662742Y-99222500D02*
X117137258Y-99222500D01*
%TO.C,R30*%
X118377500Y-121037258D02*
X118377500Y-120562742D01*
X119422500Y-121037258D02*
X119422500Y-120562742D01*
%TO.C,R28*%
X110222500Y-117062742D02*
X110222500Y-117537258D01*
X109177500Y-117062742D02*
X109177500Y-117537258D01*
%TO.C,R29*%
X118377500Y-117537258D02*
X118377500Y-117062742D01*
X119422500Y-117537258D02*
X119422500Y-117062742D01*
%TO.C,R27*%
X109177500Y-121037258D02*
X109177500Y-120562742D01*
X110222500Y-121037258D02*
X110222500Y-120562742D01*
%TO.C,C5*%
X120490000Y-120940580D02*
X120490000Y-120659420D01*
X121510000Y-120940580D02*
X121510000Y-120659420D01*
%TO.C,R26*%
X114262742Y-114077500D02*
X114737258Y-114077500D01*
X114262742Y-115122500D02*
X114737258Y-115122500D01*
%TO.C,C4*%
X108210000Y-117159420D02*
X108210000Y-117440580D01*
X107190000Y-117159420D02*
X107190000Y-117440580D01*
%TO.C,C3*%
X107190000Y-120940580D02*
X107190000Y-120659420D01*
X108210000Y-120940580D02*
X108210000Y-120659420D01*
%TO.C,IC1*%
X112880001Y-119400005D02*
X113080000Y-119400005D01*
X112880001Y-119400005D02*
X112880001Y-119200005D01*
X116080000Y-119400005D02*
X116279999Y-119400005D01*
X116279999Y-119400005D02*
X116279999Y-119200005D01*
X116279999Y-116200001D02*
X116279999Y-116000001D01*
X116080000Y-116000001D02*
X116279999Y-116000001D01*
X112880001Y-116310003D02*
X112880001Y-116000001D01*
X112880001Y-116000001D02*
X113615001Y-116000001D01*
%TO.C,R7*%
X147120000Y-84900000D02*
X147120000Y-83900000D01*
X148480000Y-83900000D02*
X148480000Y-84900000D01*
%TO.C,J1*%
X97500000Y-107050000D02*
X97500000Y-105500000D01*
X103790000Y-107050000D02*
X103790000Y-93330000D01*
X103790000Y-93330000D02*
X97510000Y-93330000D01*
X97510000Y-93330000D02*
X97510000Y-106200000D01*
X103790000Y-107070000D02*
X97510000Y-107070000D01*
X99400000Y-92980000D02*
X99100000Y-92380000D01*
X99100000Y-92380000D02*
X99700000Y-92380000D01*
X99700000Y-92380000D02*
X99400000Y-92980000D01*
D13*
%TO.C,C6*%
X124800000Y-100650000D02*
X124400000Y-100650000D01*
X124800000Y-101850000D02*
X124400000Y-101850000D01*
X127600000Y-101850000D02*
X124800000Y-101850000D01*
X124400000Y-101850000D02*
X124400000Y-100650000D01*
X124800000Y-100650000D02*
X127600000Y-100650000D01*
X127600000Y-100650000D02*
X127600000Y-101850000D01*
%TO.C,C7*%
X123550000Y-85900000D02*
X123150000Y-85900000D01*
X123550000Y-87100000D02*
X123150000Y-87100000D01*
X126350000Y-87100000D02*
X123550000Y-87100000D01*
X123150000Y-87100000D02*
X123150000Y-85900000D01*
X123550000Y-85900000D02*
X126350000Y-85900000D01*
X126350000Y-85900000D02*
X126350000Y-87100000D01*
D12*
%TO.C,Y1*%
X125025000Y-90240000D02*
X125025000Y-96640000D01*
X119975000Y-90240000D02*
X119975000Y-96640000D01*
X119975000Y-90240000D02*
G75*
G02*
X125025000Y-90240000I2525000J0D01*
G01*
X119975000Y-96640000D02*
G75*
G03*
X125025000Y-96640000I2525000J0D01*
G01*
%TO.C,J2*%
X176900000Y-97100000D02*
X171300000Y-97100000D01*
X174100000Y-103390000D02*
X183470000Y-103390000D01*
X183470000Y-103390000D02*
X183470000Y-97110000D01*
X183470000Y-97110000D02*
X176850000Y-97110000D01*
X174100000Y-103390000D02*
X164730000Y-103390000D01*
X164730000Y-103390000D02*
X164730000Y-97110000D01*
X164730000Y-97110000D02*
X171350000Y-97110000D01*
X183820000Y-99000000D02*
X184420000Y-98700000D01*
X184420000Y-98700000D02*
X184420000Y-99300000D01*
X184420000Y-99300000D02*
X183820000Y-99000000D01*
%TO.C,R8*%
X163700000Y-106520000D02*
X164700000Y-106520000D01*
X164700000Y-107880000D02*
X163700000Y-107880000D01*
%TO.C,R9*%
X157500000Y-87520000D02*
X158500000Y-87520000D01*
X158500000Y-88880000D02*
X157500000Y-88880000D01*
%TO.C,R10*%
X147900000Y-104520000D02*
X148900000Y-104520000D01*
X148900000Y-105880000D02*
X147900000Y-105880000D01*
%TO.C,R11*%
X187100000Y-92520000D02*
X188100000Y-92520000D01*
X188100000Y-93880000D02*
X187100000Y-93880000D01*
%TO.C,R12*%
X187100000Y-114320000D02*
X188100000Y-114320000D01*
X188100000Y-115680000D02*
X187100000Y-115680000D01*
%TO.C,R13*%
X187100000Y-106520000D02*
X188100000Y-106520000D01*
X188100000Y-107880000D02*
X187100000Y-107880000D01*
%TO.C,R14*%
X153100000Y-106280000D02*
X152100000Y-106280000D01*
X152100000Y-104920000D02*
X153100000Y-104920000D01*
%TO.C,R18*%
X133800000Y-111580000D02*
X132800000Y-111580000D01*
X132800000Y-110220000D02*
X133800000Y-110220000D01*
%TO.C,R19*%
X133800000Y-109580000D02*
X132800000Y-109580000D01*
X132800000Y-108220000D02*
X133800000Y-108220000D01*
%TO.C,R20*%
X133800000Y-120680000D02*
X132800000Y-120680000D01*
X132800000Y-119320000D02*
X133800000Y-119320000D01*
%TO.C,R21*%
X133800000Y-125380000D02*
X132800000Y-125380000D01*
X132800000Y-124020000D02*
X133800000Y-124020000D01*
%TO.C,R22*%
X133800000Y-123080000D02*
X132800000Y-123080000D01*
X132800000Y-121720000D02*
X133800000Y-121720000D01*
%TO.C,R23*%
X133800000Y-113680000D02*
X132800000Y-113680000D01*
X132800000Y-112320000D02*
X133800000Y-112320000D01*
%TO.C,R24*%
X133800000Y-116080000D02*
X132800000Y-116080000D01*
X132800000Y-114720000D02*
X133800000Y-114720000D01*
%TO.C,R25*%
X133800000Y-118280000D02*
X132800000Y-118280000D01*
X132800000Y-116920000D02*
X133800000Y-116920000D01*
D13*
%TO.C,U2*%
X130075000Y-86475000D02*
X130075000Y-86925000D01*
X137325000Y-86475000D02*
X137325000Y-87000000D01*
X137325000Y-93725000D02*
X137325000Y-93200000D01*
X130075000Y-93725000D02*
X130075000Y-93200000D01*
X130075000Y-86475000D02*
X130600000Y-86475000D01*
X130075000Y-93725000D02*
X130600000Y-93725000D01*
X137325000Y-93725000D02*
X136800000Y-93725000D01*
X137325000Y-86475000D02*
X136800000Y-86475000D01*
X130075000Y-86925000D02*
X128700000Y-86925000D01*
%TO.C,C1*%
X116500000Y-89400000D02*
X116100000Y-89400000D01*
X116500000Y-90600000D02*
X116100000Y-90600000D01*
X119300000Y-90600000D02*
X116500000Y-90600000D01*
X116100000Y-90600000D02*
X116100000Y-89400000D01*
X116500000Y-89400000D02*
X119300000Y-89400000D01*
X119300000Y-89400000D02*
X119300000Y-90600000D01*
%TO.C,C2*%
X116500000Y-93800000D02*
X116100000Y-93800000D01*
X116500000Y-95000000D02*
X116100000Y-95000000D01*
X119300000Y-95000000D02*
X116500000Y-95000000D01*
X116100000Y-95000000D02*
X116100000Y-93800000D01*
X116500000Y-93800000D02*
X119300000Y-93800000D01*
X119300000Y-93800000D02*
X119300000Y-95000000D01*
D12*
%TO.C,D1*%
X97800000Y-85400000D02*
X96200000Y-85400000D01*
X96200000Y-85400000D02*
X96200000Y-88000000D01*
X97800000Y-85400000D02*
X97800000Y-88000000D01*
D13*
%TO.C,J5*%
X97750000Y-79800000D02*
X98500000Y-79800000D01*
X97750000Y-84700000D02*
X98500000Y-84700000D01*
X97750000Y-79800000D02*
X95550000Y-79800000D01*
X95550000Y-84700000D02*
X97750000Y-84700000D01*
X95500000Y-79800000D02*
X95500000Y-84700000D01*
X98500000Y-79800000D02*
X98500000Y-84700000D01*
X95500000Y-81000000D02*
X94900000Y-80700000D01*
X94900000Y-80700000D02*
X94900000Y-81300000D01*
X94900000Y-81300000D02*
X95500000Y-81000000D01*
D12*
%TO.C,R1*%
X131080000Y-98000000D02*
X131080000Y-99000000D01*
X129720000Y-99000000D02*
X129720000Y-98000000D01*
%TO.C,R2*%
X129180000Y-98100000D02*
X129180000Y-99100000D01*
X127820000Y-99100000D02*
X127820000Y-98100000D01*
%TO.C,R3*%
X187500000Y-82320000D02*
X188500000Y-82320000D01*
X188500000Y-83680000D02*
X187500000Y-83680000D01*
%TO.C,R4*%
X163700000Y-114320000D02*
X164700000Y-114320000D01*
X164700000Y-115680000D02*
X163700000Y-115680000D01*
%TO.C,R5*%
X211100000Y-82320000D02*
X212100000Y-82320000D01*
X212100000Y-83680000D02*
X211100000Y-83680000D01*
%TO.C,R6*%
X161500000Y-88880000D02*
X160500000Y-88880000D01*
X160500000Y-87520000D02*
X161500000Y-87520000D01*
%TO.C,C8*%
X102350000Y-82400000D02*
X107450000Y-82400000D01*
X102350000Y-82360000D02*
X103920000Y-82360000D01*
X105880000Y-82360000D02*
X107450000Y-82360000D01*
X102351000Y-82320000D02*
X103920000Y-82320000D01*
X105880000Y-82320000D02*
X107449000Y-82320000D01*
X102352000Y-82280000D02*
X103920000Y-82280000D01*
X105880000Y-82280000D02*
X107448000Y-82280000D01*
X102354000Y-82240000D02*
X103920000Y-82240000D01*
X105880000Y-82240000D02*
X107446000Y-82240000D01*
X102357000Y-82200000D02*
X103920000Y-82200000D01*
X105880000Y-82200000D02*
X107443000Y-82200000D01*
X102361000Y-82160000D02*
X103920000Y-82160000D01*
X105880000Y-82160000D02*
X107439000Y-82160000D01*
X102365000Y-82120000D02*
X103920000Y-82120000D01*
X105880000Y-82120000D02*
X107435000Y-82120000D01*
X102369000Y-82080000D02*
X103920000Y-82080000D01*
X105880000Y-82080000D02*
X107431000Y-82080000D01*
X102375000Y-82040000D02*
X103920000Y-82040000D01*
X105880000Y-82040000D02*
X107425000Y-82040000D01*
X102381000Y-82000000D02*
X103920000Y-82000000D01*
X105880000Y-82000000D02*
X107419000Y-82000000D01*
X102387000Y-81960000D02*
X103920000Y-81960000D01*
X105880000Y-81960000D02*
X107413000Y-81960000D01*
X102394000Y-81920000D02*
X103920000Y-81920000D01*
X105880000Y-81920000D02*
X107406000Y-81920000D01*
X102402000Y-81880000D02*
X103920000Y-81880000D01*
X105880000Y-81880000D02*
X107398000Y-81880000D01*
X102411000Y-81840000D02*
X103920000Y-81840000D01*
X105880000Y-81840000D02*
X107389000Y-81840000D01*
X102420000Y-81800000D02*
X103920000Y-81800000D01*
X105880000Y-81800000D02*
X107380000Y-81800000D01*
X102430000Y-81760000D02*
X103920000Y-81760000D01*
X105880000Y-81760000D02*
X107370000Y-81760000D01*
X102440000Y-81720000D02*
X103920000Y-81720000D01*
X105880000Y-81720000D02*
X107360000Y-81720000D01*
X102452000Y-81679000D02*
X103920000Y-81679000D01*
X105880000Y-81679000D02*
X107348000Y-81679000D01*
X102464000Y-81639000D02*
X103920000Y-81639000D01*
X105880000Y-81639000D02*
X107336000Y-81639000D01*
X102476000Y-81599000D02*
X103920000Y-81599000D01*
X105880000Y-81599000D02*
X107324000Y-81599000D01*
X102490000Y-81559000D02*
X103920000Y-81559000D01*
X105880000Y-81559000D02*
X107310000Y-81559000D01*
X102504000Y-81519000D02*
X103920000Y-81519000D01*
X105880000Y-81519000D02*
X107296000Y-81519000D01*
X102518000Y-81479000D02*
X103920000Y-81479000D01*
X105880000Y-81479000D02*
X107282000Y-81479000D01*
X102534000Y-81439000D02*
X103920000Y-81439000D01*
X105880000Y-81439000D02*
X107266000Y-81439000D01*
X102550000Y-81399000D02*
X103920000Y-81399000D01*
X105880000Y-81399000D02*
X107250000Y-81399000D01*
X102567000Y-81359000D02*
X103920000Y-81359000D01*
X105880000Y-81359000D02*
X107233000Y-81359000D01*
X102585000Y-81319000D02*
X103920000Y-81319000D01*
X105880000Y-81319000D02*
X107215000Y-81319000D01*
X102604000Y-81279000D02*
X103920000Y-81279000D01*
X105880000Y-81279000D02*
X107196000Y-81279000D01*
X102624000Y-81239000D02*
X103920000Y-81239000D01*
X105880000Y-81239000D02*
X107176000Y-81239000D01*
X102644000Y-81199000D02*
X103920000Y-81199000D01*
X105880000Y-81199000D02*
X107156000Y-81199000D01*
X102666000Y-81159000D02*
X103920000Y-81159000D01*
X105880000Y-81159000D02*
X107134000Y-81159000D01*
X102688000Y-81119000D02*
X103920000Y-81119000D01*
X105880000Y-81119000D02*
X107112000Y-81119000D01*
X102711000Y-81079000D02*
X103920000Y-81079000D01*
X105880000Y-81079000D02*
X107089000Y-81079000D01*
X102735000Y-81039000D02*
X103920000Y-81039000D01*
X105880000Y-81039000D02*
X107065000Y-81039000D01*
X102760000Y-80999000D02*
X103920000Y-80999000D01*
X105880000Y-80999000D02*
X107040000Y-80999000D01*
X102787000Y-80959000D02*
X103920000Y-80959000D01*
X105880000Y-80959000D02*
X107013000Y-80959000D01*
X102814000Y-80919000D02*
X103920000Y-80919000D01*
X105880000Y-80919000D02*
X106986000Y-80919000D01*
X102842000Y-80879000D02*
X103920000Y-80879000D01*
X105880000Y-80879000D02*
X106958000Y-80879000D01*
X102872000Y-80839000D02*
X103920000Y-80839000D01*
X105880000Y-80839000D02*
X106928000Y-80839000D01*
X102903000Y-80799000D02*
X103920000Y-80799000D01*
X105880000Y-80799000D02*
X106897000Y-80799000D01*
X102935000Y-80759000D02*
X103920000Y-80759000D01*
X105880000Y-80759000D02*
X106865000Y-80759000D01*
X102968000Y-80719000D02*
X103920000Y-80719000D01*
X105880000Y-80719000D02*
X106832000Y-80719000D01*
X103003000Y-80679000D02*
X103920000Y-80679000D01*
X105880000Y-80679000D02*
X106797000Y-80679000D01*
X103039000Y-80639000D02*
X103920000Y-80639000D01*
X105880000Y-80639000D02*
X106761000Y-80639000D01*
X103077000Y-80599000D02*
X103920000Y-80599000D01*
X105880000Y-80599000D02*
X106723000Y-80599000D01*
X103117000Y-80559000D02*
X103920000Y-80559000D01*
X105880000Y-80559000D02*
X106683000Y-80559000D01*
X103158000Y-80519000D02*
X103920000Y-80519000D01*
X105880000Y-80519000D02*
X106642000Y-80519000D01*
X103201000Y-80479000D02*
X103920000Y-80479000D01*
X105880000Y-80479000D02*
X106599000Y-80479000D01*
X103246000Y-80439000D02*
X103920000Y-80439000D01*
X105880000Y-80439000D02*
X106554000Y-80439000D01*
X103294000Y-80399000D02*
X106506000Y-80399000D01*
X103344000Y-80359000D02*
X106456000Y-80359000D01*
X103396000Y-80319000D02*
X106404000Y-80319000D01*
X103452000Y-80279000D02*
X106348000Y-80279000D01*
X103510000Y-80239000D02*
X106290000Y-80239000D01*
X103573000Y-80199000D02*
X106227000Y-80199000D01*
X103639000Y-80159000D02*
X106161000Y-80159000D01*
X103711000Y-80119000D02*
X106089000Y-80119000D01*
X103788000Y-80079000D02*
X106012000Y-80079000D01*
X103872000Y-80039000D02*
X105928000Y-80039000D01*
X103966000Y-79999000D02*
X105834000Y-79999000D01*
X104071000Y-79959000D02*
X105729000Y-79959000D01*
X104193000Y-79919000D02*
X105607000Y-79919000D01*
X104341000Y-79879000D02*
X105459000Y-79879000D01*
X104546000Y-79839000D02*
X105254000Y-79839000D01*
X104900000Y-85600000D02*
X104900000Y-84400000D01*
X104250000Y-85000000D02*
X105550000Y-85000000D01*
X103720277Y-80094278D02*
G75*
G03*
X103720000Y-84705580I1179723J-2305722D01*
G01*
X106079723Y-80094278D02*
G75*
G02*
X106080000Y-84705580I-1179723J-2305722D01*
G01*
X106079723Y-80094278D02*
G75*
G03*
X103720000Y-80094420I-1179723J-2305722D01*
G01*
%TO.C,JS-1*%
X205600000Y-126400000D02*
X205600000Y-126800000D01*
X205600000Y-126800000D02*
X190700000Y-126800000D01*
X190700000Y-126800000D02*
X190700000Y-126400000D01*
X205600000Y-124800000D02*
X205600000Y-126400000D01*
X205600000Y-126400000D02*
X190700000Y-126400000D01*
X190700000Y-126400000D02*
X190700000Y-122800000D01*
X190700000Y-122800000D02*
X205600000Y-122800000D01*
X205600000Y-122800000D02*
X205600000Y-124800000D01*
%TO.C,JS-2*%
X179600000Y-126200000D02*
X179600000Y-126600000D01*
X179600000Y-126600000D02*
X166350000Y-126600000D01*
X166350000Y-126600000D02*
X166350000Y-126200000D01*
X179600000Y-124600000D02*
X179600000Y-126200000D01*
X179600000Y-126200000D02*
X166350000Y-126200000D01*
X166350000Y-126200000D02*
X166350000Y-122600000D01*
X166350000Y-122600000D02*
X179600000Y-122600000D01*
X179600000Y-122600000D02*
X179600000Y-124600000D01*
D13*
%TO.C,JS-3*%
X169450000Y-76000000D02*
X169450000Y-74475000D01*
X169450000Y-74475000D02*
X169725000Y-74475000D01*
X171000000Y-77300000D02*
X180075000Y-77275000D01*
X180075000Y-77275000D02*
X180075000Y-74500000D01*
X180075000Y-74500000D02*
X180075000Y-74475000D01*
X180075000Y-74475000D02*
X179800000Y-74475000D01*
X169450000Y-77300000D02*
X171000000Y-77300000D01*
X169450000Y-76000000D02*
X169450000Y-77300000D01*
X172270000Y-74476000D02*
X174810000Y-74476000D01*
X169730000Y-74476000D02*
X172270000Y-74476000D01*
X177350000Y-74476000D02*
X179890000Y-74476000D01*
X174810000Y-74476000D02*
X177350000Y-74476000D01*
%TO.C,JS-4*%
X203550000Y-76000000D02*
X203550000Y-77525000D01*
X203550000Y-77525000D02*
X203275000Y-77525000D01*
X202000000Y-74700000D02*
X192925000Y-74725000D01*
X192925000Y-74725000D02*
X192925000Y-77500000D01*
X192925000Y-77500000D02*
X192925000Y-77525000D01*
X192925000Y-77525000D02*
X193200000Y-77525000D01*
X203550000Y-74700000D02*
X202000000Y-74700000D01*
X203550000Y-76000000D02*
X203550000Y-74700000D01*
X200730000Y-77524000D02*
X198190000Y-77524000D01*
X203270000Y-77524000D02*
X200730000Y-77524000D01*
X195650000Y-77524000D02*
X193110000Y-77524000D01*
X198190000Y-77524000D02*
X195650000Y-77524000D01*
D12*
%TO.C,L1*%
X114200378Y-122160000D02*
X114999622Y-122160000D01*
X114200378Y-121040000D02*
X114999622Y-121040000D01*
%TO.C,R16*%
D13*
X119957142Y-105752380D02*
X119623809Y-105276190D01*
X119385714Y-105752380D02*
X119385714Y-104752380D01*
X119766666Y-104752380D01*
X119861904Y-104800000D01*
X119909523Y-104847619D01*
X119957142Y-104942857D01*
X119957142Y-105085714D01*
X119909523Y-105180952D01*
X119861904Y-105228571D01*
X119766666Y-105276190D01*
X119385714Y-105276190D01*
X120909523Y-105752380D02*
X120338095Y-105752380D01*
X120623809Y-105752380D02*
X120623809Y-104752380D01*
X120528571Y-104895238D01*
X120433333Y-104990476D01*
X120338095Y-105038095D01*
X121766666Y-104752380D02*
X121576190Y-104752380D01*
X121480952Y-104800000D01*
X121433333Y-104847619D01*
X121338095Y-104990476D01*
X121290476Y-105180952D01*
X121290476Y-105561904D01*
X121338095Y-105657142D01*
X121385714Y-105704761D01*
X121480952Y-105752380D01*
X121671428Y-105752380D01*
X121766666Y-105704761D01*
X121814285Y-105657142D01*
X121861904Y-105561904D01*
X121861904Y-105323809D01*
X121814285Y-105228571D01*
X121766666Y-105180952D01*
X121671428Y-105133333D01*
X121480952Y-105133333D01*
X121385714Y-105180952D01*
X121338095Y-105228571D01*
X121290476Y-105323809D01*
%TO.C,R15*%
X120157142Y-103352380D02*
X119823809Y-102876190D01*
X119585714Y-103352380D02*
X119585714Y-102352380D01*
X119966666Y-102352380D01*
X120061904Y-102400000D01*
X120109523Y-102447619D01*
X120157142Y-102542857D01*
X120157142Y-102685714D01*
X120109523Y-102780952D01*
X120061904Y-102828571D01*
X119966666Y-102876190D01*
X119585714Y-102876190D01*
X121109523Y-103352380D02*
X120538095Y-103352380D01*
X120823809Y-103352380D02*
X120823809Y-102352380D01*
X120728571Y-102495238D01*
X120633333Y-102590476D01*
X120538095Y-102638095D01*
X122014285Y-102352380D02*
X121538095Y-102352380D01*
X121490476Y-102828571D01*
X121538095Y-102780952D01*
X121633333Y-102733333D01*
X121871428Y-102733333D01*
X121966666Y-102780952D01*
X122014285Y-102828571D01*
X122061904Y-102923809D01*
X122061904Y-103161904D01*
X122014285Y-103257142D01*
X121966666Y-103304761D01*
X121871428Y-103352380D01*
X121633333Y-103352380D01*
X121538095Y-103304761D01*
X121490476Y-103257142D01*
%TO.C,R17*%
X116257142Y-97302380D02*
X115923809Y-96826190D01*
X115685714Y-97302380D02*
X115685714Y-96302380D01*
X116066666Y-96302380D01*
X116161904Y-96350000D01*
X116209523Y-96397619D01*
X116257142Y-96492857D01*
X116257142Y-96635714D01*
X116209523Y-96730952D01*
X116161904Y-96778571D01*
X116066666Y-96826190D01*
X115685714Y-96826190D01*
X117209523Y-97302380D02*
X116638095Y-97302380D01*
X116923809Y-97302380D02*
X116923809Y-96302380D01*
X116828571Y-96445238D01*
X116733333Y-96540476D01*
X116638095Y-96588095D01*
X117542857Y-96302380D02*
X118209523Y-96302380D01*
X117780952Y-97302380D01*
%TO.C,R30*%
X117532380Y-121442857D02*
X117056190Y-121776190D01*
X117532380Y-122014285D02*
X116532380Y-122014285D01*
X116532380Y-121633333D01*
X116580000Y-121538095D01*
X116627619Y-121490476D01*
X116722857Y-121442857D01*
X116865714Y-121442857D01*
X116960952Y-121490476D01*
X117008571Y-121538095D01*
X117056190Y-121633333D01*
X117056190Y-122014285D01*
X116532380Y-121109523D02*
X116532380Y-120490476D01*
X116913333Y-120823809D01*
X116913333Y-120680952D01*
X116960952Y-120585714D01*
X117008571Y-120538095D01*
X117103809Y-120490476D01*
X117341904Y-120490476D01*
X117437142Y-120538095D01*
X117484761Y-120585714D01*
X117532380Y-120680952D01*
X117532380Y-120966666D01*
X117484761Y-121061904D01*
X117437142Y-121109523D01*
X116532380Y-119871428D02*
X116532380Y-119776190D01*
X116580000Y-119680952D01*
X116627619Y-119633333D01*
X116722857Y-119585714D01*
X116913333Y-119538095D01*
X117151428Y-119538095D01*
X117341904Y-119585714D01*
X117437142Y-119633333D01*
X117484761Y-119680952D01*
X117532380Y-119776190D01*
X117532380Y-119871428D01*
X117484761Y-119966666D01*
X117437142Y-120014285D01*
X117341904Y-120061904D01*
X117151428Y-120109523D01*
X116913333Y-120109523D01*
X116722857Y-120061904D01*
X116627619Y-120014285D01*
X116580000Y-119966666D01*
X116532380Y-119871428D01*
%TO.C,R28*%
X111972380Y-117942857D02*
X111496190Y-118276190D01*
X111972380Y-118514285D02*
X110972380Y-118514285D01*
X110972380Y-118133333D01*
X111020000Y-118038095D01*
X111067619Y-117990476D01*
X111162857Y-117942857D01*
X111305714Y-117942857D01*
X111400952Y-117990476D01*
X111448571Y-118038095D01*
X111496190Y-118133333D01*
X111496190Y-118514285D01*
X111067619Y-117561904D02*
X111020000Y-117514285D01*
X110972380Y-117419047D01*
X110972380Y-117180952D01*
X111020000Y-117085714D01*
X111067619Y-117038095D01*
X111162857Y-116990476D01*
X111258095Y-116990476D01*
X111400952Y-117038095D01*
X111972380Y-117609523D01*
X111972380Y-116990476D01*
X111400952Y-116419047D02*
X111353333Y-116514285D01*
X111305714Y-116561904D01*
X111210476Y-116609523D01*
X111162857Y-116609523D01*
X111067619Y-116561904D01*
X111020000Y-116514285D01*
X110972380Y-116419047D01*
X110972380Y-116228571D01*
X111020000Y-116133333D01*
X111067619Y-116085714D01*
X111162857Y-116038095D01*
X111210476Y-116038095D01*
X111305714Y-116085714D01*
X111353333Y-116133333D01*
X111400952Y-116228571D01*
X111400952Y-116419047D01*
X111448571Y-116514285D01*
X111496190Y-116561904D01*
X111591428Y-116609523D01*
X111781904Y-116609523D01*
X111877142Y-116561904D01*
X111924761Y-116514285D01*
X111972380Y-116419047D01*
X111972380Y-116228571D01*
X111924761Y-116133333D01*
X111877142Y-116085714D01*
X111781904Y-116038095D01*
X111591428Y-116038095D01*
X111496190Y-116085714D01*
X111448571Y-116133333D01*
X111400952Y-116228571D01*
%TO.C,R29*%
X117532380Y-117942857D02*
X117056190Y-118276190D01*
X117532380Y-118514285D02*
X116532380Y-118514285D01*
X116532380Y-118133333D01*
X116580000Y-118038095D01*
X116627619Y-117990476D01*
X116722857Y-117942857D01*
X116865714Y-117942857D01*
X116960952Y-117990476D01*
X117008571Y-118038095D01*
X117056190Y-118133333D01*
X117056190Y-118514285D01*
X116627619Y-117561904D02*
X116580000Y-117514285D01*
X116532380Y-117419047D01*
X116532380Y-117180952D01*
X116580000Y-117085714D01*
X116627619Y-117038095D01*
X116722857Y-116990476D01*
X116818095Y-116990476D01*
X116960952Y-117038095D01*
X117532380Y-117609523D01*
X117532380Y-116990476D01*
X117532380Y-116514285D02*
X117532380Y-116323809D01*
X117484761Y-116228571D01*
X117437142Y-116180952D01*
X117294285Y-116085714D01*
X117103809Y-116038095D01*
X116722857Y-116038095D01*
X116627619Y-116085714D01*
X116580000Y-116133333D01*
X116532380Y-116228571D01*
X116532380Y-116419047D01*
X116580000Y-116514285D01*
X116627619Y-116561904D01*
X116722857Y-116609523D01*
X116960952Y-116609523D01*
X117056190Y-116561904D01*
X117103809Y-116514285D01*
X117151428Y-116419047D01*
X117151428Y-116228571D01*
X117103809Y-116133333D01*
X117056190Y-116085714D01*
X116960952Y-116038095D01*
%TO.C,R27*%
X108332380Y-121442857D02*
X107856190Y-121776190D01*
X108332380Y-122014285D02*
X107332380Y-122014285D01*
X107332380Y-121633333D01*
X107380000Y-121538095D01*
X107427619Y-121490476D01*
X107522857Y-121442857D01*
X107665714Y-121442857D01*
X107760952Y-121490476D01*
X107808571Y-121538095D01*
X107856190Y-121633333D01*
X107856190Y-122014285D01*
X107427619Y-121061904D02*
X107380000Y-121014285D01*
X107332380Y-120919047D01*
X107332380Y-120680952D01*
X107380000Y-120585714D01*
X107427619Y-120538095D01*
X107522857Y-120490476D01*
X107618095Y-120490476D01*
X107760952Y-120538095D01*
X108332380Y-121109523D01*
X108332380Y-120490476D01*
X107332380Y-120157142D02*
X107332380Y-119490476D01*
X108332380Y-119919047D01*
%TO.C,C5*%
X119507142Y-120966666D02*
X119554761Y-121014285D01*
X119602380Y-121157142D01*
X119602380Y-121252380D01*
X119554761Y-121395238D01*
X119459523Y-121490476D01*
X119364285Y-121538095D01*
X119173809Y-121585714D01*
X119030952Y-121585714D01*
X118840476Y-121538095D01*
X118745238Y-121490476D01*
X118650000Y-121395238D01*
X118602380Y-121252380D01*
X118602380Y-121157142D01*
X118650000Y-121014285D01*
X118697619Y-120966666D01*
X118602380Y-120061904D02*
X118602380Y-120538095D01*
X119078571Y-120585714D01*
X119030952Y-120538095D01*
X118983333Y-120442857D01*
X118983333Y-120204761D01*
X119030952Y-120109523D01*
X119078571Y-120061904D01*
X119173809Y-120014285D01*
X119411904Y-120014285D01*
X119507142Y-120061904D01*
X119554761Y-120109523D01*
X119602380Y-120204761D01*
X119602380Y-120442857D01*
X119554761Y-120538095D01*
X119507142Y-120585714D01*
%TO.C,R26*%
X113857142Y-113232380D02*
X113523809Y-112756190D01*
X113285714Y-113232380D02*
X113285714Y-112232380D01*
X113666666Y-112232380D01*
X113761904Y-112280000D01*
X113809523Y-112327619D01*
X113857142Y-112422857D01*
X113857142Y-112565714D01*
X113809523Y-112660952D01*
X113761904Y-112708571D01*
X113666666Y-112756190D01*
X113285714Y-112756190D01*
X114238095Y-112327619D02*
X114285714Y-112280000D01*
X114380952Y-112232380D01*
X114619047Y-112232380D01*
X114714285Y-112280000D01*
X114761904Y-112327619D01*
X114809523Y-112422857D01*
X114809523Y-112518095D01*
X114761904Y-112660952D01*
X114190476Y-113232380D01*
X114809523Y-113232380D01*
X115666666Y-112232380D02*
X115476190Y-112232380D01*
X115380952Y-112280000D01*
X115333333Y-112327619D01*
X115238095Y-112470476D01*
X115190476Y-112660952D01*
X115190476Y-113041904D01*
X115238095Y-113137142D01*
X115285714Y-113184761D01*
X115380952Y-113232380D01*
X115571428Y-113232380D01*
X115666666Y-113184761D01*
X115714285Y-113137142D01*
X115761904Y-113041904D01*
X115761904Y-112803809D01*
X115714285Y-112708571D01*
X115666666Y-112660952D01*
X115571428Y-112613333D01*
X115380952Y-112613333D01*
X115285714Y-112660952D01*
X115238095Y-112708571D01*
X115190476Y-112803809D01*
%TO.C,C4*%
X109907142Y-117466666D02*
X109954761Y-117514285D01*
X110002380Y-117657142D01*
X110002380Y-117752380D01*
X109954761Y-117895238D01*
X109859523Y-117990476D01*
X109764285Y-118038095D01*
X109573809Y-118085714D01*
X109430952Y-118085714D01*
X109240476Y-118038095D01*
X109145238Y-117990476D01*
X109050000Y-117895238D01*
X109002380Y-117752380D01*
X109002380Y-117657142D01*
X109050000Y-117514285D01*
X109097619Y-117466666D01*
X109335714Y-116609523D02*
X110002380Y-116609523D01*
X108954761Y-116847619D02*
X109669047Y-117085714D01*
X109669047Y-116466666D01*
%TO.C,C3*%
X106207142Y-120966666D02*
X106254761Y-121014285D01*
X106302380Y-121157142D01*
X106302380Y-121252380D01*
X106254761Y-121395238D01*
X106159523Y-121490476D01*
X106064285Y-121538095D01*
X105873809Y-121585714D01*
X105730952Y-121585714D01*
X105540476Y-121538095D01*
X105445238Y-121490476D01*
X105350000Y-121395238D01*
X105302380Y-121252380D01*
X105302380Y-121157142D01*
X105350000Y-121014285D01*
X105397619Y-120966666D01*
X105302380Y-120633333D02*
X105302380Y-120014285D01*
X105683333Y-120347619D01*
X105683333Y-120204761D01*
X105730952Y-120109523D01*
X105778571Y-120061904D01*
X105873809Y-120014285D01*
X106111904Y-120014285D01*
X106207142Y-120061904D01*
X106254761Y-120109523D01*
X106302380Y-120204761D01*
X106302380Y-120490476D01*
X106254761Y-120585714D01*
X106207142Y-120633333D01*
%TO.C,IC1*%
X112803809Y-115652383D02*
X112803809Y-114652383D01*
X113851428Y-115557145D02*
X113803809Y-115604764D01*
X113660952Y-115652383D01*
X113565714Y-115652383D01*
X113422857Y-115604764D01*
X113327619Y-115509526D01*
X113280000Y-115414288D01*
X113232380Y-115223812D01*
X113232380Y-115080955D01*
X113280000Y-114890479D01*
X113327619Y-114795241D01*
X113422857Y-114700003D01*
X113565714Y-114652383D01*
X113660952Y-114652383D01*
X113803809Y-114700003D01*
X113851428Y-114747622D01*
X114803809Y-115652383D02*
X114232380Y-115652383D01*
X114518095Y-115652383D02*
X114518095Y-114652383D01*
X114422857Y-114795241D01*
X114327619Y-114890479D01*
X114232380Y-114938098D01*
%TO.C,SW6*%
X220057142Y-89704761D02*
X220200000Y-89752380D01*
X220438095Y-89752380D01*
X220533333Y-89704761D01*
X220580952Y-89657142D01*
X220628571Y-89561904D01*
X220628571Y-89466666D01*
X220580952Y-89371428D01*
X220533333Y-89323809D01*
X220438095Y-89276190D01*
X220247619Y-89228571D01*
X220152380Y-89180952D01*
X220104761Y-89133333D01*
X220057142Y-89038095D01*
X220057142Y-88942857D01*
X220104761Y-88847619D01*
X220152380Y-88800000D01*
X220247619Y-88752380D01*
X220485714Y-88752380D01*
X220628571Y-88800000D01*
X221057142Y-89752380D02*
X221057142Y-88752380D01*
X221438095Y-88752380D01*
X221533333Y-88800000D01*
X221580952Y-88847619D01*
X221628571Y-88942857D01*
X221628571Y-89085714D01*
X221580952Y-89180952D01*
X221533333Y-89228571D01*
X221438095Y-89276190D01*
X221057142Y-89276190D01*
X222009523Y-89704761D02*
X222152380Y-89752380D01*
X222390476Y-89752380D01*
X222485714Y-89704761D01*
X222533333Y-89657142D01*
X222580952Y-89561904D01*
X222580952Y-89466666D01*
X222533333Y-89371428D01*
X222485714Y-89323809D01*
X222390476Y-89276190D01*
X222200000Y-89228571D01*
X222104761Y-89180952D01*
X222057142Y-89133333D01*
X222009523Y-89038095D01*
X222009523Y-88942857D01*
X222057142Y-88847619D01*
X222104761Y-88800000D01*
X222200000Y-88752380D01*
X222438095Y-88752380D01*
X222580952Y-88800000D01*
X222866666Y-88752380D02*
X223438095Y-88752380D01*
X223152380Y-89752380D02*
X223152380Y-88752380D01*
%TO.C,*%
%TO.C,R7*%
X146033333Y-83052380D02*
X145700000Y-82576190D01*
X145461904Y-83052380D02*
X145461904Y-82052380D01*
X145842857Y-82052380D01*
X145938095Y-82100000D01*
X145985714Y-82147619D01*
X146033333Y-82242857D01*
X146033333Y-82385714D01*
X145985714Y-82480952D01*
X145938095Y-82528571D01*
X145842857Y-82576190D01*
X145461904Y-82576190D01*
X146366666Y-82052380D02*
X147033333Y-82052380D01*
X146604761Y-83052380D01*
%TO.C,J1*%
X100252380Y-92333333D02*
X100966666Y-92333333D01*
X101109523Y-92380952D01*
X101204761Y-92476190D01*
X101252380Y-92619047D01*
X101252380Y-92714285D01*
X101252380Y-91333333D02*
X101252380Y-91904761D01*
X101252380Y-91619047D02*
X100252380Y-91619047D01*
X100395238Y-91714285D01*
X100490476Y-91809523D01*
X100538095Y-91904761D01*
%TO.C,C6*%
X123266666Y-101485714D02*
X123228571Y-101523809D01*
X123114285Y-101561904D01*
X123038095Y-101561904D01*
X122923809Y-101523809D01*
X122847619Y-101447619D01*
X122809523Y-101371428D01*
X122771428Y-101219047D01*
X122771428Y-101104761D01*
X122809523Y-100952380D01*
X122847619Y-100876190D01*
X122923809Y-100800000D01*
X123038095Y-100761904D01*
X123114285Y-100761904D01*
X123228571Y-100800000D01*
X123266666Y-100838095D01*
X123952380Y-100761904D02*
X123800000Y-100761904D01*
X123723809Y-100800000D01*
X123685714Y-100838095D01*
X123609523Y-100952380D01*
X123571428Y-101104761D01*
X123571428Y-101409523D01*
X123609523Y-101485714D01*
X123647619Y-101523809D01*
X123723809Y-101561904D01*
X123876190Y-101561904D01*
X123952380Y-101523809D01*
X123990476Y-101485714D01*
X124028571Y-101409523D01*
X124028571Y-101219047D01*
X123990476Y-101142857D01*
X123952380Y-101104761D01*
X123876190Y-101066666D01*
X123723809Y-101066666D01*
X123647619Y-101104761D01*
X123609523Y-101142857D01*
X123571428Y-101219047D01*
%TO.C,C7*%
X122166666Y-86785714D02*
X122128571Y-86823809D01*
X122014285Y-86861904D01*
X121938095Y-86861904D01*
X121823809Y-86823809D01*
X121747619Y-86747619D01*
X121709523Y-86671428D01*
X121671428Y-86519047D01*
X121671428Y-86404761D01*
X121709523Y-86252380D01*
X121747619Y-86176190D01*
X121823809Y-86100000D01*
X121938095Y-86061904D01*
X122014285Y-86061904D01*
X122128571Y-86100000D01*
X122166666Y-86138095D01*
X122433333Y-86061904D02*
X122966666Y-86061904D01*
X122623809Y-86861904D01*
%TO.C,Y1*%
X118123809Y-87076190D02*
X118123809Y-87552380D01*
X117790476Y-86552380D02*
X118123809Y-87076190D01*
X118457142Y-86552380D01*
X119314285Y-87552380D02*
X118742857Y-87552380D01*
X119028571Y-87552380D02*
X119028571Y-86552380D01*
X118933333Y-86695238D01*
X118838095Y-86790476D01*
X118742857Y-86838095D01*
%TO.C,*%
%TO.C,J2*%
X184466666Y-102252380D02*
X184466666Y-102966666D01*
X184419047Y-103109523D01*
X184323809Y-103204761D01*
X184180952Y-103252380D01*
X184085714Y-103252380D01*
X184895238Y-102347619D02*
X184942857Y-102300000D01*
X185038095Y-102252380D01*
X185276190Y-102252380D01*
X185371428Y-102300000D01*
X185419047Y-102347619D01*
X185466666Y-102442857D01*
X185466666Y-102538095D01*
X185419047Y-102680952D01*
X184847619Y-103252380D01*
X185466666Y-103252380D01*
%TO.C,R8*%
X161833333Y-108452380D02*
X161500000Y-107976190D01*
X161261904Y-108452380D02*
X161261904Y-107452380D01*
X161642857Y-107452380D01*
X161738095Y-107500000D01*
X161785714Y-107547619D01*
X161833333Y-107642857D01*
X161833333Y-107785714D01*
X161785714Y-107880952D01*
X161738095Y-107928571D01*
X161642857Y-107976190D01*
X161261904Y-107976190D01*
X162404761Y-107880952D02*
X162309523Y-107833333D01*
X162261904Y-107785714D01*
X162214285Y-107690476D01*
X162214285Y-107642857D01*
X162261904Y-107547619D01*
X162309523Y-107500000D01*
X162404761Y-107452380D01*
X162595238Y-107452380D01*
X162690476Y-107500000D01*
X162738095Y-107547619D01*
X162785714Y-107642857D01*
X162785714Y-107690476D01*
X162738095Y-107785714D01*
X162690476Y-107833333D01*
X162595238Y-107880952D01*
X162404761Y-107880952D01*
X162309523Y-107928571D01*
X162261904Y-107976190D01*
X162214285Y-108071428D01*
X162214285Y-108261904D01*
X162261904Y-108357142D01*
X162309523Y-108404761D01*
X162404761Y-108452380D01*
X162595238Y-108452380D01*
X162690476Y-108404761D01*
X162738095Y-108357142D01*
X162785714Y-108261904D01*
X162785714Y-108071428D01*
X162738095Y-107976190D01*
X162690476Y-107928571D01*
X162595238Y-107880952D01*
%TO.C,R9*%
X158433333Y-90052380D02*
X158100000Y-89576190D01*
X157861904Y-90052380D02*
X157861904Y-89052380D01*
X158242857Y-89052380D01*
X158338095Y-89100000D01*
X158385714Y-89147619D01*
X158433333Y-89242857D01*
X158433333Y-89385714D01*
X158385714Y-89480952D01*
X158338095Y-89528571D01*
X158242857Y-89576190D01*
X157861904Y-89576190D01*
X158909523Y-90052380D02*
X159100000Y-90052380D01*
X159195238Y-90004761D01*
X159242857Y-89957142D01*
X159338095Y-89814285D01*
X159385714Y-89623809D01*
X159385714Y-89242857D01*
X159338095Y-89147619D01*
X159290476Y-89100000D01*
X159195238Y-89052380D01*
X159004761Y-89052380D01*
X158909523Y-89100000D01*
X158861904Y-89147619D01*
X158814285Y-89242857D01*
X158814285Y-89480952D01*
X158861904Y-89576190D01*
X158909523Y-89623809D01*
X159004761Y-89671428D01*
X159195238Y-89671428D01*
X159290476Y-89623809D01*
X159338095Y-89576190D01*
X159385714Y-89480952D01*
%TO.C,R10*%
X145157142Y-106852380D02*
X144823809Y-106376190D01*
X144585714Y-106852380D02*
X144585714Y-105852380D01*
X144966666Y-105852380D01*
X145061904Y-105900000D01*
X145109523Y-105947619D01*
X145157142Y-106042857D01*
X145157142Y-106185714D01*
X145109523Y-106280952D01*
X145061904Y-106328571D01*
X144966666Y-106376190D01*
X144585714Y-106376190D01*
X146109523Y-106852380D02*
X145538095Y-106852380D01*
X145823809Y-106852380D02*
X145823809Y-105852380D01*
X145728571Y-105995238D01*
X145633333Y-106090476D01*
X145538095Y-106138095D01*
X146728571Y-105852380D02*
X146823809Y-105852380D01*
X146919047Y-105900000D01*
X146966666Y-105947619D01*
X147014285Y-106042857D01*
X147061904Y-106233333D01*
X147061904Y-106471428D01*
X147014285Y-106661904D01*
X146966666Y-106757142D01*
X146919047Y-106804761D01*
X146823809Y-106852380D01*
X146728571Y-106852380D01*
X146633333Y-106804761D01*
X146585714Y-106757142D01*
X146538095Y-106661904D01*
X146490476Y-106471428D01*
X146490476Y-106233333D01*
X146538095Y-106042857D01*
X146585714Y-105947619D01*
X146633333Y-105900000D01*
X146728571Y-105852380D01*
%TO.C,R11*%
X184157142Y-93652380D02*
X183823809Y-93176190D01*
X183585714Y-93652380D02*
X183585714Y-92652380D01*
X183966666Y-92652380D01*
X184061904Y-92700000D01*
X184109523Y-92747619D01*
X184157142Y-92842857D01*
X184157142Y-92985714D01*
X184109523Y-93080952D01*
X184061904Y-93128571D01*
X183966666Y-93176190D01*
X183585714Y-93176190D01*
X185109523Y-93652380D02*
X184538095Y-93652380D01*
X184823809Y-93652380D02*
X184823809Y-92652380D01*
X184728571Y-92795238D01*
X184633333Y-92890476D01*
X184538095Y-92938095D01*
X186061904Y-93652380D02*
X185490476Y-93652380D01*
X185776190Y-93652380D02*
X185776190Y-92652380D01*
X185680952Y-92795238D01*
X185585714Y-92890476D01*
X185490476Y-92938095D01*
%TO.C,R12*%
X184357142Y-115652380D02*
X184023809Y-115176190D01*
X183785714Y-115652380D02*
X183785714Y-114652380D01*
X184166666Y-114652380D01*
X184261904Y-114700000D01*
X184309523Y-114747619D01*
X184357142Y-114842857D01*
X184357142Y-114985714D01*
X184309523Y-115080952D01*
X184261904Y-115128571D01*
X184166666Y-115176190D01*
X183785714Y-115176190D01*
X185309523Y-115652380D02*
X184738095Y-115652380D01*
X185023809Y-115652380D02*
X185023809Y-114652380D01*
X184928571Y-114795238D01*
X184833333Y-114890476D01*
X184738095Y-114938095D01*
X185690476Y-114747619D02*
X185738095Y-114700000D01*
X185833333Y-114652380D01*
X186071428Y-114652380D01*
X186166666Y-114700000D01*
X186214285Y-114747619D01*
X186261904Y-114842857D01*
X186261904Y-114938095D01*
X186214285Y-115080952D01*
X185642857Y-115652380D01*
X186261904Y-115652380D01*
%TO.C,R13*%
X186557142Y-106252380D02*
X186223809Y-105776190D01*
X185985714Y-106252380D02*
X185985714Y-105252380D01*
X186366666Y-105252380D01*
X186461904Y-105300000D01*
X186509523Y-105347619D01*
X186557142Y-105442857D01*
X186557142Y-105585714D01*
X186509523Y-105680952D01*
X186461904Y-105728571D01*
X186366666Y-105776190D01*
X185985714Y-105776190D01*
X187509523Y-106252380D02*
X186938095Y-106252380D01*
X187223809Y-106252380D02*
X187223809Y-105252380D01*
X187128571Y-105395238D01*
X187033333Y-105490476D01*
X186938095Y-105538095D01*
X187842857Y-105252380D02*
X188461904Y-105252380D01*
X188128571Y-105633333D01*
X188271428Y-105633333D01*
X188366666Y-105680952D01*
X188414285Y-105728571D01*
X188461904Y-105823809D01*
X188461904Y-106061904D01*
X188414285Y-106157142D01*
X188366666Y-106204761D01*
X188271428Y-106252380D01*
X187985714Y-106252380D01*
X187890476Y-106204761D01*
X187842857Y-106157142D01*
%TO.C,R14*%
X154557142Y-106052380D02*
X154223809Y-105576190D01*
X153985714Y-106052380D02*
X153985714Y-105052380D01*
X154366666Y-105052380D01*
X154461904Y-105100000D01*
X154509523Y-105147619D01*
X154557142Y-105242857D01*
X154557142Y-105385714D01*
X154509523Y-105480952D01*
X154461904Y-105528571D01*
X154366666Y-105576190D01*
X153985714Y-105576190D01*
X155509523Y-106052380D02*
X154938095Y-106052380D01*
X155223809Y-106052380D02*
X155223809Y-105052380D01*
X155128571Y-105195238D01*
X155033333Y-105290476D01*
X154938095Y-105338095D01*
X156366666Y-105385714D02*
X156366666Y-106052380D01*
X156128571Y-105004761D02*
X155890476Y-105719047D01*
X156509523Y-105719047D01*
%TO.C,R18*%
X129685714Y-111261904D02*
X129419047Y-110880952D01*
X129228571Y-111261904D02*
X129228571Y-110461904D01*
X129533333Y-110461904D01*
X129609523Y-110500000D01*
X129647619Y-110538095D01*
X129685714Y-110614285D01*
X129685714Y-110728571D01*
X129647619Y-110804761D01*
X129609523Y-110842857D01*
X129533333Y-110880952D01*
X129228571Y-110880952D01*
X130447619Y-111261904D02*
X129990476Y-111261904D01*
X130219047Y-111261904D02*
X130219047Y-110461904D01*
X130142857Y-110576190D01*
X130066666Y-110652380D01*
X129990476Y-110690476D01*
X130904761Y-110804761D02*
X130828571Y-110766666D01*
X130790476Y-110728571D01*
X130752380Y-110652380D01*
X130752380Y-110614285D01*
X130790476Y-110538095D01*
X130828571Y-110500000D01*
X130904761Y-110461904D01*
X131057142Y-110461904D01*
X131133333Y-110500000D01*
X131171428Y-110538095D01*
X131209523Y-110614285D01*
X131209523Y-110652380D01*
X131171428Y-110728571D01*
X131133333Y-110766666D01*
X131057142Y-110804761D01*
X130904761Y-110804761D01*
X130828571Y-110842857D01*
X130790476Y-110880952D01*
X130752380Y-110957142D01*
X130752380Y-111109523D01*
X130790476Y-111185714D01*
X130828571Y-111223809D01*
X130904761Y-111261904D01*
X131057142Y-111261904D01*
X131133333Y-111223809D01*
X131171428Y-111185714D01*
X131209523Y-111109523D01*
X131209523Y-110957142D01*
X131171428Y-110880952D01*
X131133333Y-110842857D01*
X131057142Y-110804761D01*
%TO.C,R19*%
X130285714Y-109361904D02*
X130019047Y-108980952D01*
X129828571Y-109361904D02*
X129828571Y-108561904D01*
X130133333Y-108561904D01*
X130209523Y-108600000D01*
X130247619Y-108638095D01*
X130285714Y-108714285D01*
X130285714Y-108828571D01*
X130247619Y-108904761D01*
X130209523Y-108942857D01*
X130133333Y-108980952D01*
X129828571Y-108980952D01*
X131047619Y-109361904D02*
X130590476Y-109361904D01*
X130819047Y-109361904D02*
X130819047Y-108561904D01*
X130742857Y-108676190D01*
X130666666Y-108752380D01*
X130590476Y-108790476D01*
X131428571Y-109361904D02*
X131580952Y-109361904D01*
X131657142Y-109323809D01*
X131695238Y-109285714D01*
X131771428Y-109171428D01*
X131809523Y-109019047D01*
X131809523Y-108714285D01*
X131771428Y-108638095D01*
X131733333Y-108600000D01*
X131657142Y-108561904D01*
X131504761Y-108561904D01*
X131428571Y-108600000D01*
X131390476Y-108638095D01*
X131352380Y-108714285D01*
X131352380Y-108904761D01*
X131390476Y-108980952D01*
X131428571Y-109019047D01*
X131504761Y-109057142D01*
X131657142Y-109057142D01*
X131733333Y-109019047D01*
X131771428Y-108980952D01*
X131809523Y-108904761D01*
%TO.C,R20*%
X129157142Y-120352380D02*
X128823809Y-119876190D01*
X128585714Y-120352380D02*
X128585714Y-119352380D01*
X128966666Y-119352380D01*
X129061904Y-119400000D01*
X129109523Y-119447619D01*
X129157142Y-119542857D01*
X129157142Y-119685714D01*
X129109523Y-119780952D01*
X129061904Y-119828571D01*
X128966666Y-119876190D01*
X128585714Y-119876190D01*
X129538095Y-119447619D02*
X129585714Y-119400000D01*
X129680952Y-119352380D01*
X129919047Y-119352380D01*
X130014285Y-119400000D01*
X130061904Y-119447619D01*
X130109523Y-119542857D01*
X130109523Y-119638095D01*
X130061904Y-119780952D01*
X129490476Y-120352380D01*
X130109523Y-120352380D01*
X130728571Y-119352380D02*
X130823809Y-119352380D01*
X130919047Y-119400000D01*
X130966666Y-119447619D01*
X131014285Y-119542857D01*
X131061904Y-119733333D01*
X131061904Y-119971428D01*
X131014285Y-120161904D01*
X130966666Y-120257142D01*
X130919047Y-120304761D01*
X130823809Y-120352380D01*
X130728571Y-120352380D01*
X130633333Y-120304761D01*
X130585714Y-120257142D01*
X130538095Y-120161904D01*
X130490476Y-119971428D01*
X130490476Y-119733333D01*
X130538095Y-119542857D01*
X130585714Y-119447619D01*
X130633333Y-119400000D01*
X130728571Y-119352380D01*
%TO.C,R21*%
X128957142Y-125452380D02*
X128623809Y-124976190D01*
X128385714Y-125452380D02*
X128385714Y-124452380D01*
X128766666Y-124452380D01*
X128861904Y-124500000D01*
X128909523Y-124547619D01*
X128957142Y-124642857D01*
X128957142Y-124785714D01*
X128909523Y-124880952D01*
X128861904Y-124928571D01*
X128766666Y-124976190D01*
X128385714Y-124976190D01*
X129338095Y-124547619D02*
X129385714Y-124500000D01*
X129480952Y-124452380D01*
X129719047Y-124452380D01*
X129814285Y-124500000D01*
X129861904Y-124547619D01*
X129909523Y-124642857D01*
X129909523Y-124738095D01*
X129861904Y-124880952D01*
X129290476Y-125452380D01*
X129909523Y-125452380D01*
X130861904Y-125452380D02*
X130290476Y-125452380D01*
X130576190Y-125452380D02*
X130576190Y-124452380D01*
X130480952Y-124595238D01*
X130385714Y-124690476D01*
X130290476Y-124738095D01*
%TO.C,R22*%
X128757142Y-122652380D02*
X128423809Y-122176190D01*
X128185714Y-122652380D02*
X128185714Y-121652380D01*
X128566666Y-121652380D01*
X128661904Y-121700000D01*
X128709523Y-121747619D01*
X128757142Y-121842857D01*
X128757142Y-121985714D01*
X128709523Y-122080952D01*
X128661904Y-122128571D01*
X128566666Y-122176190D01*
X128185714Y-122176190D01*
X129138095Y-121747619D02*
X129185714Y-121700000D01*
X129280952Y-121652380D01*
X129519047Y-121652380D01*
X129614285Y-121700000D01*
X129661904Y-121747619D01*
X129709523Y-121842857D01*
X129709523Y-121938095D01*
X129661904Y-122080952D01*
X129090476Y-122652380D01*
X129709523Y-122652380D01*
X130090476Y-121747619D02*
X130138095Y-121700000D01*
X130233333Y-121652380D01*
X130471428Y-121652380D01*
X130566666Y-121700000D01*
X130614285Y-121747619D01*
X130661904Y-121842857D01*
X130661904Y-121938095D01*
X130614285Y-122080952D01*
X130042857Y-122652380D01*
X130661904Y-122652380D01*
%TO.C,R23*%
X130185714Y-112761904D02*
X129919047Y-112380952D01*
X129728571Y-112761904D02*
X129728571Y-111961904D01*
X130033333Y-111961904D01*
X130109523Y-112000000D01*
X130147619Y-112038095D01*
X130185714Y-112114285D01*
X130185714Y-112228571D01*
X130147619Y-112304761D01*
X130109523Y-112342857D01*
X130033333Y-112380952D01*
X129728571Y-112380952D01*
X130490476Y-112038095D02*
X130528571Y-112000000D01*
X130604761Y-111961904D01*
X130795238Y-111961904D01*
X130871428Y-112000000D01*
X130909523Y-112038095D01*
X130947619Y-112114285D01*
X130947619Y-112190476D01*
X130909523Y-112304761D01*
X130452380Y-112761904D01*
X130947619Y-112761904D01*
X131214285Y-111961904D02*
X131709523Y-111961904D01*
X131442857Y-112266666D01*
X131557142Y-112266666D01*
X131633333Y-112304761D01*
X131671428Y-112342857D01*
X131709523Y-112419047D01*
X131709523Y-112609523D01*
X131671428Y-112685714D01*
X131633333Y-112723809D01*
X131557142Y-112761904D01*
X131328571Y-112761904D01*
X131252380Y-112723809D01*
X131214285Y-112685714D01*
%TO.C,R24*%
X129257142Y-115852380D02*
X128923809Y-115376190D01*
X128685714Y-115852380D02*
X128685714Y-114852380D01*
X129066666Y-114852380D01*
X129161904Y-114900000D01*
X129209523Y-114947619D01*
X129257142Y-115042857D01*
X129257142Y-115185714D01*
X129209523Y-115280952D01*
X129161904Y-115328571D01*
X129066666Y-115376190D01*
X128685714Y-115376190D01*
X129638095Y-114947619D02*
X129685714Y-114900000D01*
X129780952Y-114852380D01*
X130019047Y-114852380D01*
X130114285Y-114900000D01*
X130161904Y-114947619D01*
X130209523Y-115042857D01*
X130209523Y-115138095D01*
X130161904Y-115280952D01*
X129590476Y-115852380D01*
X130209523Y-115852380D01*
X131066666Y-115185714D02*
X131066666Y-115852380D01*
X130828571Y-114804761D02*
X130590476Y-115519047D01*
X131209523Y-115519047D01*
%TO.C,R25*%
X129357142Y-117952380D02*
X129023809Y-117476190D01*
X128785714Y-117952380D02*
X128785714Y-116952380D01*
X129166666Y-116952380D01*
X129261904Y-117000000D01*
X129309523Y-117047619D01*
X129357142Y-117142857D01*
X129357142Y-117285714D01*
X129309523Y-117380952D01*
X129261904Y-117428571D01*
X129166666Y-117476190D01*
X128785714Y-117476190D01*
X129738095Y-117047619D02*
X129785714Y-117000000D01*
X129880952Y-116952380D01*
X130119047Y-116952380D01*
X130214285Y-117000000D01*
X130261904Y-117047619D01*
X130309523Y-117142857D01*
X130309523Y-117238095D01*
X130261904Y-117380952D01*
X129690476Y-117952380D01*
X130309523Y-117952380D01*
X131214285Y-116952380D02*
X130738095Y-116952380D01*
X130690476Y-117428571D01*
X130738095Y-117380952D01*
X130833333Y-117333333D01*
X131071428Y-117333333D01*
X131166666Y-117380952D01*
X131214285Y-117428571D01*
X131261904Y-117523809D01*
X131261904Y-117761904D01*
X131214285Y-117857142D01*
X131166666Y-117904761D01*
X131071428Y-117952380D01*
X130833333Y-117952380D01*
X130738095Y-117904761D01*
X130690476Y-117857142D01*
%TO.C,U2*%
X127338095Y-83752380D02*
X127338095Y-84561904D01*
X127385714Y-84657142D01*
X127433333Y-84704761D01*
X127528571Y-84752380D01*
X127719047Y-84752380D01*
X127814285Y-84704761D01*
X127861904Y-84657142D01*
X127909523Y-84561904D01*
X127909523Y-83752380D01*
X128338095Y-83847619D02*
X128385714Y-83800000D01*
X128480952Y-83752380D01*
X128719047Y-83752380D01*
X128814285Y-83800000D01*
X128861904Y-83847619D01*
X128909523Y-83942857D01*
X128909523Y-84038095D01*
X128861904Y-84180952D01*
X128290476Y-84752380D01*
X128909523Y-84752380D01*
%TO.C,C1*%
X117933333Y-91857142D02*
X117885714Y-91904761D01*
X117742857Y-91952380D01*
X117647619Y-91952380D01*
X117504761Y-91904761D01*
X117409523Y-91809523D01*
X117361904Y-91714285D01*
X117314285Y-91523809D01*
X117314285Y-91380952D01*
X117361904Y-91190476D01*
X117409523Y-91095238D01*
X117504761Y-91000000D01*
X117647619Y-90952380D01*
X117742857Y-90952380D01*
X117885714Y-91000000D01*
X117933333Y-91047619D01*
X118885714Y-91952380D02*
X118314285Y-91952380D01*
X118600000Y-91952380D02*
X118600000Y-90952380D01*
X118504761Y-91095238D01*
X118409523Y-91190476D01*
X118314285Y-91238095D01*
%TO.C,C2*%
X118033333Y-93357142D02*
X117985714Y-93404761D01*
X117842857Y-93452380D01*
X117747619Y-93452380D01*
X117604761Y-93404761D01*
X117509523Y-93309523D01*
X117461904Y-93214285D01*
X117414285Y-93023809D01*
X117414285Y-92880952D01*
X117461904Y-92690476D01*
X117509523Y-92595238D01*
X117604761Y-92500000D01*
X117747619Y-92452380D01*
X117842857Y-92452380D01*
X117985714Y-92500000D01*
X118033333Y-92547619D01*
X118414285Y-92547619D02*
X118461904Y-92500000D01*
X118557142Y-92452380D01*
X118795238Y-92452380D01*
X118890476Y-92500000D01*
X118938095Y-92547619D01*
X118985714Y-92642857D01*
X118985714Y-92738095D01*
X118938095Y-92880952D01*
X118366666Y-93452380D01*
X118985714Y-93452380D01*
%TO.C,D1*%
X99052380Y-87738095D02*
X98052380Y-87738095D01*
X98052380Y-87500000D01*
X98100000Y-87357142D01*
X98195238Y-87261904D01*
X98290476Y-87214285D01*
X98480952Y-87166666D01*
X98623809Y-87166666D01*
X98814285Y-87214285D01*
X98909523Y-87261904D01*
X99004761Y-87357142D01*
X99052380Y-87500000D01*
X99052380Y-87738095D01*
X99052380Y-86214285D02*
X99052380Y-86785714D01*
X99052380Y-86500000D02*
X98052380Y-86500000D01*
X98195238Y-86595238D01*
X98290476Y-86690476D01*
X98338095Y-86785714D01*
%TO.C,J5*%
X94052380Y-83158333D02*
X94766666Y-83158333D01*
X94909523Y-83205952D01*
X95004761Y-83301190D01*
X95052380Y-83444047D01*
X95052380Y-83539285D01*
X94052380Y-82205952D02*
X94052380Y-82682142D01*
X94528571Y-82729761D01*
X94480952Y-82682142D01*
X94433333Y-82586904D01*
X94433333Y-82348809D01*
X94480952Y-82253571D01*
X94528571Y-82205952D01*
X94623809Y-82158333D01*
X94861904Y-82158333D01*
X94957142Y-82205952D01*
X95004761Y-82253571D01*
X95052380Y-82348809D01*
X95052380Y-82586904D01*
X95004761Y-82682142D01*
X94957142Y-82729761D01*
%TO.C,R1*%
X129961904Y-96533333D02*
X129580952Y-96800000D01*
X129961904Y-96990476D02*
X129161904Y-96990476D01*
X129161904Y-96685714D01*
X129200000Y-96609523D01*
X129238095Y-96571428D01*
X129314285Y-96533333D01*
X129428571Y-96533333D01*
X129504761Y-96571428D01*
X129542857Y-96609523D01*
X129580952Y-96685714D01*
X129580952Y-96990476D01*
X129961904Y-95771428D02*
X129961904Y-96228571D01*
X129961904Y-96000000D02*
X129161904Y-96000000D01*
X129276190Y-96076190D01*
X129352380Y-96152380D01*
X129390476Y-96228571D01*
%TO.C,R2*%
X128161904Y-96933333D02*
X127780952Y-97200000D01*
X128161904Y-97390476D02*
X127361904Y-97390476D01*
X127361904Y-97085714D01*
X127400000Y-97009523D01*
X127438095Y-96971428D01*
X127514285Y-96933333D01*
X127628571Y-96933333D01*
X127704761Y-96971428D01*
X127742857Y-97009523D01*
X127780952Y-97085714D01*
X127780952Y-97390476D01*
X127438095Y-96628571D02*
X127400000Y-96590476D01*
X127361904Y-96514285D01*
X127361904Y-96323809D01*
X127400000Y-96247619D01*
X127438095Y-96209523D01*
X127514285Y-96171428D01*
X127590476Y-96171428D01*
X127704761Y-96209523D01*
X128161904Y-96666666D01*
X128161904Y-96171428D01*
%TO.C,R3*%
X188433333Y-82052380D02*
X188100000Y-81576190D01*
X187861904Y-82052380D02*
X187861904Y-81052380D01*
X188242857Y-81052380D01*
X188338095Y-81100000D01*
X188385714Y-81147619D01*
X188433333Y-81242857D01*
X188433333Y-81385714D01*
X188385714Y-81480952D01*
X188338095Y-81528571D01*
X188242857Y-81576190D01*
X187861904Y-81576190D01*
X188766666Y-81052380D02*
X189385714Y-81052380D01*
X189052380Y-81433333D01*
X189195238Y-81433333D01*
X189290476Y-81480952D01*
X189338095Y-81528571D01*
X189385714Y-81623809D01*
X189385714Y-81861904D01*
X189338095Y-81957142D01*
X189290476Y-82004761D01*
X189195238Y-82052380D01*
X188909523Y-82052380D01*
X188814285Y-82004761D01*
X188766666Y-81957142D01*
%TO.C,R4*%
X161833333Y-115452380D02*
X161500000Y-114976190D01*
X161261904Y-115452380D02*
X161261904Y-114452380D01*
X161642857Y-114452380D01*
X161738095Y-114500000D01*
X161785714Y-114547619D01*
X161833333Y-114642857D01*
X161833333Y-114785714D01*
X161785714Y-114880952D01*
X161738095Y-114928571D01*
X161642857Y-114976190D01*
X161261904Y-114976190D01*
X162690476Y-114785714D02*
X162690476Y-115452380D01*
X162452380Y-114404761D02*
X162214285Y-115119047D01*
X162833333Y-115119047D01*
%TO.C,R5*%
X209233333Y-82452380D02*
X208900000Y-81976190D01*
X208661904Y-82452380D02*
X208661904Y-81452380D01*
X209042857Y-81452380D01*
X209138095Y-81500000D01*
X209185714Y-81547619D01*
X209233333Y-81642857D01*
X209233333Y-81785714D01*
X209185714Y-81880952D01*
X209138095Y-81928571D01*
X209042857Y-81976190D01*
X208661904Y-81976190D01*
X210138095Y-81452380D02*
X209661904Y-81452380D01*
X209614285Y-81928571D01*
X209661904Y-81880952D01*
X209757142Y-81833333D01*
X209995238Y-81833333D01*
X210090476Y-81880952D01*
X210138095Y-81928571D01*
X210185714Y-82023809D01*
X210185714Y-82261904D01*
X210138095Y-82357142D01*
X210090476Y-82404761D01*
X209995238Y-82452380D01*
X209757142Y-82452380D01*
X209661904Y-82404761D01*
X209614285Y-82357142D01*
%TO.C,R6*%
X161233333Y-90052380D02*
X160900000Y-89576190D01*
X160661904Y-90052380D02*
X160661904Y-89052380D01*
X161042857Y-89052380D01*
X161138095Y-89100000D01*
X161185714Y-89147619D01*
X161233333Y-89242857D01*
X161233333Y-89385714D01*
X161185714Y-89480952D01*
X161138095Y-89528571D01*
X161042857Y-89576190D01*
X160661904Y-89576190D01*
X162090476Y-89052380D02*
X161900000Y-89052380D01*
X161804761Y-89100000D01*
X161757142Y-89147619D01*
X161661904Y-89290476D01*
X161614285Y-89480952D01*
X161614285Y-89861904D01*
X161661904Y-89957142D01*
X161709523Y-90004761D01*
X161804761Y-90052380D01*
X161995238Y-90052380D01*
X162090476Y-90004761D01*
X162138095Y-89957142D01*
X162185714Y-89861904D01*
X162185714Y-89623809D01*
X162138095Y-89528571D01*
X162090476Y-89480952D01*
X161995238Y-89433333D01*
X161804761Y-89433333D01*
X161709523Y-89480952D01*
X161661904Y-89528571D01*
X161614285Y-89623809D01*
%TO.C,C8*%
X101447142Y-82566666D02*
X101494761Y-82614285D01*
X101542380Y-82757142D01*
X101542380Y-82852380D01*
X101494761Y-82995238D01*
X101399523Y-83090476D01*
X101304285Y-83138095D01*
X101113809Y-83185714D01*
X100970952Y-83185714D01*
X100780476Y-83138095D01*
X100685238Y-83090476D01*
X100590000Y-82995238D01*
X100542380Y-82852380D01*
X100542380Y-82757142D01*
X100590000Y-82614285D01*
X100637619Y-82566666D01*
X100970952Y-81995238D02*
X100923333Y-82090476D01*
X100875714Y-82138095D01*
X100780476Y-82185714D01*
X100732857Y-82185714D01*
X100637619Y-82138095D01*
X100590000Y-82090476D01*
X100542380Y-81995238D01*
X100542380Y-81804761D01*
X100590000Y-81709523D01*
X100637619Y-81661904D01*
X100732857Y-81614285D01*
X100780476Y-81614285D01*
X100875714Y-81661904D01*
X100923333Y-81709523D01*
X100970952Y-81804761D01*
X100970952Y-81995238D01*
X101018571Y-82090476D01*
X101066190Y-82138095D01*
X101161428Y-82185714D01*
X101351904Y-82185714D01*
X101447142Y-82138095D01*
X101494761Y-82090476D01*
X101542380Y-81995238D01*
X101542380Y-81804761D01*
X101494761Y-81709523D01*
X101447142Y-81661904D01*
X101351904Y-81614285D01*
X101161428Y-81614285D01*
X101066190Y-81661904D01*
X101018571Y-81709523D01*
X100970952Y-81804761D01*
%TO.C,JS-1*%
X206571428Y-121852380D02*
X206571428Y-122566666D01*
X206523809Y-122709523D01*
X206428571Y-122804761D01*
X206285714Y-122852380D01*
X206190476Y-122852380D01*
X207000000Y-122804761D02*
X207142857Y-122852380D01*
X207380952Y-122852380D01*
X207476190Y-122804761D01*
X207523809Y-122757142D01*
X207571428Y-122661904D01*
X207571428Y-122566666D01*
X207523809Y-122471428D01*
X207476190Y-122423809D01*
X207380952Y-122376190D01*
X207190476Y-122328571D01*
X207095238Y-122280952D01*
X207047619Y-122233333D01*
X207000000Y-122138095D01*
X207000000Y-122042857D01*
X207047619Y-121947619D01*
X207095238Y-121900000D01*
X207190476Y-121852380D01*
X207428571Y-121852380D01*
X207571428Y-121900000D01*
X208000000Y-122471428D02*
X208761904Y-122471428D01*
X209761904Y-122852380D02*
X209190476Y-122852380D01*
X209476190Y-122852380D02*
X209476190Y-121852380D01*
X209380952Y-121995238D01*
X209285714Y-122090476D01*
X209190476Y-122138095D01*
%TO.C,JS-2*%
X180371428Y-122652380D02*
X180371428Y-123366666D01*
X180323809Y-123509523D01*
X180228571Y-123604761D01*
X180085714Y-123652380D01*
X179990476Y-123652380D01*
X180800000Y-123604761D02*
X180942857Y-123652380D01*
X181180952Y-123652380D01*
X181276190Y-123604761D01*
X181323809Y-123557142D01*
X181371428Y-123461904D01*
X181371428Y-123366666D01*
X181323809Y-123271428D01*
X181276190Y-123223809D01*
X181180952Y-123176190D01*
X180990476Y-123128571D01*
X180895238Y-123080952D01*
X180847619Y-123033333D01*
X180800000Y-122938095D01*
X180800000Y-122842857D01*
X180847619Y-122747619D01*
X180895238Y-122700000D01*
X180990476Y-122652380D01*
X181228571Y-122652380D01*
X181371428Y-122700000D01*
X181800000Y-123271428D02*
X182561904Y-123271428D01*
X182990476Y-122747619D02*
X183038095Y-122700000D01*
X183133333Y-122652380D01*
X183371428Y-122652380D01*
X183466666Y-122700000D01*
X183514285Y-122747619D01*
X183561904Y-122842857D01*
X183561904Y-122938095D01*
X183514285Y-123080952D01*
X182942857Y-123652380D01*
X183561904Y-123652380D01*
%TO.C,JS-3*%
X165971428Y-74252380D02*
X165971428Y-74966666D01*
X165923809Y-75109523D01*
X165828571Y-75204761D01*
X165685714Y-75252380D01*
X165590476Y-75252380D01*
X166400000Y-75204761D02*
X166542857Y-75252380D01*
X166780952Y-75252380D01*
X166876190Y-75204761D01*
X166923809Y-75157142D01*
X166971428Y-75061904D01*
X166971428Y-74966666D01*
X166923809Y-74871428D01*
X166876190Y-74823809D01*
X166780952Y-74776190D01*
X166590476Y-74728571D01*
X166495238Y-74680952D01*
X166447619Y-74633333D01*
X166400000Y-74538095D01*
X166400000Y-74442857D01*
X166447619Y-74347619D01*
X166495238Y-74300000D01*
X166590476Y-74252380D01*
X166828571Y-74252380D01*
X166971428Y-74300000D01*
X167400000Y-74871428D02*
X168161904Y-74871428D01*
X168542857Y-74252380D02*
X169161904Y-74252380D01*
X168828571Y-74633333D01*
X168971428Y-74633333D01*
X169066666Y-74680952D01*
X169114285Y-74728571D01*
X169161904Y-74823809D01*
X169161904Y-75061904D01*
X169114285Y-75157142D01*
X169066666Y-75204761D01*
X168971428Y-75252380D01*
X168685714Y-75252380D01*
X168590476Y-75204761D01*
X168542857Y-75157142D01*
%TO.C,JS-4*%
X202371428Y-77652380D02*
X202371428Y-78366666D01*
X202323809Y-78509523D01*
X202228571Y-78604761D01*
X202085714Y-78652380D01*
X201990476Y-78652380D01*
X202800000Y-78604761D02*
X202942857Y-78652380D01*
X203180952Y-78652380D01*
X203276190Y-78604761D01*
X203323809Y-78557142D01*
X203371428Y-78461904D01*
X203371428Y-78366666D01*
X203323809Y-78271428D01*
X203276190Y-78223809D01*
X203180952Y-78176190D01*
X202990476Y-78128571D01*
X202895238Y-78080952D01*
X202847619Y-78033333D01*
X202800000Y-77938095D01*
X202800000Y-77842857D01*
X202847619Y-77747619D01*
X202895238Y-77700000D01*
X202990476Y-77652380D01*
X203228571Y-77652380D01*
X203371428Y-77700000D01*
X203800000Y-78271428D02*
X204561904Y-78271428D01*
X205466666Y-77985714D02*
X205466666Y-78652380D01*
X205228571Y-77604761D02*
X204990476Y-78319047D01*
X205609523Y-78319047D01*
%TO.C,*%
%TO.C,L1*%
X114433333Y-120502380D02*
X113957142Y-120502380D01*
X113957142Y-119502380D01*
X115290476Y-120502380D02*
X114719047Y-120502380D01*
X115004761Y-120502380D02*
X115004761Y-119502380D01*
X114909523Y-119645238D01*
X114814285Y-119740476D01*
X114719047Y-119788095D01*
%TD*%
M02*
