%TF.GenerationSoftware,KiCad,Pcbnew,(5.1.10)-1*%
%TF.CreationDate,2022-09-03T16:46:32+05:30*%
%TF.ProjectId,ENC-nrf-301-02-REV05,454e432d-6e72-4662-9d33-30312d30322d,rev?*%
%TF.SameCoordinates,Original*%
%TF.FileFunction,Other,Fab,Top*%
%FSLAX46Y46*%
G04 Gerber Fmt 4.6, Leading zero omitted, Abs format (unit mm)*
G04 Created by KiCad (PCBNEW (5.1.10)-1) date 2022-09-03 16:46:32*
%MOMM*%
%LPD*%
G01*
G04 APERTURE LIST*
%ADD10C,0.100000*%
%ADD11C,0.150000*%
%ADD12C,0.105000*%
%ADD13C,0.060000*%
%ADD14C,0.120000*%
%ADD15C,0.075000*%
%ADD16C,0.080000*%
G04 APERTURE END LIST*
D10*
%TO.C,R16*%
X116200000Y-105812500D02*
X116200000Y-104987500D01*
X116200000Y-104987500D02*
X117800000Y-104987500D01*
X117800000Y-104987500D02*
X117800000Y-105812500D01*
X117800000Y-105812500D02*
X116200000Y-105812500D01*
%TO.C,R15*%
X116200000Y-102512500D02*
X116200000Y-101687500D01*
X116200000Y-101687500D02*
X117800000Y-101687500D01*
X117800000Y-101687500D02*
X117800000Y-102512500D01*
X117800000Y-102512500D02*
X116200000Y-102512500D01*
%TO.C,R17*%
X116100000Y-99112500D02*
X116100000Y-98287500D01*
X116100000Y-98287500D02*
X117700000Y-98287500D01*
X117700000Y-98287500D02*
X117700000Y-99112500D01*
X117700000Y-99112500D02*
X116100000Y-99112500D01*
%TO.C,R30*%
X119312500Y-121600000D02*
X118487500Y-121600000D01*
X118487500Y-121600000D02*
X118487500Y-120000000D01*
X118487500Y-120000000D02*
X119312500Y-120000000D01*
X119312500Y-120000000D02*
X119312500Y-121600000D01*
%TO.C,R28*%
X109287500Y-116500000D02*
X110112500Y-116500000D01*
X110112500Y-116500000D02*
X110112500Y-118100000D01*
X110112500Y-118100000D02*
X109287500Y-118100000D01*
X109287500Y-118100000D02*
X109287500Y-116500000D01*
%TO.C,R29*%
X119312500Y-118100000D02*
X118487500Y-118100000D01*
X118487500Y-118100000D02*
X118487500Y-116500000D01*
X118487500Y-116500000D02*
X119312500Y-116500000D01*
X119312500Y-116500000D02*
X119312500Y-118100000D01*
%TO.C,R27*%
X110112500Y-121600000D02*
X109287500Y-121600000D01*
X109287500Y-121600000D02*
X109287500Y-120000000D01*
X109287500Y-120000000D02*
X110112500Y-120000000D01*
X110112500Y-120000000D02*
X110112500Y-121600000D01*
%TO.C,C5*%
X121400000Y-121600000D02*
X120600000Y-121600000D01*
X120600000Y-121600000D02*
X120600000Y-120000000D01*
X120600000Y-120000000D02*
X121400000Y-120000000D01*
X121400000Y-120000000D02*
X121400000Y-121600000D01*
%TO.C,R26*%
X113700000Y-115012500D02*
X113700000Y-114187500D01*
X113700000Y-114187500D02*
X115300000Y-114187500D01*
X115300000Y-114187500D02*
X115300000Y-115012500D01*
X115300000Y-115012500D02*
X113700000Y-115012500D01*
%TO.C,C4*%
X107300000Y-116500000D02*
X108100000Y-116500000D01*
X108100000Y-116500000D02*
X108100000Y-118100000D01*
X108100000Y-118100000D02*
X107300000Y-118100000D01*
X107300000Y-118100000D02*
X107300000Y-116500000D01*
%TO.C,C3*%
X108100000Y-121600000D02*
X107300000Y-121600000D01*
X107300000Y-121600000D02*
X107300000Y-120000000D01*
X107300000Y-120000000D02*
X108100000Y-120000000D01*
X108100000Y-120000000D02*
X108100000Y-121600000D01*
%TO.C,IC1*%
X114005000Y-116825003D02*
G75*
G03*
X114005000Y-116825003I-300000J0D01*
G01*
X113030001Y-119250002D02*
X116130002Y-119250002D01*
X113030001Y-116150001D02*
X116130002Y-116150001D01*
X116130002Y-119250002D02*
X116130002Y-116150001D01*
X113030001Y-119250002D02*
X113030001Y-116150001D01*
%TO.C,R7*%
X147400000Y-83600000D02*
X148200000Y-83600000D01*
X147400000Y-85200000D02*
X147400000Y-83600000D01*
X148200000Y-85200000D02*
X147400000Y-85200000D01*
X148200000Y-83600000D02*
X148200000Y-85200000D01*
%TO.C,J1*%
X97650000Y-99950000D02*
X97650000Y-106700000D01*
X103640000Y-106900000D02*
X103640000Y-93480000D01*
X103640000Y-93480000D02*
X97660000Y-93480000D01*
X97660000Y-93480000D02*
X97660000Y-100100000D01*
X103640000Y-106920000D02*
X97660000Y-106920000D01*
X100587500Y-94012500D02*
X98212500Y-94012500D01*
X98212500Y-94012500D02*
X98212500Y-96387500D01*
X98212500Y-96387500D02*
X100587500Y-96387500D01*
X100587500Y-96387500D02*
X100587500Y-94012500D01*
X103087500Y-94012500D02*
X100712500Y-94012500D01*
X100712500Y-94012500D02*
X100712500Y-96387500D01*
X100712500Y-96387500D02*
X103087500Y-96387500D01*
X103087500Y-96387500D02*
X103087500Y-94012500D01*
X100587500Y-96512500D02*
X98212500Y-96512500D01*
X98212500Y-96512500D02*
X98212500Y-98887500D01*
X98212500Y-98887500D02*
X100587500Y-98887500D01*
X100587500Y-98887500D02*
X100587500Y-96512500D01*
X103087500Y-96512500D02*
X100712500Y-96512500D01*
X100712500Y-96512500D02*
X100712500Y-98887500D01*
X100712500Y-98887500D02*
X103087500Y-98887500D01*
X103087500Y-98887500D02*
X103087500Y-96512500D01*
X100587500Y-99012500D02*
X98212500Y-99012500D01*
X98212500Y-99012500D02*
X98212500Y-101387500D01*
X98212500Y-101387500D02*
X100587500Y-101387500D01*
X100587500Y-101387500D02*
X100587500Y-99012500D01*
X103087500Y-99012500D02*
X100712500Y-99012500D01*
X100712500Y-99012500D02*
X100712500Y-101387500D01*
X100712500Y-101387500D02*
X103087500Y-101387500D01*
X103087500Y-101387500D02*
X103087500Y-99012500D01*
X100587500Y-101512500D02*
X98212500Y-101512500D01*
X98212500Y-101512500D02*
X98212500Y-103887500D01*
X98212500Y-103887500D02*
X100587500Y-103887500D01*
X100587500Y-103887500D02*
X100587500Y-101512500D01*
X103087500Y-101512500D02*
X100712500Y-101512500D01*
X100712500Y-101512500D02*
X100712500Y-103887500D01*
X100712500Y-103887500D02*
X103087500Y-103887500D01*
X103087500Y-103887500D02*
X103087500Y-101512500D01*
X100587500Y-104012500D02*
X98212500Y-104012500D01*
X98212500Y-104012500D02*
X98212500Y-106387500D01*
X98212500Y-106387500D02*
X100587500Y-106387500D01*
X100587500Y-106387500D02*
X100587500Y-104012500D01*
X103087500Y-104012500D02*
X100712500Y-104012500D01*
X100712500Y-104012500D02*
X100712500Y-106387500D01*
X100712500Y-106387500D02*
X103087500Y-106387500D01*
X103087500Y-106387500D02*
X103087500Y-104012500D01*
X99400000Y-92980000D02*
X99100000Y-92380000D01*
X99100000Y-92380000D02*
X99700000Y-92380000D01*
X99700000Y-92380000D02*
X99400000Y-92980000D01*
%TO.C,Y1*%
X124825000Y-90240000D02*
X124825000Y-96640000D01*
X120175000Y-90240000D02*
X120175000Y-96640000D01*
X124500000Y-90440000D02*
X124500000Y-96440000D01*
X120500000Y-90440000D02*
X120500000Y-96440000D01*
X120175000Y-90240000D02*
G75*
G02*
X124825000Y-90240000I2325000J0D01*
G01*
X120175000Y-96640000D02*
G75*
G03*
X124825000Y-96640000I2325000J0D01*
G01*
X120500000Y-90440000D02*
G75*
G02*
X124500000Y-90440000I2000000J0D01*
G01*
X120500000Y-96440000D02*
G75*
G03*
X124500000Y-96440000I2000000J0D01*
G01*
%TO.C,J2*%
X176850000Y-97250000D02*
X171100000Y-97250000D01*
X174100000Y-103240000D02*
X183320000Y-103240000D01*
X183320000Y-103240000D02*
X183320000Y-97260000D01*
X183320000Y-97260000D02*
X176700000Y-97260000D01*
X174100000Y-103240000D02*
X164880000Y-103240000D01*
X164880000Y-103240000D02*
X164880000Y-97260000D01*
X164880000Y-97260000D02*
X171500000Y-97260000D01*
X182787500Y-100187500D02*
X182787500Y-97812500D01*
X182787500Y-97812500D02*
X180412500Y-97812500D01*
X180412500Y-97812500D02*
X180412500Y-100187500D01*
X180412500Y-100187500D02*
X182787500Y-100187500D01*
X182787500Y-102687500D02*
X182787500Y-100312500D01*
X182787500Y-100312500D02*
X180412500Y-100312500D01*
X180412500Y-100312500D02*
X180412500Y-102687500D01*
X180412500Y-102687500D02*
X182787500Y-102687500D01*
X180287500Y-100187500D02*
X180287500Y-97812500D01*
X180287500Y-97812500D02*
X177912500Y-97812500D01*
X177912500Y-97812500D02*
X177912500Y-100187500D01*
X177912500Y-100187500D02*
X180287500Y-100187500D01*
X180287500Y-102687500D02*
X180287500Y-100312500D01*
X180287500Y-100312500D02*
X177912500Y-100312500D01*
X177912500Y-100312500D02*
X177912500Y-102687500D01*
X177912500Y-102687500D02*
X180287500Y-102687500D01*
X177787500Y-100187500D02*
X177787500Y-97812500D01*
X177787500Y-97812500D02*
X175412500Y-97812500D01*
X175412500Y-97812500D02*
X175412500Y-100187500D01*
X175412500Y-100187500D02*
X177787500Y-100187500D01*
X177787500Y-102687500D02*
X177787500Y-100312500D01*
X177787500Y-100312500D02*
X175412500Y-100312500D01*
X175412500Y-100312500D02*
X175412500Y-102687500D01*
X175412500Y-102687500D02*
X177787500Y-102687500D01*
X175287500Y-100187500D02*
X175287500Y-97812500D01*
X175287500Y-97812500D02*
X172912500Y-97812500D01*
X172912500Y-97812500D02*
X172912500Y-100187500D01*
X172912500Y-100187500D02*
X175287500Y-100187500D01*
X175287500Y-102687500D02*
X175287500Y-100312500D01*
X175287500Y-100312500D02*
X172912500Y-100312500D01*
X172912500Y-100312500D02*
X172912500Y-102687500D01*
X172912500Y-102687500D02*
X175287500Y-102687500D01*
X172787500Y-100187500D02*
X172787500Y-97812500D01*
X172787500Y-97812500D02*
X170412500Y-97812500D01*
X170412500Y-97812500D02*
X170412500Y-100187500D01*
X170412500Y-100187500D02*
X172787500Y-100187500D01*
X172787500Y-102687500D02*
X172787500Y-100312500D01*
X172787500Y-100312500D02*
X170412500Y-100312500D01*
X170412500Y-100312500D02*
X170412500Y-102687500D01*
X170412500Y-102687500D02*
X172787500Y-102687500D01*
X170287500Y-100187500D02*
X170287500Y-97812500D01*
X170287500Y-97812500D02*
X167912500Y-97812500D01*
X167912500Y-97812500D02*
X167912500Y-100187500D01*
X167912500Y-100187500D02*
X170287500Y-100187500D01*
X170287500Y-102687500D02*
X170287500Y-100312500D01*
X170287500Y-100312500D02*
X167912500Y-100312500D01*
X167912500Y-100312500D02*
X167912500Y-102687500D01*
X167912500Y-102687500D02*
X170287500Y-102687500D01*
X167787500Y-100187500D02*
X167787500Y-97812500D01*
X167787500Y-97812500D02*
X165412500Y-97812500D01*
X165412500Y-97812500D02*
X165412500Y-100187500D01*
X165412500Y-100187500D02*
X167787500Y-100187500D01*
X167787500Y-102687500D02*
X167787500Y-100312500D01*
X167787500Y-100312500D02*
X165412500Y-100312500D01*
X165412500Y-100312500D02*
X165412500Y-102687500D01*
X165412500Y-102687500D02*
X167787500Y-102687500D01*
X183820000Y-99000000D02*
X184420000Y-98700000D01*
X184420000Y-98700000D02*
X184420000Y-99300000D01*
X184420000Y-99300000D02*
X183820000Y-99000000D01*
%TO.C,R8*%
X165000000Y-106800000D02*
X165000000Y-107600000D01*
X163400000Y-106800000D02*
X165000000Y-106800000D01*
X163400000Y-107600000D02*
X163400000Y-106800000D01*
X165000000Y-107600000D02*
X163400000Y-107600000D01*
%TO.C,R9*%
X158800000Y-87800000D02*
X158800000Y-88600000D01*
X157200000Y-87800000D02*
X158800000Y-87800000D01*
X157200000Y-88600000D02*
X157200000Y-87800000D01*
X158800000Y-88600000D02*
X157200000Y-88600000D01*
%TO.C,R10*%
X149200000Y-104800000D02*
X149200000Y-105600000D01*
X147600000Y-104800000D02*
X149200000Y-104800000D01*
X147600000Y-105600000D02*
X147600000Y-104800000D01*
X149200000Y-105600000D02*
X147600000Y-105600000D01*
%TO.C,R11*%
X188400000Y-92800000D02*
X188400000Y-93600000D01*
X186800000Y-92800000D02*
X188400000Y-92800000D01*
X186800000Y-93600000D02*
X186800000Y-92800000D01*
X188400000Y-93600000D02*
X186800000Y-93600000D01*
%TO.C,R12*%
X188400000Y-114600000D02*
X188400000Y-115400000D01*
X186800000Y-114600000D02*
X188400000Y-114600000D01*
X186800000Y-115400000D02*
X186800000Y-114600000D01*
X188400000Y-115400000D02*
X186800000Y-115400000D01*
%TO.C,R13*%
X188400000Y-106800000D02*
X188400000Y-107600000D01*
X186800000Y-106800000D02*
X188400000Y-106800000D01*
X186800000Y-107600000D02*
X186800000Y-106800000D01*
X188400000Y-107600000D02*
X186800000Y-107600000D01*
%TO.C,R14*%
X151800000Y-106000000D02*
X151800000Y-105200000D01*
X153400000Y-106000000D02*
X151800000Y-106000000D01*
X153400000Y-105200000D02*
X153400000Y-106000000D01*
X151800000Y-105200000D02*
X153400000Y-105200000D01*
%TO.C,R18*%
X132500000Y-111300000D02*
X132500000Y-110500000D01*
X134100000Y-111300000D02*
X132500000Y-111300000D01*
X134100000Y-110500000D02*
X134100000Y-111300000D01*
X132500000Y-110500000D02*
X134100000Y-110500000D01*
%TO.C,R19*%
X132500000Y-109300000D02*
X132500000Y-108500000D01*
X134100000Y-109300000D02*
X132500000Y-109300000D01*
X134100000Y-108500000D02*
X134100000Y-109300000D01*
X132500000Y-108500000D02*
X134100000Y-108500000D01*
%TO.C,R20*%
X132500000Y-120400000D02*
X132500000Y-119600000D01*
X134100000Y-120400000D02*
X132500000Y-120400000D01*
X134100000Y-119600000D02*
X134100000Y-120400000D01*
X132500000Y-119600000D02*
X134100000Y-119600000D01*
%TO.C,R21*%
X132500000Y-125100000D02*
X132500000Y-124300000D01*
X134100000Y-125100000D02*
X132500000Y-125100000D01*
X134100000Y-124300000D02*
X134100000Y-125100000D01*
X132500000Y-124300000D02*
X134100000Y-124300000D01*
%TO.C,R22*%
X132500000Y-122800000D02*
X132500000Y-122000000D01*
X134100000Y-122800000D02*
X132500000Y-122800000D01*
X134100000Y-122000000D02*
X134100000Y-122800000D01*
X132500000Y-122000000D02*
X134100000Y-122000000D01*
%TO.C,R23*%
X132500000Y-113400000D02*
X132500000Y-112600000D01*
X134100000Y-113400000D02*
X132500000Y-113400000D01*
X134100000Y-112600000D02*
X134100000Y-113400000D01*
X132500000Y-112600000D02*
X134100000Y-112600000D01*
%TO.C,R24*%
X132500000Y-115800000D02*
X132500000Y-115000000D01*
X134100000Y-115800000D02*
X132500000Y-115800000D01*
X134100000Y-115000000D02*
X134100000Y-115800000D01*
X132500000Y-115000000D02*
X134100000Y-115000000D01*
%TO.C,R25*%
X132500000Y-118000000D02*
X132500000Y-117200000D01*
X134100000Y-118000000D02*
X132500000Y-118000000D01*
X134100000Y-117200000D02*
X134100000Y-118000000D01*
X132500000Y-117200000D02*
X134100000Y-117200000D01*
D11*
%TO.C,U2*%
X131200000Y-86600000D02*
X137200000Y-86600000D01*
X137200000Y-86600000D02*
X137200000Y-93600000D01*
X137200000Y-93600000D02*
X130200000Y-93600000D01*
X130200000Y-93600000D02*
X130200000Y-87600000D01*
X130200000Y-87600000D02*
X131200000Y-86600000D01*
D10*
%TO.C,D1*%
X97000000Y-87200000D02*
X97000000Y-87400000D01*
X97000000Y-86900000D02*
X97000000Y-86700000D01*
X97200000Y-86900000D02*
X96800000Y-86900000D01*
X96800000Y-87200000D02*
X97200000Y-87200000D01*
X97000000Y-86900000D02*
X96800000Y-87200000D01*
X97200000Y-87200000D02*
X97000000Y-86900000D01*
X96350000Y-86000000D02*
X97650000Y-86000000D01*
X96350000Y-88000000D02*
X96350000Y-86000000D01*
X97650000Y-88000000D02*
X96350000Y-88000000D01*
X97650000Y-86000000D02*
X97650000Y-88000000D01*
%TO.C,R1*%
X130800000Y-99300000D02*
X130000000Y-99300000D01*
X130800000Y-97700000D02*
X130800000Y-99300000D01*
X130000000Y-97700000D02*
X130800000Y-97700000D01*
X130000000Y-99300000D02*
X130000000Y-97700000D01*
%TO.C,R2*%
X128900000Y-99400000D02*
X128100000Y-99400000D01*
X128900000Y-97800000D02*
X128900000Y-99400000D01*
X128100000Y-97800000D02*
X128900000Y-97800000D01*
X128100000Y-99400000D02*
X128100000Y-97800000D01*
%TO.C,R3*%
X188800000Y-82600000D02*
X188800000Y-83400000D01*
X187200000Y-82600000D02*
X188800000Y-82600000D01*
X187200000Y-83400000D02*
X187200000Y-82600000D01*
X188800000Y-83400000D02*
X187200000Y-83400000D01*
%TO.C,R4*%
X165000000Y-114600000D02*
X165000000Y-115400000D01*
X163400000Y-114600000D02*
X165000000Y-114600000D01*
X163400000Y-115400000D02*
X163400000Y-114600000D01*
X165000000Y-115400000D02*
X163400000Y-115400000D01*
%TO.C,R5*%
X212400000Y-82600000D02*
X212400000Y-83400000D01*
X210800000Y-82600000D02*
X212400000Y-82600000D01*
X210800000Y-83400000D02*
X210800000Y-82600000D01*
X212400000Y-83400000D02*
X210800000Y-83400000D01*
%TO.C,R6*%
X160200000Y-88600000D02*
X160200000Y-87800000D01*
X161800000Y-88600000D02*
X160200000Y-88600000D01*
X161800000Y-87800000D02*
X161800000Y-88600000D01*
X160200000Y-87800000D02*
X161800000Y-87800000D01*
%TO.C,C8*%
X107400000Y-82400000D02*
G75*
G03*
X107400000Y-82400000I-2500000J0D01*
G01*
X104900000Y-85600000D02*
X104900000Y-84400000D01*
X104250000Y-85000000D02*
X105550000Y-85000000D01*
%TO.C,L1*%
X115600000Y-122050000D02*
X113600000Y-122050000D01*
X115600000Y-121150000D02*
X115600000Y-122050000D01*
X113600000Y-121150000D02*
X115600000Y-121150000D01*
X113600000Y-122050000D02*
X113600000Y-121150000D01*
%TD*%
%TO.C,R16*%
D11*
X117409523Y-111352380D02*
X117076190Y-110876190D01*
X116838095Y-111352380D02*
X116838095Y-110352380D01*
X117219047Y-110352380D01*
X117314285Y-110400000D01*
X117361904Y-110447619D01*
X117409523Y-110542857D01*
X117409523Y-110685714D01*
X117361904Y-110780952D01*
X117314285Y-110828571D01*
X117219047Y-110876190D01*
X116838095Y-110876190D01*
D12*
D13*
X116742857Y-105580952D02*
X116609523Y-105390476D01*
X116514285Y-105580952D02*
X116514285Y-105180952D01*
X116666666Y-105180952D01*
X116704761Y-105200000D01*
X116723809Y-105219047D01*
X116742857Y-105257142D01*
X116742857Y-105314285D01*
X116723809Y-105352380D01*
X116704761Y-105371428D01*
X116666666Y-105390476D01*
X116514285Y-105390476D01*
X117123809Y-105580952D02*
X116895238Y-105580952D01*
X117009523Y-105580952D02*
X117009523Y-105180952D01*
X116971428Y-105238095D01*
X116933333Y-105276190D01*
X116895238Y-105295238D01*
X117466666Y-105180952D02*
X117390476Y-105180952D01*
X117352380Y-105200000D01*
X117333333Y-105219047D01*
X117295238Y-105276190D01*
X117276190Y-105352380D01*
X117276190Y-105504761D01*
X117295238Y-105542857D01*
X117314285Y-105561904D01*
X117352380Y-105580952D01*
X117428571Y-105580952D01*
X117466666Y-105561904D01*
X117485714Y-105542857D01*
X117504761Y-105504761D01*
X117504761Y-105409523D01*
X117485714Y-105371428D01*
X117466666Y-105352380D01*
X117428571Y-105333333D01*
X117352380Y-105333333D01*
X117314285Y-105352380D01*
X117295238Y-105371428D01*
X117276190Y-105409523D01*
%TO.C,R15*%
D11*
X117309523Y-104502380D02*
X116976190Y-104026190D01*
X116738095Y-104502380D02*
X116738095Y-103502380D01*
X117119047Y-103502380D01*
X117214285Y-103550000D01*
X117261904Y-103597619D01*
X117309523Y-103692857D01*
X117309523Y-103835714D01*
X117261904Y-103930952D01*
X117214285Y-103978571D01*
X117119047Y-104026190D01*
X116738095Y-104026190D01*
D12*
D13*
X116742857Y-102280952D02*
X116609523Y-102090476D01*
X116514285Y-102280952D02*
X116514285Y-101880952D01*
X116666666Y-101880952D01*
X116704761Y-101900000D01*
X116723809Y-101919047D01*
X116742857Y-101957142D01*
X116742857Y-102014285D01*
X116723809Y-102052380D01*
X116704761Y-102071428D01*
X116666666Y-102090476D01*
X116514285Y-102090476D01*
X117123809Y-102280952D02*
X116895238Y-102280952D01*
X117009523Y-102280952D02*
X117009523Y-101880952D01*
X116971428Y-101938095D01*
X116933333Y-101976190D01*
X116895238Y-101995238D01*
X117485714Y-101880952D02*
X117295238Y-101880952D01*
X117276190Y-102071428D01*
X117295238Y-102052380D01*
X117333333Y-102033333D01*
X117428571Y-102033333D01*
X117466666Y-102052380D01*
X117485714Y-102071428D01*
X117504761Y-102109523D01*
X117504761Y-102204761D01*
X117485714Y-102242857D01*
X117466666Y-102261904D01*
X117428571Y-102280952D01*
X117333333Y-102280952D01*
X117295238Y-102261904D01*
X117276190Y-102242857D01*
%TO.C,R17*%
D11*
X117209523Y-101102380D02*
X116876190Y-100626190D01*
X116638095Y-101102380D02*
X116638095Y-100102380D01*
X117019047Y-100102380D01*
X117114285Y-100150000D01*
X117161904Y-100197619D01*
X117209523Y-100292857D01*
X117209523Y-100435714D01*
X117161904Y-100530952D01*
X117114285Y-100578571D01*
X117019047Y-100626190D01*
X116638095Y-100626190D01*
D12*
D13*
X116642857Y-98880952D02*
X116509523Y-98690476D01*
X116414285Y-98880952D02*
X116414285Y-98480952D01*
X116566666Y-98480952D01*
X116604761Y-98500000D01*
X116623809Y-98519047D01*
X116642857Y-98557142D01*
X116642857Y-98614285D01*
X116623809Y-98652380D01*
X116604761Y-98671428D01*
X116566666Y-98690476D01*
X116414285Y-98690476D01*
X117023809Y-98880952D02*
X116795238Y-98880952D01*
X116909523Y-98880952D02*
X116909523Y-98480952D01*
X116871428Y-98538095D01*
X116833333Y-98576190D01*
X116795238Y-98595238D01*
X117157142Y-98480952D02*
X117423809Y-98480952D01*
X117252380Y-98880952D01*
%TO.C,R30*%
D11*
X121172380Y-120490476D02*
X120696190Y-120823809D01*
X121172380Y-121061904D02*
X120172380Y-121061904D01*
X120172380Y-120680952D01*
X120220000Y-120585714D01*
X120267619Y-120538095D01*
X120362857Y-120490476D01*
X120505714Y-120490476D01*
X120600952Y-120538095D01*
X120648571Y-120585714D01*
X120696190Y-120680952D01*
X120696190Y-121061904D01*
D14*
X119261904Y-121314285D02*
X118880952Y-121580952D01*
X119261904Y-121771428D02*
X118461904Y-121771428D01*
X118461904Y-121466666D01*
X118500000Y-121390476D01*
X118538095Y-121352380D01*
X118614285Y-121314285D01*
X118728571Y-121314285D01*
X118804761Y-121352380D01*
X118842857Y-121390476D01*
X118880952Y-121466666D01*
X118880952Y-121771428D01*
X118461904Y-121047619D02*
X118461904Y-120552380D01*
X118766666Y-120819047D01*
X118766666Y-120704761D01*
X118804761Y-120628571D01*
X118842857Y-120590476D01*
X118919047Y-120552380D01*
X119109523Y-120552380D01*
X119185714Y-120590476D01*
X119223809Y-120628571D01*
X119261904Y-120704761D01*
X119261904Y-120933333D01*
X119223809Y-121009523D01*
X119185714Y-121047619D01*
X118461904Y-120057142D02*
X118461904Y-119980952D01*
X118500000Y-119904761D01*
X118538095Y-119866666D01*
X118614285Y-119828571D01*
X118766666Y-119790476D01*
X118957142Y-119790476D01*
X119109523Y-119828571D01*
X119185714Y-119866666D01*
X119223809Y-119904761D01*
X119261904Y-119980952D01*
X119261904Y-120057142D01*
X119223809Y-120133333D01*
X119185714Y-120171428D01*
X119109523Y-120209523D01*
X118957142Y-120247619D01*
X118766666Y-120247619D01*
X118614285Y-120209523D01*
X118538095Y-120171428D01*
X118500000Y-120133333D01*
X118461904Y-120057142D01*
%TO.C,R28*%
D11*
X108332380Y-116990476D02*
X107856190Y-117323809D01*
X108332380Y-117561904D02*
X107332380Y-117561904D01*
X107332380Y-117180952D01*
X107380000Y-117085714D01*
X107427619Y-117038095D01*
X107522857Y-116990476D01*
X107665714Y-116990476D01*
X107760952Y-117038095D01*
X107808571Y-117085714D01*
X107856190Y-117180952D01*
X107856190Y-117561904D01*
D14*
X110061904Y-117814285D02*
X109680952Y-118080952D01*
X110061904Y-118271428D02*
X109261904Y-118271428D01*
X109261904Y-117966666D01*
X109300000Y-117890476D01*
X109338095Y-117852380D01*
X109414285Y-117814285D01*
X109528571Y-117814285D01*
X109604761Y-117852380D01*
X109642857Y-117890476D01*
X109680952Y-117966666D01*
X109680952Y-118271428D01*
X109338095Y-117509523D02*
X109300000Y-117471428D01*
X109261904Y-117395238D01*
X109261904Y-117204761D01*
X109300000Y-117128571D01*
X109338095Y-117090476D01*
X109414285Y-117052380D01*
X109490476Y-117052380D01*
X109604761Y-117090476D01*
X110061904Y-117547619D01*
X110061904Y-117052380D01*
X109604761Y-116595238D02*
X109566666Y-116671428D01*
X109528571Y-116709523D01*
X109452380Y-116747619D01*
X109414285Y-116747619D01*
X109338095Y-116709523D01*
X109300000Y-116671428D01*
X109261904Y-116595238D01*
X109261904Y-116442857D01*
X109300000Y-116366666D01*
X109338095Y-116328571D01*
X109414285Y-116290476D01*
X109452380Y-116290476D01*
X109528571Y-116328571D01*
X109566666Y-116366666D01*
X109604761Y-116442857D01*
X109604761Y-116595238D01*
X109642857Y-116671428D01*
X109680952Y-116709523D01*
X109757142Y-116747619D01*
X109909523Y-116747619D01*
X109985714Y-116709523D01*
X110023809Y-116671428D01*
X110061904Y-116595238D01*
X110061904Y-116442857D01*
X110023809Y-116366666D01*
X109985714Y-116328571D01*
X109909523Y-116290476D01*
X109757142Y-116290476D01*
X109680952Y-116328571D01*
X109642857Y-116366666D01*
X109604761Y-116442857D01*
%TO.C,R29*%
D11*
X121172380Y-116990476D02*
X120696190Y-117323809D01*
X121172380Y-117561904D02*
X120172380Y-117561904D01*
X120172380Y-117180952D01*
X120220000Y-117085714D01*
X120267619Y-117038095D01*
X120362857Y-116990476D01*
X120505714Y-116990476D01*
X120600952Y-117038095D01*
X120648571Y-117085714D01*
X120696190Y-117180952D01*
X120696190Y-117561904D01*
D14*
X119261904Y-117814285D02*
X118880952Y-118080952D01*
X119261904Y-118271428D02*
X118461904Y-118271428D01*
X118461904Y-117966666D01*
X118500000Y-117890476D01*
X118538095Y-117852380D01*
X118614285Y-117814285D01*
X118728571Y-117814285D01*
X118804761Y-117852380D01*
X118842857Y-117890476D01*
X118880952Y-117966666D01*
X118880952Y-118271428D01*
X118538095Y-117509523D02*
X118500000Y-117471428D01*
X118461904Y-117395238D01*
X118461904Y-117204761D01*
X118500000Y-117128571D01*
X118538095Y-117090476D01*
X118614285Y-117052380D01*
X118690476Y-117052380D01*
X118804761Y-117090476D01*
X119261904Y-117547619D01*
X119261904Y-117052380D01*
X119261904Y-116671428D02*
X119261904Y-116519047D01*
X119223809Y-116442857D01*
X119185714Y-116404761D01*
X119071428Y-116328571D01*
X118919047Y-116290476D01*
X118614285Y-116290476D01*
X118538095Y-116328571D01*
X118500000Y-116366666D01*
X118461904Y-116442857D01*
X118461904Y-116595238D01*
X118500000Y-116671428D01*
X118538095Y-116709523D01*
X118614285Y-116747619D01*
X118804761Y-116747619D01*
X118880952Y-116709523D01*
X118919047Y-116671428D01*
X118957142Y-116595238D01*
X118957142Y-116442857D01*
X118919047Y-116366666D01*
X118880952Y-116328571D01*
X118804761Y-116290476D01*
%TO.C,R27*%
D11*
X111972380Y-120490476D02*
X111496190Y-120823809D01*
X111972380Y-121061904D02*
X110972380Y-121061904D01*
X110972380Y-120680952D01*
X111020000Y-120585714D01*
X111067619Y-120538095D01*
X111162857Y-120490476D01*
X111305714Y-120490476D01*
X111400952Y-120538095D01*
X111448571Y-120585714D01*
X111496190Y-120680952D01*
X111496190Y-121061904D01*
D14*
X110061904Y-121314285D02*
X109680952Y-121580952D01*
X110061904Y-121771428D02*
X109261904Y-121771428D01*
X109261904Y-121466666D01*
X109300000Y-121390476D01*
X109338095Y-121352380D01*
X109414285Y-121314285D01*
X109528571Y-121314285D01*
X109604761Y-121352380D01*
X109642857Y-121390476D01*
X109680952Y-121466666D01*
X109680952Y-121771428D01*
X109338095Y-121009523D02*
X109300000Y-120971428D01*
X109261904Y-120895238D01*
X109261904Y-120704761D01*
X109300000Y-120628571D01*
X109338095Y-120590476D01*
X109414285Y-120552380D01*
X109490476Y-120552380D01*
X109604761Y-120590476D01*
X110061904Y-121047619D01*
X110061904Y-120552380D01*
X109261904Y-120285714D02*
X109261904Y-119752380D01*
X110061904Y-120095238D01*
%TO.C,C5*%
D11*
X123207142Y-120490476D02*
X123254761Y-120538095D01*
X123302380Y-120680952D01*
X123302380Y-120776190D01*
X123254761Y-120919047D01*
X123159523Y-121014285D01*
X123064285Y-121061904D01*
X122873809Y-121109523D01*
X122730952Y-121109523D01*
X122540476Y-121061904D01*
X122445238Y-121014285D01*
X122350000Y-120919047D01*
X122302380Y-120776190D01*
X122302380Y-120680952D01*
X122350000Y-120538095D01*
X122397619Y-120490476D01*
D14*
X121285714Y-120933333D02*
X121323809Y-120971428D01*
X121361904Y-121085714D01*
X121361904Y-121161904D01*
X121323809Y-121276190D01*
X121247619Y-121352380D01*
X121171428Y-121390476D01*
X121019047Y-121428571D01*
X120904761Y-121428571D01*
X120752380Y-121390476D01*
X120676190Y-121352380D01*
X120600000Y-121276190D01*
X120561904Y-121161904D01*
X120561904Y-121085714D01*
X120600000Y-120971428D01*
X120638095Y-120933333D01*
X120561904Y-120209523D02*
X120561904Y-120590476D01*
X120942857Y-120628571D01*
X120904761Y-120590476D01*
X120866666Y-120514285D01*
X120866666Y-120323809D01*
X120904761Y-120247619D01*
X120942857Y-120209523D01*
X121019047Y-120171428D01*
X121209523Y-120171428D01*
X121285714Y-120209523D01*
X121323809Y-120247619D01*
X121361904Y-120323809D01*
X121361904Y-120514285D01*
X121323809Y-120590476D01*
X121285714Y-120628571D01*
%TO.C,R26*%
D11*
X114809523Y-116872380D02*
X114476190Y-116396190D01*
X114238095Y-116872380D02*
X114238095Y-115872380D01*
X114619047Y-115872380D01*
X114714285Y-115920000D01*
X114761904Y-115967619D01*
X114809523Y-116062857D01*
X114809523Y-116205714D01*
X114761904Y-116300952D01*
X114714285Y-116348571D01*
X114619047Y-116396190D01*
X114238095Y-116396190D01*
D14*
X113985714Y-114961904D02*
X113719047Y-114580952D01*
X113528571Y-114961904D02*
X113528571Y-114161904D01*
X113833333Y-114161904D01*
X113909523Y-114200000D01*
X113947619Y-114238095D01*
X113985714Y-114314285D01*
X113985714Y-114428571D01*
X113947619Y-114504761D01*
X113909523Y-114542857D01*
X113833333Y-114580952D01*
X113528571Y-114580952D01*
X114290476Y-114238095D02*
X114328571Y-114200000D01*
X114404761Y-114161904D01*
X114595238Y-114161904D01*
X114671428Y-114200000D01*
X114709523Y-114238095D01*
X114747619Y-114314285D01*
X114747619Y-114390476D01*
X114709523Y-114504761D01*
X114252380Y-114961904D01*
X114747619Y-114961904D01*
X115433333Y-114161904D02*
X115280952Y-114161904D01*
X115204761Y-114200000D01*
X115166666Y-114238095D01*
X115090476Y-114352380D01*
X115052380Y-114504761D01*
X115052380Y-114809523D01*
X115090476Y-114885714D01*
X115128571Y-114923809D01*
X115204761Y-114961904D01*
X115357142Y-114961904D01*
X115433333Y-114923809D01*
X115471428Y-114885714D01*
X115509523Y-114809523D01*
X115509523Y-114619047D01*
X115471428Y-114542857D01*
X115433333Y-114504761D01*
X115357142Y-114466666D01*
X115204761Y-114466666D01*
X115128571Y-114504761D01*
X115090476Y-114542857D01*
X115052380Y-114619047D01*
%TO.C,C4*%
D11*
X106207142Y-116990476D02*
X106254761Y-117038095D01*
X106302380Y-117180952D01*
X106302380Y-117276190D01*
X106254761Y-117419047D01*
X106159523Y-117514285D01*
X106064285Y-117561904D01*
X105873809Y-117609523D01*
X105730952Y-117609523D01*
X105540476Y-117561904D01*
X105445238Y-117514285D01*
X105350000Y-117419047D01*
X105302380Y-117276190D01*
X105302380Y-117180952D01*
X105350000Y-117038095D01*
X105397619Y-116990476D01*
D14*
X107985714Y-117433333D02*
X108023809Y-117471428D01*
X108061904Y-117585714D01*
X108061904Y-117661904D01*
X108023809Y-117776190D01*
X107947619Y-117852380D01*
X107871428Y-117890476D01*
X107719047Y-117928571D01*
X107604761Y-117928571D01*
X107452380Y-117890476D01*
X107376190Y-117852380D01*
X107300000Y-117776190D01*
X107261904Y-117661904D01*
X107261904Y-117585714D01*
X107300000Y-117471428D01*
X107338095Y-117433333D01*
X107528571Y-116747619D02*
X108061904Y-116747619D01*
X107223809Y-116938095D02*
X107795238Y-117128571D01*
X107795238Y-116633333D01*
%TO.C,C3*%
D11*
X109907142Y-121466666D02*
X109954761Y-121514285D01*
X110002380Y-121657142D01*
X110002380Y-121752380D01*
X109954761Y-121895238D01*
X109859523Y-121990476D01*
X109764285Y-122038095D01*
X109573809Y-122085714D01*
X109430952Y-122085714D01*
X109240476Y-122038095D01*
X109145238Y-121990476D01*
X109050000Y-121895238D01*
X109002380Y-121752380D01*
X109002380Y-121657142D01*
X109050000Y-121514285D01*
X109097619Y-121466666D01*
X110002380Y-121038095D02*
X109002380Y-121038095D01*
X109002380Y-120657142D01*
X109050000Y-120561904D01*
X109097619Y-120514285D01*
X109192857Y-120466666D01*
X109335714Y-120466666D01*
X109430952Y-120514285D01*
X109478571Y-120561904D01*
X109526190Y-120657142D01*
X109526190Y-121038095D01*
X110002380Y-119514285D02*
X110002380Y-120085714D01*
X110002380Y-119800000D02*
X109002380Y-119800000D01*
X109145238Y-119895238D01*
X109240476Y-119990476D01*
X109288095Y-120085714D01*
D14*
X107985714Y-120933333D02*
X108023809Y-120971428D01*
X108061904Y-121085714D01*
X108061904Y-121161904D01*
X108023809Y-121276190D01*
X107947619Y-121352380D01*
X107871428Y-121390476D01*
X107719047Y-121428571D01*
X107604761Y-121428571D01*
X107452380Y-121390476D01*
X107376190Y-121352380D01*
X107300000Y-121276190D01*
X107261904Y-121161904D01*
X107261904Y-121085714D01*
X107300000Y-120971428D01*
X107338095Y-120933333D01*
X107261904Y-120666666D02*
X107261904Y-120171428D01*
X107566666Y-120438095D01*
X107566666Y-120323809D01*
X107604761Y-120247619D01*
X107642857Y-120209523D01*
X107719047Y-120171428D01*
X107909523Y-120171428D01*
X107985714Y-120209523D01*
X108023809Y-120247619D01*
X108061904Y-120323809D01*
X108061904Y-120552380D01*
X108023809Y-120628571D01*
X107985714Y-120666666D01*
%TO.C,SW10*%
D11*
X128854761Y-113642857D02*
X128902380Y-113500000D01*
X128902380Y-113261904D01*
X128854761Y-113166666D01*
X128807142Y-113119047D01*
X128711904Y-113071428D01*
X128616666Y-113071428D01*
X128521428Y-113119047D01*
X128473809Y-113166666D01*
X128426190Y-113261904D01*
X128378571Y-113452380D01*
X128330952Y-113547619D01*
X128283333Y-113595238D01*
X128188095Y-113642857D01*
X128092857Y-113642857D01*
X127997619Y-113595238D01*
X127950000Y-113547619D01*
X127902380Y-113452380D01*
X127902380Y-113214285D01*
X127950000Y-113071428D01*
X128902380Y-112642857D02*
X127902380Y-112642857D01*
X127902380Y-112261904D01*
X127950000Y-112166666D01*
X127997619Y-112119047D01*
X128092857Y-112071428D01*
X128235714Y-112071428D01*
X128330952Y-112119047D01*
X128378571Y-112166666D01*
X128426190Y-112261904D01*
X128426190Y-112642857D01*
X128854761Y-111690476D02*
X128902380Y-111547619D01*
X128902380Y-111309523D01*
X128854761Y-111214285D01*
X128807142Y-111166666D01*
X128711904Y-111119047D01*
X128616666Y-111119047D01*
X128521428Y-111166666D01*
X128473809Y-111214285D01*
X128426190Y-111309523D01*
X128378571Y-111500000D01*
X128330952Y-111595238D01*
X128283333Y-111642857D01*
X128188095Y-111690476D01*
X128092857Y-111690476D01*
X127997619Y-111642857D01*
X127950000Y-111595238D01*
X127902380Y-111500000D01*
X127902380Y-111261904D01*
X127950000Y-111119047D01*
X127902380Y-110833333D02*
X127902380Y-110261904D01*
X128902380Y-110547619D02*
X127902380Y-110547619D01*
%TO.C,SW11*%
X75454761Y-121142857D02*
X75502380Y-121000000D01*
X75502380Y-120761904D01*
X75454761Y-120666666D01*
X75407142Y-120619047D01*
X75311904Y-120571428D01*
X75216666Y-120571428D01*
X75121428Y-120619047D01*
X75073809Y-120666666D01*
X75026190Y-120761904D01*
X74978571Y-120952380D01*
X74930952Y-121047619D01*
X74883333Y-121095238D01*
X74788095Y-121142857D01*
X74692857Y-121142857D01*
X74597619Y-121095238D01*
X74550000Y-121047619D01*
X74502380Y-120952380D01*
X74502380Y-120714285D01*
X74550000Y-120571428D01*
X75502380Y-120142857D02*
X74502380Y-120142857D01*
X74502380Y-119761904D01*
X74550000Y-119666666D01*
X74597619Y-119619047D01*
X74692857Y-119571428D01*
X74835714Y-119571428D01*
X74930952Y-119619047D01*
X74978571Y-119666666D01*
X75026190Y-119761904D01*
X75026190Y-120142857D01*
X75454761Y-119190476D02*
X75502380Y-119047619D01*
X75502380Y-118809523D01*
X75454761Y-118714285D01*
X75407142Y-118666666D01*
X75311904Y-118619047D01*
X75216666Y-118619047D01*
X75121428Y-118666666D01*
X75073809Y-118714285D01*
X75026190Y-118809523D01*
X74978571Y-119000000D01*
X74930952Y-119095238D01*
X74883333Y-119142857D01*
X74788095Y-119190476D01*
X74692857Y-119190476D01*
X74597619Y-119142857D01*
X74550000Y-119095238D01*
X74502380Y-119000000D01*
X74502380Y-118761904D01*
X74550000Y-118619047D01*
X74502380Y-118333333D02*
X74502380Y-117761904D01*
X75502380Y-118047619D02*
X74502380Y-118047619D01*
%TO.C,SW5*%
X170204761Y-100942857D02*
X170252380Y-100800000D01*
X170252380Y-100561904D01*
X170204761Y-100466666D01*
X170157142Y-100419047D01*
X170061904Y-100371428D01*
X169966666Y-100371428D01*
X169871428Y-100419047D01*
X169823809Y-100466666D01*
X169776190Y-100561904D01*
X169728571Y-100752380D01*
X169680952Y-100847619D01*
X169633333Y-100895238D01*
X169538095Y-100942857D01*
X169442857Y-100942857D01*
X169347619Y-100895238D01*
X169300000Y-100847619D01*
X169252380Y-100752380D01*
X169252380Y-100514285D01*
X169300000Y-100371428D01*
X170252380Y-99942857D02*
X169252380Y-99942857D01*
X169252380Y-99561904D01*
X169300000Y-99466666D01*
X169347619Y-99419047D01*
X169442857Y-99371428D01*
X169585714Y-99371428D01*
X169680952Y-99419047D01*
X169728571Y-99466666D01*
X169776190Y-99561904D01*
X169776190Y-99942857D01*
X170204761Y-98990476D02*
X170252380Y-98847619D01*
X170252380Y-98609523D01*
X170204761Y-98514285D01*
X170157142Y-98466666D01*
X170061904Y-98419047D01*
X169966666Y-98419047D01*
X169871428Y-98466666D01*
X169823809Y-98514285D01*
X169776190Y-98609523D01*
X169728571Y-98800000D01*
X169680952Y-98895238D01*
X169633333Y-98942857D01*
X169538095Y-98990476D01*
X169442857Y-98990476D01*
X169347619Y-98942857D01*
X169300000Y-98895238D01*
X169252380Y-98800000D01*
X169252380Y-98561904D01*
X169300000Y-98419047D01*
X169252380Y-98133333D02*
X169252380Y-97561904D01*
X170252380Y-97847619D02*
X169252380Y-97847619D01*
%TO.C,SW7*%
X183904761Y-99192857D02*
X183952380Y-99050000D01*
X183952380Y-98811904D01*
X183904761Y-98716666D01*
X183857142Y-98669047D01*
X183761904Y-98621428D01*
X183666666Y-98621428D01*
X183571428Y-98669047D01*
X183523809Y-98716666D01*
X183476190Y-98811904D01*
X183428571Y-99002380D01*
X183380952Y-99097619D01*
X183333333Y-99145238D01*
X183238095Y-99192857D01*
X183142857Y-99192857D01*
X183047619Y-99145238D01*
X183000000Y-99097619D01*
X182952380Y-99002380D01*
X182952380Y-98764285D01*
X183000000Y-98621428D01*
X183952380Y-98192857D02*
X182952380Y-98192857D01*
X182952380Y-97811904D01*
X183000000Y-97716666D01*
X183047619Y-97669047D01*
X183142857Y-97621428D01*
X183285714Y-97621428D01*
X183380952Y-97669047D01*
X183428571Y-97716666D01*
X183476190Y-97811904D01*
X183476190Y-98192857D01*
X183904761Y-97240476D02*
X183952380Y-97097619D01*
X183952380Y-96859523D01*
X183904761Y-96764285D01*
X183857142Y-96716666D01*
X183761904Y-96669047D01*
X183666666Y-96669047D01*
X183571428Y-96716666D01*
X183523809Y-96764285D01*
X183476190Y-96859523D01*
X183428571Y-97050000D01*
X183380952Y-97145238D01*
X183333333Y-97192857D01*
X183238095Y-97240476D01*
X183142857Y-97240476D01*
X183047619Y-97192857D01*
X183000000Y-97145238D01*
X182952380Y-97050000D01*
X182952380Y-96811904D01*
X183000000Y-96669047D01*
X182952380Y-96383333D02*
X182952380Y-95811904D01*
X183952380Y-96097619D02*
X182952380Y-96097619D01*
%TO.C,SW2*%
X203104761Y-111292857D02*
X203152380Y-111150000D01*
X203152380Y-110911904D01*
X203104761Y-110816666D01*
X203057142Y-110769047D01*
X202961904Y-110721428D01*
X202866666Y-110721428D01*
X202771428Y-110769047D01*
X202723809Y-110816666D01*
X202676190Y-110911904D01*
X202628571Y-111102380D01*
X202580952Y-111197619D01*
X202533333Y-111245238D01*
X202438095Y-111292857D01*
X202342857Y-111292857D01*
X202247619Y-111245238D01*
X202200000Y-111197619D01*
X202152380Y-111102380D01*
X202152380Y-110864285D01*
X202200000Y-110721428D01*
X203152380Y-110292857D02*
X202152380Y-110292857D01*
X202152380Y-109911904D01*
X202200000Y-109816666D01*
X202247619Y-109769047D01*
X202342857Y-109721428D01*
X202485714Y-109721428D01*
X202580952Y-109769047D01*
X202628571Y-109816666D01*
X202676190Y-109911904D01*
X202676190Y-110292857D01*
X203104761Y-109340476D02*
X203152380Y-109197619D01*
X203152380Y-108959523D01*
X203104761Y-108864285D01*
X203057142Y-108816666D01*
X202961904Y-108769047D01*
X202866666Y-108769047D01*
X202771428Y-108816666D01*
X202723809Y-108864285D01*
X202676190Y-108959523D01*
X202628571Y-109150000D01*
X202580952Y-109245238D01*
X202533333Y-109292857D01*
X202438095Y-109340476D01*
X202342857Y-109340476D01*
X202247619Y-109292857D01*
X202200000Y-109245238D01*
X202152380Y-109150000D01*
X202152380Y-108911904D01*
X202200000Y-108769047D01*
X202152380Y-108483333D02*
X202152380Y-107911904D01*
X203152380Y-108197619D02*
X202152380Y-108197619D01*
%TO.C,SW3*%
X195304761Y-100892857D02*
X195352380Y-100750000D01*
X195352380Y-100511904D01*
X195304761Y-100416666D01*
X195257142Y-100369047D01*
X195161904Y-100321428D01*
X195066666Y-100321428D01*
X194971428Y-100369047D01*
X194923809Y-100416666D01*
X194876190Y-100511904D01*
X194828571Y-100702380D01*
X194780952Y-100797619D01*
X194733333Y-100845238D01*
X194638095Y-100892857D01*
X194542857Y-100892857D01*
X194447619Y-100845238D01*
X194400000Y-100797619D01*
X194352380Y-100702380D01*
X194352380Y-100464285D01*
X194400000Y-100321428D01*
X195352380Y-99892857D02*
X194352380Y-99892857D01*
X194352380Y-99511904D01*
X194400000Y-99416666D01*
X194447619Y-99369047D01*
X194542857Y-99321428D01*
X194685714Y-99321428D01*
X194780952Y-99369047D01*
X194828571Y-99416666D01*
X194876190Y-99511904D01*
X194876190Y-99892857D01*
X195304761Y-98940476D02*
X195352380Y-98797619D01*
X195352380Y-98559523D01*
X195304761Y-98464285D01*
X195257142Y-98416666D01*
X195161904Y-98369047D01*
X195066666Y-98369047D01*
X194971428Y-98416666D01*
X194923809Y-98464285D01*
X194876190Y-98559523D01*
X194828571Y-98750000D01*
X194780952Y-98845238D01*
X194733333Y-98892857D01*
X194638095Y-98940476D01*
X194542857Y-98940476D01*
X194447619Y-98892857D01*
X194400000Y-98845238D01*
X194352380Y-98750000D01*
X194352380Y-98511904D01*
X194400000Y-98369047D01*
X194352380Y-98083333D02*
X194352380Y-97511904D01*
X195352380Y-97797619D02*
X194352380Y-97797619D01*
%TO.C,*%
%TO.C,R7*%
X131752380Y-68490476D02*
X131276190Y-68823809D01*
X131752380Y-69061904D02*
X130752380Y-69061904D01*
X130752380Y-68680952D01*
X130800000Y-68585714D01*
X130847619Y-68538095D01*
X130942857Y-68490476D01*
X131085714Y-68490476D01*
X131180952Y-68538095D01*
X131228571Y-68585714D01*
X131276190Y-68680952D01*
X131276190Y-69061904D01*
D15*
%TO.C,J1*%
D11*
X78357142Y-94821428D02*
X78404761Y-94869047D01*
X78452380Y-95011904D01*
X78452380Y-95107142D01*
X78404761Y-95250000D01*
X78309523Y-95345238D01*
X78214285Y-95392857D01*
X78023809Y-95440476D01*
X77880952Y-95440476D01*
X77690476Y-95392857D01*
X77595238Y-95345238D01*
X77500000Y-95250000D01*
X77452380Y-95107142D01*
X77452380Y-95011904D01*
X77500000Y-94869047D01*
X77547619Y-94821428D01*
X77452380Y-94202380D02*
X77452380Y-94011904D01*
X77500000Y-93916666D01*
X77595238Y-93821428D01*
X77785714Y-93773809D01*
X78119047Y-93773809D01*
X78309523Y-93821428D01*
X78404761Y-93916666D01*
X78452380Y-94011904D01*
X78452380Y-94202380D01*
X78404761Y-94297619D01*
X78309523Y-94392857D01*
X78119047Y-94440476D01*
X77785714Y-94440476D01*
X77595238Y-94392857D01*
X77500000Y-94297619D01*
X77452380Y-94202380D01*
X78452380Y-93345238D02*
X77452380Y-93345238D01*
X78452380Y-92773809D01*
X77452380Y-92773809D01*
X78452380Y-92297619D02*
X77452380Y-92297619D01*
X78452380Y-91726190D01*
X77452380Y-91726190D01*
X78547619Y-91488095D02*
X78547619Y-90726190D01*
X77452380Y-90011904D02*
X77452380Y-90488095D01*
X77928571Y-90535714D01*
X77880952Y-90488095D01*
X77833333Y-90392857D01*
X77833333Y-90154761D01*
X77880952Y-90059523D01*
X77928571Y-90011904D01*
X78023809Y-89964285D01*
X78261904Y-89964285D01*
X78357142Y-90011904D01*
X78404761Y-90059523D01*
X78452380Y-90154761D01*
X78452380Y-90392857D01*
X78404761Y-90488095D01*
X78357142Y-90535714D01*
X77452380Y-89630952D02*
X78452380Y-88964285D01*
X77452380Y-88964285D02*
X78452380Y-89630952D01*
X77547619Y-88630952D02*
X77500000Y-88583333D01*
X77452380Y-88488095D01*
X77452380Y-88250000D01*
X77500000Y-88154761D01*
X77547619Y-88107142D01*
X77642857Y-88059523D01*
X77738095Y-88059523D01*
X77880952Y-88107142D01*
X78452380Y-88678571D01*
X78452380Y-88059523D01*
%TO.C,C6*%
X102609523Y-74907142D02*
X102561904Y-74954761D01*
X102419047Y-75002380D01*
X102323809Y-75002380D01*
X102180952Y-74954761D01*
X102085714Y-74859523D01*
X102038095Y-74764285D01*
X101990476Y-74573809D01*
X101990476Y-74430952D01*
X102038095Y-74240476D01*
X102085714Y-74145238D01*
X102180952Y-74050000D01*
X102323809Y-74002380D01*
X102419047Y-74002380D01*
X102561904Y-74050000D01*
X102609523Y-74097619D01*
D15*
%TO.C,C7*%
D11*
X170759523Y-73657142D02*
X170711904Y-73704761D01*
X170569047Y-73752380D01*
X170473809Y-73752380D01*
X170330952Y-73704761D01*
X170235714Y-73609523D01*
X170188095Y-73514285D01*
X170140476Y-73323809D01*
X170140476Y-73180952D01*
X170188095Y-72990476D01*
X170235714Y-72895238D01*
X170330952Y-72800000D01*
X170473809Y-72752380D01*
X170569047Y-72752380D01*
X170711904Y-72800000D01*
X170759523Y-72847619D01*
D15*
%TO.C,Y1*%
D11*
X88607142Y-100535714D02*
X88654761Y-100583333D01*
X88702380Y-100726190D01*
X88702380Y-100821428D01*
X88654761Y-100964285D01*
X88559523Y-101059523D01*
X88464285Y-101107142D01*
X88273809Y-101154761D01*
X88130952Y-101154761D01*
X87940476Y-101107142D01*
X87845238Y-101059523D01*
X87750000Y-100964285D01*
X87702380Y-100821428D01*
X87702380Y-100726190D01*
X87750000Y-100583333D01*
X87797619Y-100535714D01*
X88702380Y-100107142D02*
X88035714Y-100107142D01*
X88226190Y-100107142D02*
X88130952Y-100059523D01*
X88083333Y-100011904D01*
X88035714Y-99916666D01*
X88035714Y-99821428D01*
X88035714Y-99583333D02*
X88702380Y-99345238D01*
X88035714Y-99107142D02*
X88702380Y-99345238D01*
X88940476Y-99440476D01*
X88988095Y-99488095D01*
X89035714Y-99583333D01*
X88654761Y-98773809D02*
X88702380Y-98678571D01*
X88702380Y-98488095D01*
X88654761Y-98392857D01*
X88559523Y-98345238D01*
X88511904Y-98345238D01*
X88416666Y-98392857D01*
X88369047Y-98488095D01*
X88369047Y-98630952D01*
X88321428Y-98726190D01*
X88226190Y-98773809D01*
X88178571Y-98773809D01*
X88083333Y-98726190D01*
X88035714Y-98630952D01*
X88035714Y-98488095D01*
X88083333Y-98392857D01*
X88035714Y-98059523D02*
X88035714Y-97678571D01*
X87702380Y-97916666D02*
X88559523Y-97916666D01*
X88654761Y-97869047D01*
X88702380Y-97773809D01*
X88702380Y-97678571D01*
X88702380Y-96916666D02*
X88178571Y-96916666D01*
X88083333Y-96964285D01*
X88035714Y-97059523D01*
X88035714Y-97250000D01*
X88083333Y-97345238D01*
X88654761Y-96916666D02*
X88702380Y-97011904D01*
X88702380Y-97250000D01*
X88654761Y-97345238D01*
X88559523Y-97392857D01*
X88464285Y-97392857D01*
X88369047Y-97345238D01*
X88321428Y-97250000D01*
X88321428Y-97011904D01*
X88273809Y-96916666D01*
X88702380Y-96297619D02*
X88654761Y-96392857D01*
X88559523Y-96440476D01*
X87702380Y-96440476D01*
%TO.C,*%
%TO.C,J2*%
X182128571Y-104057142D02*
X182080952Y-104104761D01*
X181938095Y-104152380D01*
X181842857Y-104152380D01*
X181700000Y-104104761D01*
X181604761Y-104009523D01*
X181557142Y-103914285D01*
X181509523Y-103723809D01*
X181509523Y-103580952D01*
X181557142Y-103390476D01*
X181604761Y-103295238D01*
X181700000Y-103200000D01*
X181842857Y-103152380D01*
X181938095Y-103152380D01*
X182080952Y-103200000D01*
X182128571Y-103247619D01*
X182747619Y-103152380D02*
X182938095Y-103152380D01*
X183033333Y-103200000D01*
X183128571Y-103295238D01*
X183176190Y-103485714D01*
X183176190Y-103819047D01*
X183128571Y-104009523D01*
X183033333Y-104104761D01*
X182938095Y-104152380D01*
X182747619Y-104152380D01*
X182652380Y-104104761D01*
X182557142Y-104009523D01*
X182509523Y-103819047D01*
X182509523Y-103485714D01*
X182557142Y-103295238D01*
X182652380Y-103200000D01*
X182747619Y-103152380D01*
X183604761Y-104152380D02*
X183604761Y-103152380D01*
X184176190Y-104152380D01*
X184176190Y-103152380D01*
X184652380Y-104152380D02*
X184652380Y-103152380D01*
X185223809Y-104152380D01*
X185223809Y-103152380D01*
X185461904Y-104247619D02*
X186223809Y-104247619D01*
X186366666Y-103152380D02*
X187033333Y-103152380D01*
X186604761Y-104152380D01*
X187319047Y-103152380D02*
X187985714Y-104152380D01*
X187985714Y-103152380D02*
X187319047Y-104152380D01*
X188319047Y-103247619D02*
X188366666Y-103200000D01*
X188461904Y-103152380D01*
X188700000Y-103152380D01*
X188795238Y-103200000D01*
X188842857Y-103247619D01*
X188890476Y-103342857D01*
X188890476Y-103438095D01*
X188842857Y-103580952D01*
X188271428Y-104152380D01*
X188890476Y-104152380D01*
X184466666Y-102252380D02*
X184466666Y-102966666D01*
X184419047Y-103109523D01*
X184323809Y-103204761D01*
X184180952Y-103252380D01*
X184085714Y-103252380D01*
X184895238Y-102347619D02*
X184942857Y-102300000D01*
X185038095Y-102252380D01*
X185276190Y-102252380D01*
X185371428Y-102300000D01*
X185419047Y-102347619D01*
X185466666Y-102442857D01*
X185466666Y-102538095D01*
X185419047Y-102680952D01*
X184847619Y-103252380D01*
X185466666Y-103252380D01*
%TO.C,R8*%
X153609523Y-111652380D02*
X153276190Y-111176190D01*
X153038095Y-111652380D02*
X153038095Y-110652380D01*
X153419047Y-110652380D01*
X153514285Y-110700000D01*
X153561904Y-110747619D01*
X153609523Y-110842857D01*
X153609523Y-110985714D01*
X153561904Y-111080952D01*
X153514285Y-111128571D01*
X153419047Y-111176190D01*
X153038095Y-111176190D01*
D15*
%TO.C,R9*%
D11*
X158309523Y-87152380D02*
X157976190Y-86676190D01*
X157738095Y-87152380D02*
X157738095Y-86152380D01*
X158119047Y-86152380D01*
X158214285Y-86200000D01*
X158261904Y-86247619D01*
X158309523Y-86342857D01*
X158309523Y-86485714D01*
X158261904Y-86580952D01*
X158214285Y-86628571D01*
X158119047Y-86676190D01*
X157738095Y-86676190D01*
D15*
%TO.C,R10*%
D11*
X148709523Y-104152380D02*
X148376190Y-103676190D01*
X148138095Y-104152380D02*
X148138095Y-103152380D01*
X148519047Y-103152380D01*
X148614285Y-103200000D01*
X148661904Y-103247619D01*
X148709523Y-103342857D01*
X148709523Y-103485714D01*
X148661904Y-103580952D01*
X148614285Y-103628571D01*
X148519047Y-103676190D01*
X148138095Y-103676190D01*
D15*
%TO.C,R11*%
D11*
X185009523Y-95852380D02*
X184676190Y-95376190D01*
X184438095Y-95852380D02*
X184438095Y-94852380D01*
X184819047Y-94852380D01*
X184914285Y-94900000D01*
X184961904Y-94947619D01*
X185009523Y-95042857D01*
X185009523Y-95185714D01*
X184961904Y-95280952D01*
X184914285Y-95328571D01*
X184819047Y-95376190D01*
X184438095Y-95376190D01*
D15*
%TO.C,R12*%
D11*
X187409523Y-119452380D02*
X187076190Y-118976190D01*
X186838095Y-119452380D02*
X186838095Y-118452380D01*
X187219047Y-118452380D01*
X187314285Y-118500000D01*
X187361904Y-118547619D01*
X187409523Y-118642857D01*
X187409523Y-118785714D01*
X187361904Y-118880952D01*
X187314285Y-118928571D01*
X187219047Y-118976190D01*
X186838095Y-118976190D01*
D15*
%TO.C,R13*%
D11*
X189609523Y-109452380D02*
X189276190Y-108976190D01*
X189038095Y-109452380D02*
X189038095Y-108452380D01*
X189419047Y-108452380D01*
X189514285Y-108500000D01*
X189561904Y-108547619D01*
X189609523Y-108642857D01*
X189609523Y-108785714D01*
X189561904Y-108880952D01*
X189514285Y-108928571D01*
X189419047Y-108976190D01*
X189038095Y-108976190D01*
D15*
%TO.C,R14*%
D11*
X158709523Y-106852380D02*
X158376190Y-106376190D01*
X158138095Y-106852380D02*
X158138095Y-105852380D01*
X158519047Y-105852380D01*
X158614285Y-105900000D01*
X158661904Y-105947619D01*
X158709523Y-106042857D01*
X158709523Y-106185714D01*
X158661904Y-106280952D01*
X158614285Y-106328571D01*
X158519047Y-106376190D01*
X158138095Y-106376190D01*
D15*
%TO.C,R18*%
D11*
X135209523Y-105152380D02*
X134876190Y-104676190D01*
X134638095Y-105152380D02*
X134638095Y-104152380D01*
X135019047Y-104152380D01*
X135114285Y-104200000D01*
X135161904Y-104247619D01*
X135209523Y-104342857D01*
X135209523Y-104485714D01*
X135161904Y-104580952D01*
X135114285Y-104628571D01*
X135019047Y-104676190D01*
X134638095Y-104676190D01*
D15*
%TO.C,R19*%
D11*
X136309523Y-105352380D02*
X135976190Y-104876190D01*
X135738095Y-105352380D02*
X135738095Y-104352380D01*
X136119047Y-104352380D01*
X136214285Y-104400000D01*
X136261904Y-104447619D01*
X136309523Y-104542857D01*
X136309523Y-104685714D01*
X136261904Y-104780952D01*
X136214285Y-104828571D01*
X136119047Y-104876190D01*
X135738095Y-104876190D01*
D15*
%TO.C,R20*%
D11*
X133609523Y-121952380D02*
X133276190Y-121476190D01*
X133038095Y-121952380D02*
X133038095Y-120952380D01*
X133419047Y-120952380D01*
X133514285Y-121000000D01*
X133561904Y-121047619D01*
X133609523Y-121142857D01*
X133609523Y-121285714D01*
X133561904Y-121380952D01*
X133514285Y-121428571D01*
X133419047Y-121476190D01*
X133038095Y-121476190D01*
D15*
%TO.C,R21*%
D11*
X134009523Y-130552380D02*
X133676190Y-130076190D01*
X133438095Y-130552380D02*
X133438095Y-129552380D01*
X133819047Y-129552380D01*
X133914285Y-129600000D01*
X133961904Y-129647619D01*
X134009523Y-129742857D01*
X134009523Y-129885714D01*
X133961904Y-129980952D01*
X133914285Y-130028571D01*
X133819047Y-130076190D01*
X133438095Y-130076190D01*
D15*
%TO.C,R22*%
D11*
X133309523Y-129452380D02*
X132976190Y-128976190D01*
X132738095Y-129452380D02*
X132738095Y-128452380D01*
X133119047Y-128452380D01*
X133214285Y-128500000D01*
X133261904Y-128547619D01*
X133309523Y-128642857D01*
X133309523Y-128785714D01*
X133261904Y-128880952D01*
X133214285Y-128928571D01*
X133119047Y-128976190D01*
X132738095Y-128976190D01*
D15*
%TO.C,R23*%
D11*
X133609523Y-114952380D02*
X133276190Y-114476190D01*
X133038095Y-114952380D02*
X133038095Y-113952380D01*
X133419047Y-113952380D01*
X133514285Y-114000000D01*
X133561904Y-114047619D01*
X133609523Y-114142857D01*
X133609523Y-114285714D01*
X133561904Y-114380952D01*
X133514285Y-114428571D01*
X133419047Y-114476190D01*
X133038095Y-114476190D01*
D15*
%TO.C,R24*%
D11*
X133609523Y-117352380D02*
X133276190Y-116876190D01*
X133038095Y-117352380D02*
X133038095Y-116352380D01*
X133419047Y-116352380D01*
X133514285Y-116400000D01*
X133561904Y-116447619D01*
X133609523Y-116542857D01*
X133609523Y-116685714D01*
X133561904Y-116780952D01*
X133514285Y-116828571D01*
X133419047Y-116876190D01*
X133038095Y-116876190D01*
D15*
%TO.C,R25*%
D11*
X133609523Y-119552380D02*
X133276190Y-119076190D01*
X133038095Y-119552380D02*
X133038095Y-118552380D01*
X133419047Y-118552380D01*
X133514285Y-118600000D01*
X133561904Y-118647619D01*
X133609523Y-118742857D01*
X133609523Y-118885714D01*
X133561904Y-118980952D01*
X133514285Y-119028571D01*
X133419047Y-119076190D01*
X133038095Y-119076190D01*
D15*
%TO.C,U2*%
D11*
X125247619Y-106504761D02*
X125390476Y-106552380D01*
X125628571Y-106552380D01*
X125723809Y-106504761D01*
X125771428Y-106457142D01*
X125819047Y-106361904D01*
X125819047Y-106266666D01*
X125771428Y-106171428D01*
X125723809Y-106123809D01*
X125628571Y-106076190D01*
X125438095Y-106028571D01*
X125342857Y-105980952D01*
X125295238Y-105933333D01*
X125247619Y-105838095D01*
X125247619Y-105742857D01*
X125295238Y-105647619D01*
X125342857Y-105600000D01*
X125438095Y-105552380D01*
X125676190Y-105552380D01*
X125819047Y-105600000D01*
X126104761Y-105552380D02*
X126676190Y-105552380D01*
X126390476Y-106552380D02*
X126390476Y-105552380D01*
X127009523Y-106552380D02*
X127009523Y-105552380D01*
X127342857Y-106266666D01*
X127676190Y-105552380D01*
X127676190Y-106552380D01*
X128057142Y-105552380D02*
X128676190Y-105552380D01*
X128342857Y-105933333D01*
X128485714Y-105933333D01*
X128580952Y-105980952D01*
X128628571Y-106028571D01*
X128676190Y-106123809D01*
X128676190Y-106361904D01*
X128628571Y-106457142D01*
X128580952Y-106504761D01*
X128485714Y-106552380D01*
X128200000Y-106552380D01*
X128104761Y-106504761D01*
X128057142Y-106457142D01*
X129057142Y-105647619D02*
X129104761Y-105600000D01*
X129200000Y-105552380D01*
X129438095Y-105552380D01*
X129533333Y-105600000D01*
X129580952Y-105647619D01*
X129628571Y-105742857D01*
X129628571Y-105838095D01*
X129580952Y-105980952D01*
X129009523Y-106552380D01*
X129628571Y-106552380D01*
X130580952Y-105600000D02*
X130485714Y-105552380D01*
X130342857Y-105552380D01*
X130200000Y-105600000D01*
X130104761Y-105695238D01*
X130057142Y-105790476D01*
X130009523Y-105980952D01*
X130009523Y-106123809D01*
X130057142Y-106314285D01*
X130104761Y-106409523D01*
X130200000Y-106504761D01*
X130342857Y-106552380D01*
X130438095Y-106552380D01*
X130580952Y-106504761D01*
X130628571Y-106457142D01*
X130628571Y-106123809D01*
X130438095Y-106123809D01*
X131247619Y-105552380D02*
X131342857Y-105552380D01*
X131438095Y-105600000D01*
X131485714Y-105647619D01*
X131533333Y-105742857D01*
X131580952Y-105933333D01*
X131580952Y-106171428D01*
X131533333Y-106361904D01*
X131485714Y-106457142D01*
X131438095Y-106504761D01*
X131342857Y-106552380D01*
X131247619Y-106552380D01*
X131152380Y-106504761D01*
X131104761Y-106457142D01*
X131057142Y-106361904D01*
X131009523Y-106171428D01*
X131009523Y-105933333D01*
X131057142Y-105742857D01*
X131104761Y-105647619D01*
X131152380Y-105600000D01*
X131247619Y-105552380D01*
X131914285Y-105552380D02*
X132533333Y-105552380D01*
X132200000Y-105933333D01*
X132342857Y-105933333D01*
X132438095Y-105980952D01*
X132485714Y-106028571D01*
X132533333Y-106123809D01*
X132533333Y-106361904D01*
X132485714Y-106457142D01*
X132438095Y-106504761D01*
X132342857Y-106552380D01*
X132057142Y-106552380D01*
X131961904Y-106504761D01*
X131914285Y-106457142D01*
X133152380Y-105552380D02*
X133247619Y-105552380D01*
X133342857Y-105600000D01*
X133390476Y-105647619D01*
X133438095Y-105742857D01*
X133485714Y-105933333D01*
X133485714Y-106171428D01*
X133438095Y-106361904D01*
X133390476Y-106457142D01*
X133342857Y-106504761D01*
X133247619Y-106552380D01*
X133152380Y-106552380D01*
X133057142Y-106504761D01*
X133009523Y-106457142D01*
X132961904Y-106361904D01*
X132914285Y-106171428D01*
X132914285Y-105933333D01*
X132961904Y-105742857D01*
X133009523Y-105647619D01*
X133057142Y-105600000D01*
X133152380Y-105552380D01*
X134485714Y-106457142D02*
X134438095Y-106504761D01*
X134295238Y-106552380D01*
X134200000Y-106552380D01*
X134057142Y-106504761D01*
X133961904Y-106409523D01*
X133914285Y-106314285D01*
X133866666Y-106123809D01*
X133866666Y-105980952D01*
X133914285Y-105790476D01*
X133961904Y-105695238D01*
X134057142Y-105600000D01*
X134200000Y-105552380D01*
X134295238Y-105552380D01*
X134438095Y-105600000D01*
X134485714Y-105647619D01*
X135342857Y-105552380D02*
X135152380Y-105552380D01*
X135057142Y-105600000D01*
X135009523Y-105647619D01*
X134914285Y-105790476D01*
X134866666Y-105980952D01*
X134866666Y-106361904D01*
X134914285Y-106457142D01*
X134961904Y-106504761D01*
X135057142Y-106552380D01*
X135247619Y-106552380D01*
X135342857Y-106504761D01*
X135390476Y-106457142D01*
X135438095Y-106361904D01*
X135438095Y-106123809D01*
X135390476Y-106028571D01*
X135342857Y-105980952D01*
X135247619Y-105933333D01*
X135057142Y-105933333D01*
X134961904Y-105980952D01*
X134914285Y-106028571D01*
X134866666Y-106123809D01*
X135723809Y-105552380D02*
X136295238Y-105552380D01*
X136009523Y-106552380D02*
X136009523Y-105552380D01*
X137057142Y-105552380D02*
X136866666Y-105552380D01*
X136771428Y-105600000D01*
X136723809Y-105647619D01*
X136628571Y-105790476D01*
X136580952Y-105980952D01*
X136580952Y-106361904D01*
X136628571Y-106457142D01*
X136676190Y-106504761D01*
X136771428Y-106552380D01*
X136961904Y-106552380D01*
X137057142Y-106504761D01*
X137104761Y-106457142D01*
X137152380Y-106361904D01*
X137152380Y-106123809D01*
X137104761Y-106028571D01*
X137057142Y-105980952D01*
X136961904Y-105933333D01*
X136771428Y-105933333D01*
X136676190Y-105980952D01*
X136628571Y-106028571D01*
X136580952Y-106123809D01*
%TO.C,C1*%
X129309523Y-82157142D02*
X129261904Y-82204761D01*
X129119047Y-82252380D01*
X129023809Y-82252380D01*
X128880952Y-82204761D01*
X128785714Y-82109523D01*
X128738095Y-82014285D01*
X128690476Y-81823809D01*
X128690476Y-81680952D01*
X128738095Y-81490476D01*
X128785714Y-81395238D01*
X128880952Y-81300000D01*
X129023809Y-81252380D01*
X129119047Y-81252380D01*
X129261904Y-81300000D01*
X129309523Y-81347619D01*
D15*
%TO.C,C2*%
D11*
X99909523Y-100357142D02*
X99861904Y-100404761D01*
X99719047Y-100452380D01*
X99623809Y-100452380D01*
X99480952Y-100404761D01*
X99385714Y-100309523D01*
X99338095Y-100214285D01*
X99290476Y-100023809D01*
X99290476Y-99880952D01*
X99338095Y-99690476D01*
X99385714Y-99595238D01*
X99480952Y-99500000D01*
X99623809Y-99452380D01*
X99719047Y-99452380D01*
X99861904Y-99500000D01*
X99909523Y-99547619D01*
D15*
%TO.C,D1*%
D11*
X90252380Y-86061904D02*
X89252380Y-86061904D01*
X89252380Y-85823809D01*
X89300000Y-85680952D01*
X89395238Y-85585714D01*
X89490476Y-85538095D01*
X89680952Y-85490476D01*
X89823809Y-85490476D01*
X90014285Y-85538095D01*
X90109523Y-85585714D01*
X90204761Y-85680952D01*
X90252380Y-85823809D01*
X90252380Y-86061904D01*
%TO.C,J5*%
X81107142Y-88369047D02*
X81154761Y-88416666D01*
X81202380Y-88559523D01*
X81202380Y-88654761D01*
X81154761Y-88797619D01*
X81059523Y-88892857D01*
X80964285Y-88940476D01*
X80773809Y-88988095D01*
X80630952Y-88988095D01*
X80440476Y-88940476D01*
X80345238Y-88892857D01*
X80250000Y-88797619D01*
X80202380Y-88654761D01*
X80202380Y-88559523D01*
X80250000Y-88416666D01*
X80297619Y-88369047D01*
X80202380Y-87750000D02*
X80202380Y-87559523D01*
X80250000Y-87464285D01*
X80345238Y-87369047D01*
X80535714Y-87321428D01*
X80869047Y-87321428D01*
X81059523Y-87369047D01*
X81154761Y-87464285D01*
X81202380Y-87559523D01*
X81202380Y-87750000D01*
X81154761Y-87845238D01*
X81059523Y-87940476D01*
X80869047Y-87988095D01*
X80535714Y-87988095D01*
X80345238Y-87940476D01*
X80250000Y-87845238D01*
X80202380Y-87750000D01*
X81202380Y-86892857D02*
X80202380Y-86892857D01*
X81202380Y-86321428D01*
X80202380Y-86321428D01*
X81202380Y-85845238D02*
X80202380Y-85845238D01*
X81202380Y-85273809D01*
X80202380Y-85273809D01*
X81297619Y-85035714D02*
X81297619Y-84273809D01*
X80297619Y-84083333D02*
X80250000Y-84035714D01*
X80202380Y-83940476D01*
X80202380Y-83702380D01*
X80250000Y-83607142D01*
X80297619Y-83559523D01*
X80392857Y-83511904D01*
X80488095Y-83511904D01*
X80630952Y-83559523D01*
X81202380Y-84130952D01*
X81202380Y-83511904D01*
%TO.C,R1*%
X131052380Y-103590476D02*
X130576190Y-103923809D01*
X131052380Y-104161904D02*
X130052380Y-104161904D01*
X130052380Y-103780952D01*
X130100000Y-103685714D01*
X130147619Y-103638095D01*
X130242857Y-103590476D01*
X130385714Y-103590476D01*
X130480952Y-103638095D01*
X130528571Y-103685714D01*
X130576190Y-103780952D01*
X130576190Y-104161904D01*
D15*
%TO.C,R2*%
D11*
X128352380Y-96290476D02*
X127876190Y-96623809D01*
X128352380Y-96861904D02*
X127352380Y-96861904D01*
X127352380Y-96480952D01*
X127400000Y-96385714D01*
X127447619Y-96338095D01*
X127542857Y-96290476D01*
X127685714Y-96290476D01*
X127780952Y-96338095D01*
X127828571Y-96385714D01*
X127876190Y-96480952D01*
X127876190Y-96861904D01*
D15*
%TO.C,R3*%
D11*
X189809523Y-78052380D02*
X189476190Y-77576190D01*
X189238095Y-78052380D02*
X189238095Y-77052380D01*
X189619047Y-77052380D01*
X189714285Y-77100000D01*
X189761904Y-77147619D01*
X189809523Y-77242857D01*
X189809523Y-77385714D01*
X189761904Y-77480952D01*
X189714285Y-77528571D01*
X189619047Y-77576190D01*
X189238095Y-77576190D01*
D15*
%TO.C,R4*%
D11*
X160409523Y-116452380D02*
X160076190Y-115976190D01*
X159838095Y-116452380D02*
X159838095Y-115452380D01*
X160219047Y-115452380D01*
X160314285Y-115500000D01*
X160361904Y-115547619D01*
X160409523Y-115642857D01*
X160409523Y-115785714D01*
X160361904Y-115880952D01*
X160314285Y-115928571D01*
X160219047Y-115976190D01*
X159838095Y-115976190D01*
D15*
%TO.C,R5*%
D11*
X211909523Y-81952380D02*
X211576190Y-81476190D01*
X211338095Y-81952380D02*
X211338095Y-80952380D01*
X211719047Y-80952380D01*
X211814285Y-81000000D01*
X211861904Y-81047619D01*
X211909523Y-81142857D01*
X211909523Y-81285714D01*
X211861904Y-81380952D01*
X211814285Y-81428571D01*
X211719047Y-81476190D01*
X211338095Y-81476190D01*
D15*
%TO.C,R6*%
D11*
X160609523Y-93952380D02*
X160276190Y-93476190D01*
X160038095Y-93952380D02*
X160038095Y-92952380D01*
X160419047Y-92952380D01*
X160514285Y-93000000D01*
X160561904Y-93047619D01*
X160609523Y-93142857D01*
X160609523Y-93285714D01*
X160561904Y-93380952D01*
X160514285Y-93428571D01*
X160419047Y-93476190D01*
X160038095Y-93476190D01*
D15*
X160333333Y-87280952D02*
X160200000Y-87090476D01*
X160104761Y-87280952D02*
X160104761Y-86880952D01*
X160257142Y-86880952D01*
X160295238Y-86900000D01*
X160314285Y-86919047D01*
X160333333Y-86957142D01*
X160333333Y-87014285D01*
X160314285Y-87052380D01*
X160295238Y-87071428D01*
X160257142Y-87090476D01*
X160104761Y-87090476D01*
X160676190Y-86880952D02*
X160600000Y-86880952D01*
X160561904Y-86900000D01*
X160542857Y-86919047D01*
X160504761Y-86976190D01*
X160485714Y-87052380D01*
X160485714Y-87204761D01*
X160504761Y-87242857D01*
X160523809Y-87261904D01*
X160561904Y-87280952D01*
X160638095Y-87280952D01*
X160676190Y-87261904D01*
X160695238Y-87242857D01*
X160714285Y-87204761D01*
X160714285Y-87109523D01*
X160695238Y-87071428D01*
X160676190Y-87052380D01*
X160638095Y-87033333D01*
X160561904Y-87033333D01*
X160523809Y-87052380D01*
X160504761Y-87071428D01*
X160485714Y-87109523D01*
%TO.C,C8*%
D11*
X109067142Y-82090476D02*
X109114761Y-82138095D01*
X109162380Y-82280952D01*
X109162380Y-82376190D01*
X109114761Y-82519047D01*
X109019523Y-82614285D01*
X108924285Y-82661904D01*
X108733809Y-82709523D01*
X108590952Y-82709523D01*
X108400476Y-82661904D01*
X108305238Y-82614285D01*
X108210000Y-82519047D01*
X108162380Y-82376190D01*
X108162380Y-82280952D01*
X108210000Y-82138095D01*
X108257619Y-82090476D01*
%TO.C,JS-1*%
X184580952Y-124457142D02*
X184533333Y-124504761D01*
X184390476Y-124552380D01*
X184295238Y-124552380D01*
X184152380Y-124504761D01*
X184057142Y-124409523D01*
X184009523Y-124314285D01*
X183961904Y-124123809D01*
X183961904Y-123980952D01*
X184009523Y-123790476D01*
X184057142Y-123695238D01*
X184152380Y-123600000D01*
X184295238Y-123552380D01*
X184390476Y-123552380D01*
X184533333Y-123600000D01*
X184580952Y-123647619D01*
X185200000Y-123552380D02*
X185390476Y-123552380D01*
X185485714Y-123600000D01*
X185580952Y-123695238D01*
X185628571Y-123885714D01*
X185628571Y-124219047D01*
X185580952Y-124409523D01*
X185485714Y-124504761D01*
X185390476Y-124552380D01*
X185200000Y-124552380D01*
X185104761Y-124504761D01*
X185009523Y-124409523D01*
X184961904Y-124219047D01*
X184961904Y-123885714D01*
X185009523Y-123695238D01*
X185104761Y-123600000D01*
X185200000Y-123552380D01*
X186057142Y-124552380D02*
X186057142Y-123552380D01*
X186628571Y-124552380D01*
X186628571Y-123552380D01*
X187104761Y-124552380D02*
X187104761Y-123552380D01*
X187676190Y-124552380D01*
X187676190Y-123552380D01*
X187914285Y-124647619D02*
X188676190Y-124647619D01*
X188819047Y-123552380D02*
X189485714Y-123552380D01*
X189057142Y-124552380D01*
%TO.C,JS-2*%
X164880952Y-120697142D02*
X164833333Y-120744761D01*
X164690476Y-120792380D01*
X164595238Y-120792380D01*
X164452380Y-120744761D01*
X164357142Y-120649523D01*
X164309523Y-120554285D01*
X164261904Y-120363809D01*
X164261904Y-120220952D01*
X164309523Y-120030476D01*
X164357142Y-119935238D01*
X164452380Y-119840000D01*
X164595238Y-119792380D01*
X164690476Y-119792380D01*
X164833333Y-119840000D01*
X164880952Y-119887619D01*
X165500000Y-119792380D02*
X165690476Y-119792380D01*
X165785714Y-119840000D01*
X165880952Y-119935238D01*
X165928571Y-120125714D01*
X165928571Y-120459047D01*
X165880952Y-120649523D01*
X165785714Y-120744761D01*
X165690476Y-120792380D01*
X165500000Y-120792380D01*
X165404761Y-120744761D01*
X165309523Y-120649523D01*
X165261904Y-120459047D01*
X165261904Y-120125714D01*
X165309523Y-119935238D01*
X165404761Y-119840000D01*
X165500000Y-119792380D01*
X166357142Y-120792380D02*
X166357142Y-119792380D01*
X166928571Y-120792380D01*
X166928571Y-119792380D01*
X167404761Y-120792380D02*
X167404761Y-119792380D01*
X167976190Y-120792380D01*
X167976190Y-119792380D01*
X168214285Y-120887619D02*
X168976190Y-120887619D01*
X169642857Y-119792380D02*
X169452380Y-119792380D01*
X169357142Y-119840000D01*
X169309523Y-119887619D01*
X169214285Y-120030476D01*
X169166666Y-120220952D01*
X169166666Y-120601904D01*
X169214285Y-120697142D01*
X169261904Y-120744761D01*
X169357142Y-120792380D01*
X169547619Y-120792380D01*
X169642857Y-120744761D01*
X169690476Y-120697142D01*
X169738095Y-120601904D01*
X169738095Y-120363809D01*
X169690476Y-120268571D01*
X169642857Y-120220952D01*
X169547619Y-120173333D01*
X169357142Y-120173333D01*
X169261904Y-120220952D01*
X169214285Y-120268571D01*
X169166666Y-120363809D01*
%TO.C,JS-3*%
X168257142Y-78119047D02*
X168304761Y-78166666D01*
X168352380Y-78309523D01*
X168352380Y-78404761D01*
X168304761Y-78547619D01*
X168209523Y-78642857D01*
X168114285Y-78690476D01*
X167923809Y-78738095D01*
X167780952Y-78738095D01*
X167590476Y-78690476D01*
X167495238Y-78642857D01*
X167400000Y-78547619D01*
X167352380Y-78404761D01*
X167352380Y-78309523D01*
X167400000Y-78166666D01*
X167447619Y-78119047D01*
X167352380Y-77500000D02*
X167352380Y-77309523D01*
X167400000Y-77214285D01*
X167495238Y-77119047D01*
X167685714Y-77071428D01*
X168019047Y-77071428D01*
X168209523Y-77119047D01*
X168304761Y-77214285D01*
X168352380Y-77309523D01*
X168352380Y-77500000D01*
X168304761Y-77595238D01*
X168209523Y-77690476D01*
X168019047Y-77738095D01*
X167685714Y-77738095D01*
X167495238Y-77690476D01*
X167400000Y-77595238D01*
X167352380Y-77500000D01*
X168352380Y-76642857D02*
X167352380Y-76642857D01*
X168352380Y-76071428D01*
X167352380Y-76071428D01*
X168352380Y-75595238D02*
X167352380Y-75595238D01*
X168352380Y-75023809D01*
X167352380Y-75023809D01*
X168447619Y-74785714D02*
X168447619Y-74023809D01*
X167685714Y-73357142D02*
X168352380Y-73357142D01*
X167304761Y-73595238D02*
X168019047Y-73833333D01*
X168019047Y-73214285D01*
%TO.C,JS-4*%
X205457142Y-78119047D02*
X205504761Y-78166666D01*
X205552380Y-78309523D01*
X205552380Y-78404761D01*
X205504761Y-78547619D01*
X205409523Y-78642857D01*
X205314285Y-78690476D01*
X205123809Y-78738095D01*
X204980952Y-78738095D01*
X204790476Y-78690476D01*
X204695238Y-78642857D01*
X204600000Y-78547619D01*
X204552380Y-78404761D01*
X204552380Y-78309523D01*
X204600000Y-78166666D01*
X204647619Y-78119047D01*
X204552380Y-77500000D02*
X204552380Y-77309523D01*
X204600000Y-77214285D01*
X204695238Y-77119047D01*
X204885714Y-77071428D01*
X205219047Y-77071428D01*
X205409523Y-77119047D01*
X205504761Y-77214285D01*
X205552380Y-77309523D01*
X205552380Y-77500000D01*
X205504761Y-77595238D01*
X205409523Y-77690476D01*
X205219047Y-77738095D01*
X204885714Y-77738095D01*
X204695238Y-77690476D01*
X204600000Y-77595238D01*
X204552380Y-77500000D01*
X205552380Y-76642857D02*
X204552380Y-76642857D01*
X205552380Y-76071428D01*
X204552380Y-76071428D01*
X205552380Y-75595238D02*
X204552380Y-75595238D01*
X205552380Y-75023809D01*
X204552380Y-75023809D01*
X205647619Y-74785714D02*
X205647619Y-74023809D01*
X204885714Y-73357142D02*
X205552380Y-73357142D01*
X204504761Y-73595238D02*
X205219047Y-73833333D01*
X205219047Y-73214285D01*
%TO.C,*%
%TO.C,L1*%
X114909523Y-123602380D02*
X114433333Y-123602380D01*
X114433333Y-122602380D01*
D16*
X114516666Y-121826190D02*
X114278571Y-121826190D01*
X114278571Y-121326190D01*
X114945238Y-121826190D02*
X114659523Y-121826190D01*
X114802380Y-121826190D02*
X114802380Y-121326190D01*
X114754761Y-121397619D01*
X114707142Y-121445238D01*
X114659523Y-121469047D01*
%TD*%
M02*
