M48
; DRILL file {KiCad (5.1.10)-1} date 09/03/22 16:46:30
; FORMAT={-:-/ absolute / inch / decimal}
; #@! TF.CreationDate,2022-09-03T16:46:30+05:30
; #@! TF.GenerationSoftware,Kicad,Pcbnew,(5.1.10)-1
; #@! TF.FileFunction,NonPlated,1,2,NPTH
FMAT,2
INCH
T1C0.0433
T2C0.0551
T3C0.0591
T4C0.0630
T5C0.0866
%
G90
G05
T1
X5.7441Y-3.626
X5.748Y-4.5709
X6.685Y-3.626
X6.685Y-4.5709
X7.6142Y-3.626
X7.6142Y-4.5709
T2
X5.748Y-3.2953
X5.752Y-4.2402
X6.689Y-3.2953
X6.689Y-4.2402
X7.6181Y-3.2953
X7.6181Y-4.2402
T3
X6.0945Y-3.6417
X6.0984Y-4.5866
X7.0354Y-3.6417
X7.0354Y-4.5866
X7.9646Y-3.6417
X7.9646Y-4.5866
T4
X5.9213Y-3.2913
X5.9213Y-3.6457
X5.9252Y-4.2362
X5.9252Y-4.5906
X6.8622Y-3.2913
X6.8622Y-3.6457
X6.8622Y-4.2362
X6.8622Y-4.5906
X7.7913Y-3.2913
X7.7913Y-3.6457
X7.7913Y-4.2362
X7.7913Y-4.5906
X8.7283Y-3.2953
X8.7283Y-3.6496
X8.7283Y-4.2402
X8.7283Y-4.5945
T5
X3.8563Y-2.9291
X3.8563Y-4.9567
X5.4508Y-3.9429
X6.3957Y-2.9291
X6.3957Y-3.9429
X6.3957Y-4.9567
X7.3406Y-2.9291
X7.3406Y-3.9429
X7.3406Y-4.9606
X8.2854Y-2.9291
X8.2854Y-3.9429
X8.2854Y-4.9567
X9.1319Y-3.9429
T0
M30
