%TF.GenerationSoftware,KiCad,Pcbnew,(5.1.10)-1*%
%TF.CreationDate,2022-09-03T16:46:32+05:30*%
%TF.ProjectId,ENC-nrf-301-02-REV05,454e432d-6e72-4662-9d33-30312d30322d,rev?*%
%TF.SameCoordinates,Original*%
%TF.FileFunction,Paste,Top*%
%TF.FilePolarity,Positive*%
%FSLAX46Y46*%
G04 Gerber Fmt 4.6, Leading zero omitted, Abs format (unit mm)*
G04 Created by KiCad (PCBNEW (5.1.10)-1) date 2022-09-03 16:46:32*
%MOMM*%
%LPD*%
G01*
G04 APERTURE LIST*
%ADD10C,0.100000*%
%ADD11O,0.599999X0.240000*%
%ADD12R,0.900000X0.500000*%
%ADD13R,0.900000X0.800000*%
%ADD14R,0.500000X0.900000*%
%ADD15R,1.300000X0.250000*%
%ADD16R,0.250000X1.300000*%
%ADD17R,0.800000X0.700000*%
G04 APERTURE END LIST*
D10*
%TO.C,IC1*%
G36*
X113829999Y-118864999D02*
G01*
X115329998Y-118864999D01*
X115329998Y-117800000D01*
X113829999Y-117800000D01*
X113829999Y-118864999D01*
G37*
X113829999Y-118864999D02*
X115329998Y-118864999D01*
X115329998Y-117800000D01*
X113829999Y-117800000D01*
X113829999Y-118864999D01*
G36*
X113829999Y-117600003D02*
G01*
X115329998Y-117600003D01*
X115329998Y-116535004D01*
X113829999Y-116535004D01*
X113829999Y-117600003D01*
G37*
X113829999Y-117600003D02*
X115329998Y-117600003D01*
X115329998Y-116535004D01*
X113829999Y-116535004D01*
X113829999Y-117600003D01*
%TD*%
%TO.C,R16*%
G36*
G01*
X117425000Y-105675000D02*
X117425000Y-105125000D01*
G75*
G02*
X117625000Y-104925000I200000J0D01*
G01*
X118025000Y-104925000D01*
G75*
G02*
X118225000Y-105125000I0J-200000D01*
G01*
X118225000Y-105675000D01*
G75*
G02*
X118025000Y-105875000I-200000J0D01*
G01*
X117625000Y-105875000D01*
G75*
G02*
X117425000Y-105675000I0J200000D01*
G01*
G37*
G36*
G01*
X115775000Y-105675000D02*
X115775000Y-105125000D01*
G75*
G02*
X115975000Y-104925000I200000J0D01*
G01*
X116375000Y-104925000D01*
G75*
G02*
X116575000Y-105125000I0J-200000D01*
G01*
X116575000Y-105675000D01*
G75*
G02*
X116375000Y-105875000I-200000J0D01*
G01*
X115975000Y-105875000D01*
G75*
G02*
X115775000Y-105675000I0J200000D01*
G01*
G37*
%TD*%
%TO.C,R15*%
G36*
G01*
X117425000Y-102375000D02*
X117425000Y-101825000D01*
G75*
G02*
X117625000Y-101625000I200000J0D01*
G01*
X118025000Y-101625000D01*
G75*
G02*
X118225000Y-101825000I0J-200000D01*
G01*
X118225000Y-102375000D01*
G75*
G02*
X118025000Y-102575000I-200000J0D01*
G01*
X117625000Y-102575000D01*
G75*
G02*
X117425000Y-102375000I0J200000D01*
G01*
G37*
G36*
G01*
X115775000Y-102375000D02*
X115775000Y-101825000D01*
G75*
G02*
X115975000Y-101625000I200000J0D01*
G01*
X116375000Y-101625000D01*
G75*
G02*
X116575000Y-101825000I0J-200000D01*
G01*
X116575000Y-102375000D01*
G75*
G02*
X116375000Y-102575000I-200000J0D01*
G01*
X115975000Y-102575000D01*
G75*
G02*
X115775000Y-102375000I0J200000D01*
G01*
G37*
%TD*%
%TO.C,R17*%
G36*
G01*
X117325000Y-98975000D02*
X117325000Y-98425000D01*
G75*
G02*
X117525000Y-98225000I200000J0D01*
G01*
X117925000Y-98225000D01*
G75*
G02*
X118125000Y-98425000I0J-200000D01*
G01*
X118125000Y-98975000D01*
G75*
G02*
X117925000Y-99175000I-200000J0D01*
G01*
X117525000Y-99175000D01*
G75*
G02*
X117325000Y-98975000I0J200000D01*
G01*
G37*
G36*
G01*
X115675000Y-98975000D02*
X115675000Y-98425000D01*
G75*
G02*
X115875000Y-98225000I200000J0D01*
G01*
X116275000Y-98225000D01*
G75*
G02*
X116475000Y-98425000I0J-200000D01*
G01*
X116475000Y-98975000D01*
G75*
G02*
X116275000Y-99175000I-200000J0D01*
G01*
X115875000Y-99175000D01*
G75*
G02*
X115675000Y-98975000I0J200000D01*
G01*
G37*
%TD*%
%TO.C,R30*%
G36*
G01*
X119175000Y-120375000D02*
X118625000Y-120375000D01*
G75*
G02*
X118425000Y-120175000I0J200000D01*
G01*
X118425000Y-119775000D01*
G75*
G02*
X118625000Y-119575000I200000J0D01*
G01*
X119175000Y-119575000D01*
G75*
G02*
X119375000Y-119775000I0J-200000D01*
G01*
X119375000Y-120175000D01*
G75*
G02*
X119175000Y-120375000I-200000J0D01*
G01*
G37*
G36*
G01*
X119175000Y-122025000D02*
X118625000Y-122025000D01*
G75*
G02*
X118425000Y-121825000I0J200000D01*
G01*
X118425000Y-121425000D01*
G75*
G02*
X118625000Y-121225000I200000J0D01*
G01*
X119175000Y-121225000D01*
G75*
G02*
X119375000Y-121425000I0J-200000D01*
G01*
X119375000Y-121825000D01*
G75*
G02*
X119175000Y-122025000I-200000J0D01*
G01*
G37*
%TD*%
%TO.C,R28*%
G36*
G01*
X109425000Y-117725000D02*
X109975000Y-117725000D01*
G75*
G02*
X110175000Y-117925000I0J-200000D01*
G01*
X110175000Y-118325000D01*
G75*
G02*
X109975000Y-118525000I-200000J0D01*
G01*
X109425000Y-118525000D01*
G75*
G02*
X109225000Y-118325000I0J200000D01*
G01*
X109225000Y-117925000D01*
G75*
G02*
X109425000Y-117725000I200000J0D01*
G01*
G37*
G36*
G01*
X109425000Y-116075000D02*
X109975000Y-116075000D01*
G75*
G02*
X110175000Y-116275000I0J-200000D01*
G01*
X110175000Y-116675000D01*
G75*
G02*
X109975000Y-116875000I-200000J0D01*
G01*
X109425000Y-116875000D01*
G75*
G02*
X109225000Y-116675000I0J200000D01*
G01*
X109225000Y-116275000D01*
G75*
G02*
X109425000Y-116075000I200000J0D01*
G01*
G37*
%TD*%
%TO.C,R29*%
G36*
G01*
X119175000Y-116875000D02*
X118625000Y-116875000D01*
G75*
G02*
X118425000Y-116675000I0J200000D01*
G01*
X118425000Y-116275000D01*
G75*
G02*
X118625000Y-116075000I200000J0D01*
G01*
X119175000Y-116075000D01*
G75*
G02*
X119375000Y-116275000I0J-200000D01*
G01*
X119375000Y-116675000D01*
G75*
G02*
X119175000Y-116875000I-200000J0D01*
G01*
G37*
G36*
G01*
X119175000Y-118525000D02*
X118625000Y-118525000D01*
G75*
G02*
X118425000Y-118325000I0J200000D01*
G01*
X118425000Y-117925000D01*
G75*
G02*
X118625000Y-117725000I200000J0D01*
G01*
X119175000Y-117725000D01*
G75*
G02*
X119375000Y-117925000I0J-200000D01*
G01*
X119375000Y-118325000D01*
G75*
G02*
X119175000Y-118525000I-200000J0D01*
G01*
G37*
%TD*%
%TO.C,R27*%
G36*
G01*
X109975000Y-120375000D02*
X109425000Y-120375000D01*
G75*
G02*
X109225000Y-120175000I0J200000D01*
G01*
X109225000Y-119775000D01*
G75*
G02*
X109425000Y-119575000I200000J0D01*
G01*
X109975000Y-119575000D01*
G75*
G02*
X110175000Y-119775000I0J-200000D01*
G01*
X110175000Y-120175000D01*
G75*
G02*
X109975000Y-120375000I-200000J0D01*
G01*
G37*
G36*
G01*
X109975000Y-122025000D02*
X109425000Y-122025000D01*
G75*
G02*
X109225000Y-121825000I0J200000D01*
G01*
X109225000Y-121425000D01*
G75*
G02*
X109425000Y-121225000I200000J0D01*
G01*
X109975000Y-121225000D01*
G75*
G02*
X110175000Y-121425000I0J-200000D01*
G01*
X110175000Y-121825000D01*
G75*
G02*
X109975000Y-122025000I-200000J0D01*
G01*
G37*
%TD*%
%TO.C,C5*%
G36*
G01*
X121250000Y-120475000D02*
X120750000Y-120475000D01*
G75*
G02*
X120525000Y-120250000I0J225000D01*
G01*
X120525000Y-119800000D01*
G75*
G02*
X120750000Y-119575000I225000J0D01*
G01*
X121250000Y-119575000D01*
G75*
G02*
X121475000Y-119800000I0J-225000D01*
G01*
X121475000Y-120250000D01*
G75*
G02*
X121250000Y-120475000I-225000J0D01*
G01*
G37*
G36*
G01*
X121250000Y-122025000D02*
X120750000Y-122025000D01*
G75*
G02*
X120525000Y-121800000I0J225000D01*
G01*
X120525000Y-121350000D01*
G75*
G02*
X120750000Y-121125000I225000J0D01*
G01*
X121250000Y-121125000D01*
G75*
G02*
X121475000Y-121350000I0J-225000D01*
G01*
X121475000Y-121800000D01*
G75*
G02*
X121250000Y-122025000I-225000J0D01*
G01*
G37*
%TD*%
%TO.C,R26*%
G36*
G01*
X114925000Y-114875000D02*
X114925000Y-114325000D01*
G75*
G02*
X115125000Y-114125000I200000J0D01*
G01*
X115525000Y-114125000D01*
G75*
G02*
X115725000Y-114325000I0J-200000D01*
G01*
X115725000Y-114875000D01*
G75*
G02*
X115525000Y-115075000I-200000J0D01*
G01*
X115125000Y-115075000D01*
G75*
G02*
X114925000Y-114875000I0J200000D01*
G01*
G37*
G36*
G01*
X113275000Y-114875000D02*
X113275000Y-114325000D01*
G75*
G02*
X113475000Y-114125000I200000J0D01*
G01*
X113875000Y-114125000D01*
G75*
G02*
X114075000Y-114325000I0J-200000D01*
G01*
X114075000Y-114875000D01*
G75*
G02*
X113875000Y-115075000I-200000J0D01*
G01*
X113475000Y-115075000D01*
G75*
G02*
X113275000Y-114875000I0J200000D01*
G01*
G37*
%TD*%
%TO.C,C4*%
G36*
G01*
X107450000Y-117625000D02*
X107950000Y-117625000D01*
G75*
G02*
X108175000Y-117850000I0J-225000D01*
G01*
X108175000Y-118300000D01*
G75*
G02*
X107950000Y-118525000I-225000J0D01*
G01*
X107450000Y-118525000D01*
G75*
G02*
X107225000Y-118300000I0J225000D01*
G01*
X107225000Y-117850000D01*
G75*
G02*
X107450000Y-117625000I225000J0D01*
G01*
G37*
G36*
G01*
X107450000Y-116075000D02*
X107950000Y-116075000D01*
G75*
G02*
X108175000Y-116300000I0J-225000D01*
G01*
X108175000Y-116750000D01*
G75*
G02*
X107950000Y-116975000I-225000J0D01*
G01*
X107450000Y-116975000D01*
G75*
G02*
X107225000Y-116750000I0J225000D01*
G01*
X107225000Y-116300000D01*
G75*
G02*
X107450000Y-116075000I225000J0D01*
G01*
G37*
%TD*%
%TO.C,C3*%
G36*
G01*
X107950000Y-120475000D02*
X107450000Y-120475000D01*
G75*
G02*
X107225000Y-120250000I0J225000D01*
G01*
X107225000Y-119800000D01*
G75*
G02*
X107450000Y-119575000I225000J0D01*
G01*
X107950000Y-119575000D01*
G75*
G02*
X108175000Y-119800000I0J-225000D01*
G01*
X108175000Y-120250000D01*
G75*
G02*
X107950000Y-120475000I-225000J0D01*
G01*
G37*
G36*
G01*
X107950000Y-122025000D02*
X107450000Y-122025000D01*
G75*
G02*
X107225000Y-121800000I0J225000D01*
G01*
X107225000Y-121350000D01*
G75*
G02*
X107450000Y-121125000I225000J0D01*
G01*
X107950000Y-121125000D01*
G75*
G02*
X108175000Y-121350000I0J-225000D01*
G01*
X108175000Y-121800000D01*
G75*
G02*
X107950000Y-122025000I-225000J0D01*
G01*
G37*
%TD*%
D11*
%TO.C,IC1*%
X113180000Y-116700002D03*
X113180000Y-117200001D03*
X113180000Y-117700003D03*
X113180000Y-118200002D03*
X113180000Y-118700001D03*
X115980000Y-118700001D03*
X115980000Y-118200002D03*
X115980000Y-117700003D03*
X115980000Y-117200001D03*
X115980000Y-116700002D03*
%TD*%
D12*
%TO.C,R7*%
X147800000Y-83650000D03*
X147800000Y-85150000D03*
%TD*%
D13*
%TO.C,C6*%
X125000000Y-101250000D03*
X127000000Y-101250000D03*
%TD*%
%TO.C,C7*%
X123750000Y-86500000D03*
X125750000Y-86500000D03*
%TD*%
D14*
%TO.C,R8*%
X164950000Y-107200000D03*
X163450000Y-107200000D03*
%TD*%
%TO.C,R9*%
X158750000Y-88200000D03*
X157250000Y-88200000D03*
%TD*%
%TO.C,R10*%
X149150000Y-105200000D03*
X147650000Y-105200000D03*
%TD*%
%TO.C,R11*%
X188350000Y-93200000D03*
X186850000Y-93200000D03*
%TD*%
%TO.C,R12*%
X188350000Y-115000000D03*
X186850000Y-115000000D03*
%TD*%
%TO.C,R13*%
X188350000Y-107200000D03*
X186850000Y-107200000D03*
%TD*%
%TO.C,R14*%
X151850000Y-105600000D03*
X153350000Y-105600000D03*
%TD*%
%TO.C,R18*%
X132550000Y-110900000D03*
X134050000Y-110900000D03*
%TD*%
%TO.C,R19*%
X132550000Y-108900000D03*
X134050000Y-108900000D03*
%TD*%
%TO.C,R20*%
X132550000Y-120000000D03*
X134050000Y-120000000D03*
%TD*%
%TO.C,R21*%
X132550000Y-124700000D03*
X134050000Y-124700000D03*
%TD*%
%TO.C,R22*%
X132550000Y-122400000D03*
X134050000Y-122400000D03*
%TD*%
%TO.C,R23*%
X132550000Y-113000000D03*
X134050000Y-113000000D03*
%TD*%
%TO.C,R24*%
X132550000Y-115400000D03*
X134050000Y-115400000D03*
%TD*%
%TO.C,R25*%
X132550000Y-117600000D03*
X134050000Y-117600000D03*
%TD*%
D15*
%TO.C,U2*%
X129350000Y-87350000D03*
X129350000Y-87850000D03*
X129350000Y-88350000D03*
X129350000Y-88850000D03*
X129350000Y-89350000D03*
X129350000Y-89850000D03*
X129350000Y-90350000D03*
X129350000Y-90850000D03*
X129350000Y-91350000D03*
X129350000Y-91850000D03*
X129350000Y-92350000D03*
X129350000Y-92850000D03*
D16*
X130950000Y-94450000D03*
X131450000Y-94450000D03*
X131950000Y-94450000D03*
X132450000Y-94450000D03*
X132950000Y-94450000D03*
X133450000Y-94450000D03*
X133950000Y-94450000D03*
X134450000Y-94450000D03*
X134950000Y-94450000D03*
X135450000Y-94450000D03*
X135950000Y-94450000D03*
X136450000Y-94450000D03*
D15*
X138050000Y-92850000D03*
X138050000Y-92350000D03*
X138050000Y-91850000D03*
X138050000Y-91350000D03*
X138050000Y-90850000D03*
X138050000Y-90350000D03*
X138050000Y-89850000D03*
X138050000Y-89350000D03*
X138050000Y-88850000D03*
X138050000Y-88350000D03*
X138050000Y-87850000D03*
X138050000Y-87350000D03*
D16*
X136450000Y-85750000D03*
X135950000Y-85750000D03*
X135450000Y-85750000D03*
X134950000Y-85750000D03*
X134450000Y-85750000D03*
X133950000Y-85750000D03*
X133450000Y-85750000D03*
X132950000Y-85750000D03*
X132450000Y-85750000D03*
X131950000Y-85750000D03*
X131450000Y-85750000D03*
X130950000Y-85750000D03*
%TD*%
D17*
%TO.C,C1*%
X116800000Y-90000000D03*
X118600000Y-90000000D03*
%TD*%
%TO.C,C2*%
X116800000Y-94400000D03*
X118600000Y-94400000D03*
%TD*%
D13*
%TO.C,D1*%
X97000000Y-85950000D03*
X97000000Y-88050000D03*
%TD*%
D12*
%TO.C,R1*%
X130400000Y-99250000D03*
X130400000Y-97750000D03*
%TD*%
%TO.C,R2*%
X128500000Y-99350000D03*
X128500000Y-97850000D03*
%TD*%
D14*
%TO.C,R3*%
X188750000Y-83000000D03*
X187250000Y-83000000D03*
%TD*%
%TO.C,R4*%
X164950000Y-115000000D03*
X163450000Y-115000000D03*
%TD*%
%TO.C,R5*%
X212350000Y-83000000D03*
X210850000Y-83000000D03*
%TD*%
%TO.C,R6*%
X160250000Y-88200000D03*
X161750000Y-88200000D03*
%TD*%
%TO.C,L1*%
G36*
G01*
X113100000Y-121981250D02*
X113100000Y-121218750D01*
G75*
G02*
X113318750Y-121000000I218750J0D01*
G01*
X113756250Y-121000000D01*
G75*
G02*
X113975000Y-121218750I0J-218750D01*
G01*
X113975000Y-121981250D01*
G75*
G02*
X113756250Y-122200000I-218750J0D01*
G01*
X113318750Y-122200000D01*
G75*
G02*
X113100000Y-121981250I0J218750D01*
G01*
G37*
G36*
G01*
X115225000Y-121981250D02*
X115225000Y-121218750D01*
G75*
G02*
X115443750Y-121000000I218750J0D01*
G01*
X115881250Y-121000000D01*
G75*
G02*
X116100000Y-121218750I0J-218750D01*
G01*
X116100000Y-121981250D01*
G75*
G02*
X115881250Y-122200000I-218750J0D01*
G01*
X115443750Y-122200000D01*
G75*
G02*
X115225000Y-121981250I0J218750D01*
G01*
G37*
%TD*%
M02*
