%TF.GenerationSoftware,KiCad,Pcbnew,(5.1.10)-1*%
%TF.CreationDate,2022-09-03T16:46:32+05:30*%
%TF.ProjectId,ENC-nrf-301-02-REV05,454e432d-6e72-4662-9d33-30312d30322d,rev?*%
%TF.SameCoordinates,Original*%
%TF.FileFunction,Soldermask,Top*%
%TF.FilePolarity,Negative*%
%FSLAX46Y46*%
G04 Gerber Fmt 4.6, Leading zero omitted, Abs format (unit mm)*
G04 Created by KiCad (PCBNEW (5.1.10)-1) date 2022-09-03 16:46:32*
%MOMM*%
%LPD*%
G01*
G04 APERTURE LIST*
%ADD10C,0.100000*%
%ADD11O,0.999999X0.640000*%
%ADD12C,2.000000*%
%ADD13C,2.400000*%
%ADD14C,1.500000*%
%ADD15C,1.800000*%
%ADD16C,1.900000*%
%ADD17C,2.600000*%
%ADD18O,2.600000X2.600000*%
%ADD19O,2.200000X1.470000*%
%ADD20C,2.250000*%
%ADD21O,1.900000X2.200000*%
%ADD22O,2.127200X2.432000*%
%ADD23C,0.800000*%
G04 APERTURE END LIST*
D10*
%TO.C,IC1*%
G36*
X114664201Y-116650803D02*
G01*
X114995801Y-116650803D01*
X114995801Y-116149203D01*
X114664201Y-116149203D01*
X114664201Y-116650803D01*
G37*
X114664201Y-116650803D02*
X114995801Y-116650803D01*
X114995801Y-116149203D01*
X114664201Y-116149203D01*
X114664201Y-116650803D01*
G36*
X114495802Y-116149203D02*
G01*
X114164202Y-116149203D01*
X114164202Y-116650803D01*
X114495802Y-116650803D01*
X114495802Y-116149203D01*
G37*
X114495802Y-116149203D02*
X114164202Y-116149203D01*
X114164202Y-116650803D01*
X114495802Y-116650803D01*
X114495802Y-116149203D01*
G36*
X114495802Y-118749198D02*
G01*
X114164202Y-118749198D01*
X114164202Y-119250797D01*
X114495802Y-119250797D01*
X114495802Y-118749198D01*
G37*
X114495802Y-118749198D02*
X114164202Y-118749198D01*
X114164202Y-119250797D01*
X114495802Y-119250797D01*
X114495802Y-118749198D01*
G36*
X114664201Y-119250797D02*
G01*
X114995801Y-119250797D01*
X114995801Y-118749198D01*
X114664201Y-118749198D01*
X114664201Y-119250797D01*
G37*
X114664201Y-119250797D02*
X114995801Y-119250797D01*
X114995801Y-118749198D01*
X114664201Y-118749198D01*
X114664201Y-119250797D01*
G36*
X116280000Y-118900003D02*
G01*
X115680000Y-118900003D01*
X115680000Y-116500003D01*
X116280000Y-116500003D01*
X116280000Y-118900003D01*
G37*
X116280000Y-118900003D02*
X115680000Y-118900003D01*
X115680000Y-116500003D01*
X116280000Y-116500003D01*
X116280000Y-118900003D01*
G36*
X113480000Y-118900003D02*
G01*
X112880000Y-118900003D01*
X112880000Y-116500003D01*
X113480000Y-116500003D01*
X113480000Y-118900003D01*
G37*
X113480000Y-118900003D02*
X112880000Y-118900003D01*
X112880000Y-116500003D01*
X113480000Y-116500003D01*
X113480000Y-118900003D01*
%TD*%
%TO.C,R16*%
G36*
G01*
X117225000Y-105775000D02*
X117225000Y-105025000D01*
G75*
G02*
X117525000Y-104725000I300000J0D01*
G01*
X118125000Y-104725000D01*
G75*
G02*
X118425000Y-105025000I0J-300000D01*
G01*
X118425000Y-105775000D01*
G75*
G02*
X118125000Y-106075000I-300000J0D01*
G01*
X117525000Y-106075000D01*
G75*
G02*
X117225000Y-105775000I0J300000D01*
G01*
G37*
G36*
G01*
X115575000Y-105775000D02*
X115575000Y-105025000D01*
G75*
G02*
X115875000Y-104725000I300000J0D01*
G01*
X116475000Y-104725000D01*
G75*
G02*
X116775000Y-105025000I0J-300000D01*
G01*
X116775000Y-105775000D01*
G75*
G02*
X116475000Y-106075000I-300000J0D01*
G01*
X115875000Y-106075000D01*
G75*
G02*
X115575000Y-105775000I0J300000D01*
G01*
G37*
%TD*%
%TO.C,R15*%
G36*
G01*
X117225000Y-102475000D02*
X117225000Y-101725000D01*
G75*
G02*
X117525000Y-101425000I300000J0D01*
G01*
X118125000Y-101425000D01*
G75*
G02*
X118425000Y-101725000I0J-300000D01*
G01*
X118425000Y-102475000D01*
G75*
G02*
X118125000Y-102775000I-300000J0D01*
G01*
X117525000Y-102775000D01*
G75*
G02*
X117225000Y-102475000I0J300000D01*
G01*
G37*
G36*
G01*
X115575000Y-102475000D02*
X115575000Y-101725000D01*
G75*
G02*
X115875000Y-101425000I300000J0D01*
G01*
X116475000Y-101425000D01*
G75*
G02*
X116775000Y-101725000I0J-300000D01*
G01*
X116775000Y-102475000D01*
G75*
G02*
X116475000Y-102775000I-300000J0D01*
G01*
X115875000Y-102775000D01*
G75*
G02*
X115575000Y-102475000I0J300000D01*
G01*
G37*
%TD*%
%TO.C,R17*%
G36*
G01*
X117125000Y-99075000D02*
X117125000Y-98325000D01*
G75*
G02*
X117425000Y-98025000I300000J0D01*
G01*
X118025000Y-98025000D01*
G75*
G02*
X118325000Y-98325000I0J-300000D01*
G01*
X118325000Y-99075000D01*
G75*
G02*
X118025000Y-99375000I-300000J0D01*
G01*
X117425000Y-99375000D01*
G75*
G02*
X117125000Y-99075000I0J300000D01*
G01*
G37*
G36*
G01*
X115475000Y-99075000D02*
X115475000Y-98325000D01*
G75*
G02*
X115775000Y-98025000I300000J0D01*
G01*
X116375000Y-98025000D01*
G75*
G02*
X116675000Y-98325000I0J-300000D01*
G01*
X116675000Y-99075000D01*
G75*
G02*
X116375000Y-99375000I-300000J0D01*
G01*
X115775000Y-99375000D01*
G75*
G02*
X115475000Y-99075000I0J300000D01*
G01*
G37*
%TD*%
%TO.C,R30*%
G36*
G01*
X119275000Y-120575000D02*
X118525000Y-120575000D01*
G75*
G02*
X118225000Y-120275000I0J300000D01*
G01*
X118225000Y-119675000D01*
G75*
G02*
X118525000Y-119375000I300000J0D01*
G01*
X119275000Y-119375000D01*
G75*
G02*
X119575000Y-119675000I0J-300000D01*
G01*
X119575000Y-120275000D01*
G75*
G02*
X119275000Y-120575000I-300000J0D01*
G01*
G37*
G36*
G01*
X119275000Y-122225000D02*
X118525000Y-122225000D01*
G75*
G02*
X118225000Y-121925000I0J300000D01*
G01*
X118225000Y-121325000D01*
G75*
G02*
X118525000Y-121025000I300000J0D01*
G01*
X119275000Y-121025000D01*
G75*
G02*
X119575000Y-121325000I0J-300000D01*
G01*
X119575000Y-121925000D01*
G75*
G02*
X119275000Y-122225000I-300000J0D01*
G01*
G37*
%TD*%
%TO.C,R28*%
G36*
G01*
X109325000Y-117525000D02*
X110075000Y-117525000D01*
G75*
G02*
X110375000Y-117825000I0J-300000D01*
G01*
X110375000Y-118425000D01*
G75*
G02*
X110075000Y-118725000I-300000J0D01*
G01*
X109325000Y-118725000D01*
G75*
G02*
X109025000Y-118425000I0J300000D01*
G01*
X109025000Y-117825000D01*
G75*
G02*
X109325000Y-117525000I300000J0D01*
G01*
G37*
G36*
G01*
X109325000Y-115875000D02*
X110075000Y-115875000D01*
G75*
G02*
X110375000Y-116175000I0J-300000D01*
G01*
X110375000Y-116775000D01*
G75*
G02*
X110075000Y-117075000I-300000J0D01*
G01*
X109325000Y-117075000D01*
G75*
G02*
X109025000Y-116775000I0J300000D01*
G01*
X109025000Y-116175000D01*
G75*
G02*
X109325000Y-115875000I300000J0D01*
G01*
G37*
%TD*%
%TO.C,R29*%
G36*
G01*
X119275000Y-117075000D02*
X118525000Y-117075000D01*
G75*
G02*
X118225000Y-116775000I0J300000D01*
G01*
X118225000Y-116175000D01*
G75*
G02*
X118525000Y-115875000I300000J0D01*
G01*
X119275000Y-115875000D01*
G75*
G02*
X119575000Y-116175000I0J-300000D01*
G01*
X119575000Y-116775000D01*
G75*
G02*
X119275000Y-117075000I-300000J0D01*
G01*
G37*
G36*
G01*
X119275000Y-118725000D02*
X118525000Y-118725000D01*
G75*
G02*
X118225000Y-118425000I0J300000D01*
G01*
X118225000Y-117825000D01*
G75*
G02*
X118525000Y-117525000I300000J0D01*
G01*
X119275000Y-117525000D01*
G75*
G02*
X119575000Y-117825000I0J-300000D01*
G01*
X119575000Y-118425000D01*
G75*
G02*
X119275000Y-118725000I-300000J0D01*
G01*
G37*
%TD*%
%TO.C,R27*%
G36*
G01*
X110075000Y-120575000D02*
X109325000Y-120575000D01*
G75*
G02*
X109025000Y-120275000I0J300000D01*
G01*
X109025000Y-119675000D01*
G75*
G02*
X109325000Y-119375000I300000J0D01*
G01*
X110075000Y-119375000D01*
G75*
G02*
X110375000Y-119675000I0J-300000D01*
G01*
X110375000Y-120275000D01*
G75*
G02*
X110075000Y-120575000I-300000J0D01*
G01*
G37*
G36*
G01*
X110075000Y-122225000D02*
X109325000Y-122225000D01*
G75*
G02*
X109025000Y-121925000I0J300000D01*
G01*
X109025000Y-121325000D01*
G75*
G02*
X109325000Y-121025000I300000J0D01*
G01*
X110075000Y-121025000D01*
G75*
G02*
X110375000Y-121325000I0J-300000D01*
G01*
X110375000Y-121925000D01*
G75*
G02*
X110075000Y-122225000I-300000J0D01*
G01*
G37*
%TD*%
%TO.C,C5*%
G36*
G01*
X121350000Y-120675000D02*
X120650000Y-120675000D01*
G75*
G02*
X120325000Y-120350000I0J325000D01*
G01*
X120325000Y-119700000D01*
G75*
G02*
X120650000Y-119375000I325000J0D01*
G01*
X121350000Y-119375000D01*
G75*
G02*
X121675000Y-119700000I0J-325000D01*
G01*
X121675000Y-120350000D01*
G75*
G02*
X121350000Y-120675000I-325000J0D01*
G01*
G37*
G36*
G01*
X121350000Y-122225000D02*
X120650000Y-122225000D01*
G75*
G02*
X120325000Y-121900000I0J325000D01*
G01*
X120325000Y-121250000D01*
G75*
G02*
X120650000Y-120925000I325000J0D01*
G01*
X121350000Y-120925000D01*
G75*
G02*
X121675000Y-121250000I0J-325000D01*
G01*
X121675000Y-121900000D01*
G75*
G02*
X121350000Y-122225000I-325000J0D01*
G01*
G37*
%TD*%
%TO.C,R26*%
G36*
G01*
X114725000Y-114975000D02*
X114725000Y-114225000D01*
G75*
G02*
X115025000Y-113925000I300000J0D01*
G01*
X115625000Y-113925000D01*
G75*
G02*
X115925000Y-114225000I0J-300000D01*
G01*
X115925000Y-114975000D01*
G75*
G02*
X115625000Y-115275000I-300000J0D01*
G01*
X115025000Y-115275000D01*
G75*
G02*
X114725000Y-114975000I0J300000D01*
G01*
G37*
G36*
G01*
X113075000Y-114975000D02*
X113075000Y-114225000D01*
G75*
G02*
X113375000Y-113925000I300000J0D01*
G01*
X113975000Y-113925000D01*
G75*
G02*
X114275000Y-114225000I0J-300000D01*
G01*
X114275000Y-114975000D01*
G75*
G02*
X113975000Y-115275000I-300000J0D01*
G01*
X113375000Y-115275000D01*
G75*
G02*
X113075000Y-114975000I0J300000D01*
G01*
G37*
%TD*%
%TO.C,C4*%
G36*
G01*
X107350000Y-117425000D02*
X108050000Y-117425000D01*
G75*
G02*
X108375000Y-117750000I0J-325000D01*
G01*
X108375000Y-118400000D01*
G75*
G02*
X108050000Y-118725000I-325000J0D01*
G01*
X107350000Y-118725000D01*
G75*
G02*
X107025000Y-118400000I0J325000D01*
G01*
X107025000Y-117750000D01*
G75*
G02*
X107350000Y-117425000I325000J0D01*
G01*
G37*
G36*
G01*
X107350000Y-115875000D02*
X108050000Y-115875000D01*
G75*
G02*
X108375000Y-116200000I0J-325000D01*
G01*
X108375000Y-116850000D01*
G75*
G02*
X108050000Y-117175000I-325000J0D01*
G01*
X107350000Y-117175000D01*
G75*
G02*
X107025000Y-116850000I0J325000D01*
G01*
X107025000Y-116200000D01*
G75*
G02*
X107350000Y-115875000I325000J0D01*
G01*
G37*
%TD*%
%TO.C,C3*%
G36*
G01*
X108050000Y-120675000D02*
X107350000Y-120675000D01*
G75*
G02*
X107025000Y-120350000I0J325000D01*
G01*
X107025000Y-119700000D01*
G75*
G02*
X107350000Y-119375000I325000J0D01*
G01*
X108050000Y-119375000D01*
G75*
G02*
X108375000Y-119700000I0J-325000D01*
G01*
X108375000Y-120350000D01*
G75*
G02*
X108050000Y-120675000I-325000J0D01*
G01*
G37*
G36*
G01*
X108050000Y-122225000D02*
X107350000Y-122225000D01*
G75*
G02*
X107025000Y-121900000I0J325000D01*
G01*
X107025000Y-121250000D01*
G75*
G02*
X107350000Y-120925000I325000J0D01*
G01*
X108050000Y-120925000D01*
G75*
G02*
X108375000Y-121250000I0J-325000D01*
G01*
X108375000Y-121900000D01*
G75*
G02*
X108050000Y-122225000I-325000J0D01*
G01*
G37*
%TD*%
D11*
%TO.C,IC1*%
X113180000Y-116700002D03*
X113180000Y-117200001D03*
X113180000Y-117700003D03*
X113180000Y-118200002D03*
X113180000Y-118700001D03*
X115980000Y-118700001D03*
X115980000Y-118200002D03*
X115980000Y-117700003D03*
X115980000Y-117200001D03*
X115980000Y-116700002D03*
G36*
G01*
X113555004Y-118900003D02*
X113555004Y-116500003D01*
G75*
G02*
X113755004Y-116300003I200000J0D01*
G01*
X115405002Y-116300003D01*
G75*
G02*
X115605002Y-116500003I0J-200000D01*
G01*
X115605002Y-118900003D01*
G75*
G02*
X115405002Y-119100003I-200000J0D01*
G01*
X113755004Y-119100003D01*
G75*
G02*
X113555004Y-118900003I0J200000D01*
G01*
G37*
%TD*%
D12*
%TO.C,SW12*%
X150500000Y-116600000D03*
D13*
X144250000Y-109600000D03*
D12*
X150500000Y-107600000D03*
D13*
X156750000Y-114600000D03*
X144250000Y-114600000D03*
X156750000Y-109600000D03*
%TD*%
D12*
%TO.C,SW9*%
X150400000Y-92600000D03*
D13*
X144150000Y-85600000D03*
D12*
X150400000Y-83600000D03*
D13*
X156650000Y-90600000D03*
X144150000Y-90600000D03*
X156650000Y-85600000D03*
%TD*%
D12*
%TO.C,SW8*%
X174300000Y-116600000D03*
D13*
X168050000Y-109600000D03*
D12*
X174300000Y-107600000D03*
D13*
X180550000Y-114600000D03*
X168050000Y-114600000D03*
X180550000Y-109600000D03*
%TD*%
D12*
%TO.C,SW21*%
X174300000Y-92600000D03*
D13*
X180550000Y-85600000D03*
D12*
X174300000Y-83600000D03*
D13*
X168050000Y-90600000D03*
X180550000Y-90600000D03*
X168050000Y-85600000D03*
%TD*%
D12*
%TO.C,SW1*%
X197900000Y-92600000D03*
D13*
X191650000Y-85600000D03*
D12*
X197900000Y-83600000D03*
D13*
X204150000Y-90600000D03*
X191650000Y-90600000D03*
X204150000Y-85600000D03*
%TD*%
D12*
%TO.C,SW4*%
X197900000Y-116600000D03*
D13*
X191650000Y-109600000D03*
D12*
X197900000Y-107600000D03*
D13*
X204150000Y-114600000D03*
X191650000Y-114600000D03*
X204150000Y-109600000D03*
%TD*%
D12*
%TO.C,SW22*%
X221700000Y-116700000D03*
D13*
X227950000Y-109700000D03*
D12*
X221700000Y-107700000D03*
D13*
X215450000Y-114700000D03*
X227950000Y-114700000D03*
X215450000Y-109700000D03*
%TD*%
D12*
%TO.C,SW6*%
X221700000Y-92700000D03*
D13*
X215450000Y-85700000D03*
D12*
X221700000Y-83700000D03*
D13*
X227950000Y-90700000D03*
X215450000Y-90700000D03*
X227950000Y-85700000D03*
%TD*%
D14*
%TO.C,SW10*%
X145900000Y-92100000D03*
D15*
X146000000Y-83700000D03*
D16*
X154800000Y-92500000D03*
D13*
X150400000Y-85600000D03*
X150400000Y-90600000D03*
X150400000Y-88100000D03*
%TD*%
D14*
%TO.C,SW11*%
X146000000Y-116100000D03*
D15*
X146100000Y-107700000D03*
D16*
X154900000Y-116500000D03*
D13*
X150500000Y-109600000D03*
X150500000Y-114600000D03*
X150500000Y-112100000D03*
%TD*%
D14*
%TO.C,SW5*%
X169800000Y-92100000D03*
D15*
X169900000Y-83700000D03*
D16*
X178700000Y-92500000D03*
D13*
X174300000Y-85600000D03*
X174300000Y-90600000D03*
X174300000Y-88100000D03*
%TD*%
D14*
%TO.C,SW7*%
X169800000Y-116100000D03*
D15*
X169900000Y-107700000D03*
D16*
X178700000Y-116500000D03*
D13*
X174300000Y-109600000D03*
X174300000Y-114600000D03*
X174300000Y-112100000D03*
%TD*%
D14*
%TO.C,SW2*%
X193400000Y-92100000D03*
D15*
X193500000Y-83700000D03*
D16*
X202300000Y-92500000D03*
D13*
X197900000Y-85600000D03*
X197900000Y-90600000D03*
X197900000Y-88100000D03*
%TD*%
D14*
%TO.C,SW3*%
X193400000Y-116100000D03*
D15*
X193500000Y-107700000D03*
D16*
X202300000Y-116500000D03*
D13*
X197900000Y-109600000D03*
X197900000Y-114600000D03*
X197900000Y-112100000D03*
%TD*%
D17*
%TO.C,SW_e1*%
X96000000Y-110100000D03*
D18*
X96000000Y-90100000D03*
%TD*%
%TO.C,D14*%
G36*
G01*
X107900000Y-97465000D02*
X109700000Y-97465000D01*
G75*
G02*
X109900000Y-97665000I0J-200000D01*
G01*
X109900000Y-98735000D01*
G75*
G02*
X109700000Y-98935000I-200000J0D01*
G01*
X107900000Y-98935000D01*
G75*
G02*
X107700000Y-98735000I0J200000D01*
G01*
X107700000Y-97665000D01*
G75*
G02*
X107900000Y-97465000I200000J0D01*
G01*
G37*
D19*
X108800000Y-99470000D03*
X108800000Y-100740000D03*
X108800000Y-102010000D03*
%TD*%
D17*
%TO.C,*%
X138450000Y-100150000D03*
%TD*%
%TO.C,R7*%
G36*
G01*
X147350000Y-83200000D02*
X148250000Y-83200000D01*
G75*
G02*
X148450000Y-83400000I0J-200000D01*
G01*
X148450000Y-83900000D01*
G75*
G02*
X148250000Y-84100000I-200000J0D01*
G01*
X147350000Y-84100000D01*
G75*
G02*
X147150000Y-83900000I0J200000D01*
G01*
X147150000Y-83400000D01*
G75*
G02*
X147350000Y-83200000I200000J0D01*
G01*
G37*
G36*
G01*
X147350000Y-84700000D02*
X148250000Y-84700000D01*
G75*
G02*
X148450000Y-84900000I0J-200000D01*
G01*
X148450000Y-85400000D01*
G75*
G02*
X148250000Y-85600000I-200000J0D01*
G01*
X147350000Y-85600000D01*
G75*
G02*
X147150000Y-85400000I0J200000D01*
G01*
X147150000Y-84900000D01*
G75*
G02*
X147350000Y-84700000I200000J0D01*
G01*
G37*
%TD*%
%TO.C,J1*%
G36*
G01*
X98600000Y-94200000D02*
X100200000Y-94200000D01*
G75*
G02*
X100400000Y-94400000I0J-200000D01*
G01*
X100400000Y-96000000D01*
G75*
G02*
X100200000Y-96200000I-200000J0D01*
G01*
X98600000Y-96200000D01*
G75*
G02*
X98400000Y-96000000I0J200000D01*
G01*
X98400000Y-94400000D01*
G75*
G02*
X98600000Y-94200000I200000J0D01*
G01*
G37*
D12*
X99400000Y-97700000D03*
X99400000Y-100200000D03*
X99400000Y-102700000D03*
X99400000Y-105200000D03*
X101900000Y-95200000D03*
X101900000Y-97700000D03*
X101900000Y-100200000D03*
X101900000Y-102700000D03*
X101900000Y-105200000D03*
%TD*%
%TO.C,C6*%
G36*
G01*
X125650000Y-100850000D02*
X125650000Y-101650000D01*
G75*
G02*
X125450000Y-101850000I-200000J0D01*
G01*
X124550000Y-101850000D01*
G75*
G02*
X124350000Y-101650000I0J200000D01*
G01*
X124350000Y-100850000D01*
G75*
G02*
X124550000Y-100650000I200000J0D01*
G01*
X125450000Y-100650000D01*
G75*
G02*
X125650000Y-100850000I0J-200000D01*
G01*
G37*
G36*
G01*
X127650000Y-100850000D02*
X127650000Y-101650000D01*
G75*
G02*
X127450000Y-101850000I-200000J0D01*
G01*
X126550000Y-101850000D01*
G75*
G02*
X126350000Y-101650000I0J200000D01*
G01*
X126350000Y-100850000D01*
G75*
G02*
X126550000Y-100650000I200000J0D01*
G01*
X127450000Y-100650000D01*
G75*
G02*
X127650000Y-100850000I0J-200000D01*
G01*
G37*
%TD*%
%TO.C,C7*%
G36*
G01*
X124400000Y-86100000D02*
X124400000Y-86900000D01*
G75*
G02*
X124200000Y-87100000I-200000J0D01*
G01*
X123300000Y-87100000D01*
G75*
G02*
X123100000Y-86900000I0J200000D01*
G01*
X123100000Y-86100000D01*
G75*
G02*
X123300000Y-85900000I200000J0D01*
G01*
X124200000Y-85900000D01*
G75*
G02*
X124400000Y-86100000I0J-200000D01*
G01*
G37*
G36*
G01*
X126400000Y-86100000D02*
X126400000Y-86900000D01*
G75*
G02*
X126200000Y-87100000I-200000J0D01*
G01*
X125300000Y-87100000D01*
G75*
G02*
X125100000Y-86900000I0J200000D01*
G01*
X125100000Y-86100000D01*
G75*
G02*
X125300000Y-85900000I200000J0D01*
G01*
X126200000Y-85900000D01*
G75*
G02*
X126400000Y-86100000I0J-200000D01*
G01*
G37*
%TD*%
D16*
%TO.C,Y1*%
X122500000Y-91000000D03*
X122500000Y-95880000D03*
%TD*%
D17*
%TO.C,*%
X97950000Y-74400000D03*
%TD*%
%TO.C,*%
X97950000Y-125900000D03*
%TD*%
%TO.C,*%
X162450000Y-74400000D03*
%TD*%
%TO.C,*%
X186450000Y-74400000D03*
%TD*%
%TO.C,*%
X210450000Y-74400000D03*
%TD*%
%TO.C,*%
X162450000Y-125900000D03*
%TD*%
%TO.C,*%
X186450000Y-126000000D03*
%TD*%
%TO.C,*%
X210450000Y-125900000D03*
%TD*%
%TO.C,*%
X231950000Y-100150000D03*
%TD*%
%TO.C,*%
X210450000Y-100150000D03*
%TD*%
%TO.C,*%
X186450000Y-100150000D03*
%TD*%
%TO.C,J2*%
G36*
G01*
X182600000Y-98200000D02*
X182600000Y-99800000D01*
G75*
G02*
X182400000Y-100000000I-200000J0D01*
G01*
X180800000Y-100000000D01*
G75*
G02*
X180600000Y-99800000I0J200000D01*
G01*
X180600000Y-98200000D01*
G75*
G02*
X180800000Y-98000000I200000J0D01*
G01*
X182400000Y-98000000D01*
G75*
G02*
X182600000Y-98200000I0J-200000D01*
G01*
G37*
D12*
X179100000Y-99000000D03*
X176600000Y-99000000D03*
X174100000Y-99000000D03*
X171600000Y-99000000D03*
X169100000Y-99000000D03*
X166600000Y-99000000D03*
X181600000Y-101500000D03*
X179100000Y-101500000D03*
X176600000Y-101500000D03*
X174100000Y-101500000D03*
X171600000Y-101500000D03*
X169100000Y-101500000D03*
X166600000Y-101500000D03*
%TD*%
%TO.C,R8*%
G36*
G01*
X165400000Y-106750000D02*
X165400000Y-107650000D01*
G75*
G02*
X165200000Y-107850000I-200000J0D01*
G01*
X164700000Y-107850000D01*
G75*
G02*
X164500000Y-107650000I0J200000D01*
G01*
X164500000Y-106750000D01*
G75*
G02*
X164700000Y-106550000I200000J0D01*
G01*
X165200000Y-106550000D01*
G75*
G02*
X165400000Y-106750000I0J-200000D01*
G01*
G37*
G36*
G01*
X163900000Y-106750000D02*
X163900000Y-107650000D01*
G75*
G02*
X163700000Y-107850000I-200000J0D01*
G01*
X163200000Y-107850000D01*
G75*
G02*
X163000000Y-107650000I0J200000D01*
G01*
X163000000Y-106750000D01*
G75*
G02*
X163200000Y-106550000I200000J0D01*
G01*
X163700000Y-106550000D01*
G75*
G02*
X163900000Y-106750000I0J-200000D01*
G01*
G37*
%TD*%
%TO.C,R9*%
G36*
G01*
X159200000Y-87750000D02*
X159200000Y-88650000D01*
G75*
G02*
X159000000Y-88850000I-200000J0D01*
G01*
X158500000Y-88850000D01*
G75*
G02*
X158300000Y-88650000I0J200000D01*
G01*
X158300000Y-87750000D01*
G75*
G02*
X158500000Y-87550000I200000J0D01*
G01*
X159000000Y-87550000D01*
G75*
G02*
X159200000Y-87750000I0J-200000D01*
G01*
G37*
G36*
G01*
X157700000Y-87750000D02*
X157700000Y-88650000D01*
G75*
G02*
X157500000Y-88850000I-200000J0D01*
G01*
X157000000Y-88850000D01*
G75*
G02*
X156800000Y-88650000I0J200000D01*
G01*
X156800000Y-87750000D01*
G75*
G02*
X157000000Y-87550000I200000J0D01*
G01*
X157500000Y-87550000D01*
G75*
G02*
X157700000Y-87750000I0J-200000D01*
G01*
G37*
%TD*%
%TO.C,R10*%
G36*
G01*
X149600000Y-104750000D02*
X149600000Y-105650000D01*
G75*
G02*
X149400000Y-105850000I-200000J0D01*
G01*
X148900000Y-105850000D01*
G75*
G02*
X148700000Y-105650000I0J200000D01*
G01*
X148700000Y-104750000D01*
G75*
G02*
X148900000Y-104550000I200000J0D01*
G01*
X149400000Y-104550000D01*
G75*
G02*
X149600000Y-104750000I0J-200000D01*
G01*
G37*
G36*
G01*
X148100000Y-104750000D02*
X148100000Y-105650000D01*
G75*
G02*
X147900000Y-105850000I-200000J0D01*
G01*
X147400000Y-105850000D01*
G75*
G02*
X147200000Y-105650000I0J200000D01*
G01*
X147200000Y-104750000D01*
G75*
G02*
X147400000Y-104550000I200000J0D01*
G01*
X147900000Y-104550000D01*
G75*
G02*
X148100000Y-104750000I0J-200000D01*
G01*
G37*
%TD*%
%TO.C,R11*%
G36*
G01*
X188800000Y-92750000D02*
X188800000Y-93650000D01*
G75*
G02*
X188600000Y-93850000I-200000J0D01*
G01*
X188100000Y-93850000D01*
G75*
G02*
X187900000Y-93650000I0J200000D01*
G01*
X187900000Y-92750000D01*
G75*
G02*
X188100000Y-92550000I200000J0D01*
G01*
X188600000Y-92550000D01*
G75*
G02*
X188800000Y-92750000I0J-200000D01*
G01*
G37*
G36*
G01*
X187300000Y-92750000D02*
X187300000Y-93650000D01*
G75*
G02*
X187100000Y-93850000I-200000J0D01*
G01*
X186600000Y-93850000D01*
G75*
G02*
X186400000Y-93650000I0J200000D01*
G01*
X186400000Y-92750000D01*
G75*
G02*
X186600000Y-92550000I200000J0D01*
G01*
X187100000Y-92550000D01*
G75*
G02*
X187300000Y-92750000I0J-200000D01*
G01*
G37*
%TD*%
%TO.C,R12*%
G36*
G01*
X188800000Y-114550000D02*
X188800000Y-115450000D01*
G75*
G02*
X188600000Y-115650000I-200000J0D01*
G01*
X188100000Y-115650000D01*
G75*
G02*
X187900000Y-115450000I0J200000D01*
G01*
X187900000Y-114550000D01*
G75*
G02*
X188100000Y-114350000I200000J0D01*
G01*
X188600000Y-114350000D01*
G75*
G02*
X188800000Y-114550000I0J-200000D01*
G01*
G37*
G36*
G01*
X187300000Y-114550000D02*
X187300000Y-115450000D01*
G75*
G02*
X187100000Y-115650000I-200000J0D01*
G01*
X186600000Y-115650000D01*
G75*
G02*
X186400000Y-115450000I0J200000D01*
G01*
X186400000Y-114550000D01*
G75*
G02*
X186600000Y-114350000I200000J0D01*
G01*
X187100000Y-114350000D01*
G75*
G02*
X187300000Y-114550000I0J-200000D01*
G01*
G37*
%TD*%
%TO.C,R13*%
G36*
G01*
X188800000Y-106750000D02*
X188800000Y-107650000D01*
G75*
G02*
X188600000Y-107850000I-200000J0D01*
G01*
X188100000Y-107850000D01*
G75*
G02*
X187900000Y-107650000I0J200000D01*
G01*
X187900000Y-106750000D01*
G75*
G02*
X188100000Y-106550000I200000J0D01*
G01*
X188600000Y-106550000D01*
G75*
G02*
X188800000Y-106750000I0J-200000D01*
G01*
G37*
G36*
G01*
X187300000Y-106750000D02*
X187300000Y-107650000D01*
G75*
G02*
X187100000Y-107850000I-200000J0D01*
G01*
X186600000Y-107850000D01*
G75*
G02*
X186400000Y-107650000I0J200000D01*
G01*
X186400000Y-106750000D01*
G75*
G02*
X186600000Y-106550000I200000J0D01*
G01*
X187100000Y-106550000D01*
G75*
G02*
X187300000Y-106750000I0J-200000D01*
G01*
G37*
%TD*%
%TO.C,R14*%
G36*
G01*
X151400000Y-106050000D02*
X151400000Y-105150000D01*
G75*
G02*
X151600000Y-104950000I200000J0D01*
G01*
X152100000Y-104950000D01*
G75*
G02*
X152300000Y-105150000I0J-200000D01*
G01*
X152300000Y-106050000D01*
G75*
G02*
X152100000Y-106250000I-200000J0D01*
G01*
X151600000Y-106250000D01*
G75*
G02*
X151400000Y-106050000I0J200000D01*
G01*
G37*
G36*
G01*
X152900000Y-106050000D02*
X152900000Y-105150000D01*
G75*
G02*
X153100000Y-104950000I200000J0D01*
G01*
X153600000Y-104950000D01*
G75*
G02*
X153800000Y-105150000I0J-200000D01*
G01*
X153800000Y-106050000D01*
G75*
G02*
X153600000Y-106250000I-200000J0D01*
G01*
X153100000Y-106250000D01*
G75*
G02*
X152900000Y-106050000I0J200000D01*
G01*
G37*
%TD*%
%TO.C,R18*%
G36*
G01*
X132100000Y-111350000D02*
X132100000Y-110450000D01*
G75*
G02*
X132300000Y-110250000I200000J0D01*
G01*
X132800000Y-110250000D01*
G75*
G02*
X133000000Y-110450000I0J-200000D01*
G01*
X133000000Y-111350000D01*
G75*
G02*
X132800000Y-111550000I-200000J0D01*
G01*
X132300000Y-111550000D01*
G75*
G02*
X132100000Y-111350000I0J200000D01*
G01*
G37*
G36*
G01*
X133600000Y-111350000D02*
X133600000Y-110450000D01*
G75*
G02*
X133800000Y-110250000I200000J0D01*
G01*
X134300000Y-110250000D01*
G75*
G02*
X134500000Y-110450000I0J-200000D01*
G01*
X134500000Y-111350000D01*
G75*
G02*
X134300000Y-111550000I-200000J0D01*
G01*
X133800000Y-111550000D01*
G75*
G02*
X133600000Y-111350000I0J200000D01*
G01*
G37*
%TD*%
%TO.C,R19*%
G36*
G01*
X132100000Y-109350000D02*
X132100000Y-108450000D01*
G75*
G02*
X132300000Y-108250000I200000J0D01*
G01*
X132800000Y-108250000D01*
G75*
G02*
X133000000Y-108450000I0J-200000D01*
G01*
X133000000Y-109350000D01*
G75*
G02*
X132800000Y-109550000I-200000J0D01*
G01*
X132300000Y-109550000D01*
G75*
G02*
X132100000Y-109350000I0J200000D01*
G01*
G37*
G36*
G01*
X133600000Y-109350000D02*
X133600000Y-108450000D01*
G75*
G02*
X133800000Y-108250000I200000J0D01*
G01*
X134300000Y-108250000D01*
G75*
G02*
X134500000Y-108450000I0J-200000D01*
G01*
X134500000Y-109350000D01*
G75*
G02*
X134300000Y-109550000I-200000J0D01*
G01*
X133800000Y-109550000D01*
G75*
G02*
X133600000Y-109350000I0J200000D01*
G01*
G37*
%TD*%
%TO.C,R20*%
G36*
G01*
X132100000Y-120450000D02*
X132100000Y-119550000D01*
G75*
G02*
X132300000Y-119350000I200000J0D01*
G01*
X132800000Y-119350000D01*
G75*
G02*
X133000000Y-119550000I0J-200000D01*
G01*
X133000000Y-120450000D01*
G75*
G02*
X132800000Y-120650000I-200000J0D01*
G01*
X132300000Y-120650000D01*
G75*
G02*
X132100000Y-120450000I0J200000D01*
G01*
G37*
G36*
G01*
X133600000Y-120450000D02*
X133600000Y-119550000D01*
G75*
G02*
X133800000Y-119350000I200000J0D01*
G01*
X134300000Y-119350000D01*
G75*
G02*
X134500000Y-119550000I0J-200000D01*
G01*
X134500000Y-120450000D01*
G75*
G02*
X134300000Y-120650000I-200000J0D01*
G01*
X133800000Y-120650000D01*
G75*
G02*
X133600000Y-120450000I0J200000D01*
G01*
G37*
%TD*%
%TO.C,R21*%
G36*
G01*
X132100000Y-125150000D02*
X132100000Y-124250000D01*
G75*
G02*
X132300000Y-124050000I200000J0D01*
G01*
X132800000Y-124050000D01*
G75*
G02*
X133000000Y-124250000I0J-200000D01*
G01*
X133000000Y-125150000D01*
G75*
G02*
X132800000Y-125350000I-200000J0D01*
G01*
X132300000Y-125350000D01*
G75*
G02*
X132100000Y-125150000I0J200000D01*
G01*
G37*
G36*
G01*
X133600000Y-125150000D02*
X133600000Y-124250000D01*
G75*
G02*
X133800000Y-124050000I200000J0D01*
G01*
X134300000Y-124050000D01*
G75*
G02*
X134500000Y-124250000I0J-200000D01*
G01*
X134500000Y-125150000D01*
G75*
G02*
X134300000Y-125350000I-200000J0D01*
G01*
X133800000Y-125350000D01*
G75*
G02*
X133600000Y-125150000I0J200000D01*
G01*
G37*
%TD*%
%TO.C,R22*%
G36*
G01*
X132100000Y-122850000D02*
X132100000Y-121950000D01*
G75*
G02*
X132300000Y-121750000I200000J0D01*
G01*
X132800000Y-121750000D01*
G75*
G02*
X133000000Y-121950000I0J-200000D01*
G01*
X133000000Y-122850000D01*
G75*
G02*
X132800000Y-123050000I-200000J0D01*
G01*
X132300000Y-123050000D01*
G75*
G02*
X132100000Y-122850000I0J200000D01*
G01*
G37*
G36*
G01*
X133600000Y-122850000D02*
X133600000Y-121950000D01*
G75*
G02*
X133800000Y-121750000I200000J0D01*
G01*
X134300000Y-121750000D01*
G75*
G02*
X134500000Y-121950000I0J-200000D01*
G01*
X134500000Y-122850000D01*
G75*
G02*
X134300000Y-123050000I-200000J0D01*
G01*
X133800000Y-123050000D01*
G75*
G02*
X133600000Y-122850000I0J200000D01*
G01*
G37*
%TD*%
%TO.C,R23*%
G36*
G01*
X132100000Y-113450000D02*
X132100000Y-112550000D01*
G75*
G02*
X132300000Y-112350000I200000J0D01*
G01*
X132800000Y-112350000D01*
G75*
G02*
X133000000Y-112550000I0J-200000D01*
G01*
X133000000Y-113450000D01*
G75*
G02*
X132800000Y-113650000I-200000J0D01*
G01*
X132300000Y-113650000D01*
G75*
G02*
X132100000Y-113450000I0J200000D01*
G01*
G37*
G36*
G01*
X133600000Y-113450000D02*
X133600000Y-112550000D01*
G75*
G02*
X133800000Y-112350000I200000J0D01*
G01*
X134300000Y-112350000D01*
G75*
G02*
X134500000Y-112550000I0J-200000D01*
G01*
X134500000Y-113450000D01*
G75*
G02*
X134300000Y-113650000I-200000J0D01*
G01*
X133800000Y-113650000D01*
G75*
G02*
X133600000Y-113450000I0J200000D01*
G01*
G37*
%TD*%
%TO.C,R24*%
G36*
G01*
X132100000Y-115850000D02*
X132100000Y-114950000D01*
G75*
G02*
X132300000Y-114750000I200000J0D01*
G01*
X132800000Y-114750000D01*
G75*
G02*
X133000000Y-114950000I0J-200000D01*
G01*
X133000000Y-115850000D01*
G75*
G02*
X132800000Y-116050000I-200000J0D01*
G01*
X132300000Y-116050000D01*
G75*
G02*
X132100000Y-115850000I0J200000D01*
G01*
G37*
G36*
G01*
X133600000Y-115850000D02*
X133600000Y-114950000D01*
G75*
G02*
X133800000Y-114750000I200000J0D01*
G01*
X134300000Y-114750000D01*
G75*
G02*
X134500000Y-114950000I0J-200000D01*
G01*
X134500000Y-115850000D01*
G75*
G02*
X134300000Y-116050000I-200000J0D01*
G01*
X133800000Y-116050000D01*
G75*
G02*
X133600000Y-115850000I0J200000D01*
G01*
G37*
%TD*%
%TO.C,R25*%
G36*
G01*
X132100000Y-118050000D02*
X132100000Y-117150000D01*
G75*
G02*
X132300000Y-116950000I200000J0D01*
G01*
X132800000Y-116950000D01*
G75*
G02*
X133000000Y-117150000I0J-200000D01*
G01*
X133000000Y-118050000D01*
G75*
G02*
X132800000Y-118250000I-200000J0D01*
G01*
X132300000Y-118250000D01*
G75*
G02*
X132100000Y-118050000I0J200000D01*
G01*
G37*
G36*
G01*
X133600000Y-118050000D02*
X133600000Y-117150000D01*
G75*
G02*
X133800000Y-116950000I200000J0D01*
G01*
X134300000Y-116950000D01*
G75*
G02*
X134500000Y-117150000I0J-200000D01*
G01*
X134500000Y-118050000D01*
G75*
G02*
X134300000Y-118250000I-200000J0D01*
G01*
X133800000Y-118250000D01*
G75*
G02*
X133600000Y-118050000I0J200000D01*
G01*
G37*
%TD*%
%TO.C,U2*%
G36*
G01*
X128500000Y-87475000D02*
X128500000Y-87225000D01*
G75*
G02*
X128700000Y-87025000I200000J0D01*
G01*
X130000000Y-87025000D01*
G75*
G02*
X130200000Y-87225000I0J-200000D01*
G01*
X130200000Y-87475000D01*
G75*
G02*
X130000000Y-87675000I-200000J0D01*
G01*
X128700000Y-87675000D01*
G75*
G02*
X128500000Y-87475000I0J200000D01*
G01*
G37*
G36*
G01*
X128500000Y-87975000D02*
X128500000Y-87725000D01*
G75*
G02*
X128700000Y-87525000I200000J0D01*
G01*
X130000000Y-87525000D01*
G75*
G02*
X130200000Y-87725000I0J-200000D01*
G01*
X130200000Y-87975000D01*
G75*
G02*
X130000000Y-88175000I-200000J0D01*
G01*
X128700000Y-88175000D01*
G75*
G02*
X128500000Y-87975000I0J200000D01*
G01*
G37*
G36*
G01*
X128500000Y-88475000D02*
X128500000Y-88225000D01*
G75*
G02*
X128700000Y-88025000I200000J0D01*
G01*
X130000000Y-88025000D01*
G75*
G02*
X130200000Y-88225000I0J-200000D01*
G01*
X130200000Y-88475000D01*
G75*
G02*
X130000000Y-88675000I-200000J0D01*
G01*
X128700000Y-88675000D01*
G75*
G02*
X128500000Y-88475000I0J200000D01*
G01*
G37*
G36*
G01*
X128500000Y-88975000D02*
X128500000Y-88725000D01*
G75*
G02*
X128700000Y-88525000I200000J0D01*
G01*
X130000000Y-88525000D01*
G75*
G02*
X130200000Y-88725000I0J-200000D01*
G01*
X130200000Y-88975000D01*
G75*
G02*
X130000000Y-89175000I-200000J0D01*
G01*
X128700000Y-89175000D01*
G75*
G02*
X128500000Y-88975000I0J200000D01*
G01*
G37*
G36*
G01*
X128500000Y-89475000D02*
X128500000Y-89225000D01*
G75*
G02*
X128700000Y-89025000I200000J0D01*
G01*
X130000000Y-89025000D01*
G75*
G02*
X130200000Y-89225000I0J-200000D01*
G01*
X130200000Y-89475000D01*
G75*
G02*
X130000000Y-89675000I-200000J0D01*
G01*
X128700000Y-89675000D01*
G75*
G02*
X128500000Y-89475000I0J200000D01*
G01*
G37*
G36*
G01*
X128500000Y-89975000D02*
X128500000Y-89725000D01*
G75*
G02*
X128700000Y-89525000I200000J0D01*
G01*
X130000000Y-89525000D01*
G75*
G02*
X130200000Y-89725000I0J-200000D01*
G01*
X130200000Y-89975000D01*
G75*
G02*
X130000000Y-90175000I-200000J0D01*
G01*
X128700000Y-90175000D01*
G75*
G02*
X128500000Y-89975000I0J200000D01*
G01*
G37*
G36*
G01*
X128500000Y-90475000D02*
X128500000Y-90225000D01*
G75*
G02*
X128700000Y-90025000I200000J0D01*
G01*
X130000000Y-90025000D01*
G75*
G02*
X130200000Y-90225000I0J-200000D01*
G01*
X130200000Y-90475000D01*
G75*
G02*
X130000000Y-90675000I-200000J0D01*
G01*
X128700000Y-90675000D01*
G75*
G02*
X128500000Y-90475000I0J200000D01*
G01*
G37*
G36*
G01*
X128500000Y-90975000D02*
X128500000Y-90725000D01*
G75*
G02*
X128700000Y-90525000I200000J0D01*
G01*
X130000000Y-90525000D01*
G75*
G02*
X130200000Y-90725000I0J-200000D01*
G01*
X130200000Y-90975000D01*
G75*
G02*
X130000000Y-91175000I-200000J0D01*
G01*
X128700000Y-91175000D01*
G75*
G02*
X128500000Y-90975000I0J200000D01*
G01*
G37*
G36*
G01*
X128500000Y-91475000D02*
X128500000Y-91225000D01*
G75*
G02*
X128700000Y-91025000I200000J0D01*
G01*
X130000000Y-91025000D01*
G75*
G02*
X130200000Y-91225000I0J-200000D01*
G01*
X130200000Y-91475000D01*
G75*
G02*
X130000000Y-91675000I-200000J0D01*
G01*
X128700000Y-91675000D01*
G75*
G02*
X128500000Y-91475000I0J200000D01*
G01*
G37*
G36*
G01*
X128500000Y-91975000D02*
X128500000Y-91725000D01*
G75*
G02*
X128700000Y-91525000I200000J0D01*
G01*
X130000000Y-91525000D01*
G75*
G02*
X130200000Y-91725000I0J-200000D01*
G01*
X130200000Y-91975000D01*
G75*
G02*
X130000000Y-92175000I-200000J0D01*
G01*
X128700000Y-92175000D01*
G75*
G02*
X128500000Y-91975000I0J200000D01*
G01*
G37*
G36*
G01*
X128500000Y-92475000D02*
X128500000Y-92225000D01*
G75*
G02*
X128700000Y-92025000I200000J0D01*
G01*
X130000000Y-92025000D01*
G75*
G02*
X130200000Y-92225000I0J-200000D01*
G01*
X130200000Y-92475000D01*
G75*
G02*
X130000000Y-92675000I-200000J0D01*
G01*
X128700000Y-92675000D01*
G75*
G02*
X128500000Y-92475000I0J200000D01*
G01*
G37*
G36*
G01*
X128500000Y-92975000D02*
X128500000Y-92725000D01*
G75*
G02*
X128700000Y-92525000I200000J0D01*
G01*
X130000000Y-92525000D01*
G75*
G02*
X130200000Y-92725000I0J-200000D01*
G01*
X130200000Y-92975000D01*
G75*
G02*
X130000000Y-93175000I-200000J0D01*
G01*
X128700000Y-93175000D01*
G75*
G02*
X128500000Y-92975000I0J200000D01*
G01*
G37*
G36*
G01*
X131075000Y-95300000D02*
X130825000Y-95300000D01*
G75*
G02*
X130625000Y-95100000I0J200000D01*
G01*
X130625000Y-93800000D01*
G75*
G02*
X130825000Y-93600000I200000J0D01*
G01*
X131075000Y-93600000D01*
G75*
G02*
X131275000Y-93800000I0J-200000D01*
G01*
X131275000Y-95100000D01*
G75*
G02*
X131075000Y-95300000I-200000J0D01*
G01*
G37*
G36*
G01*
X131575000Y-95300000D02*
X131325000Y-95300000D01*
G75*
G02*
X131125000Y-95100000I0J200000D01*
G01*
X131125000Y-93800000D01*
G75*
G02*
X131325000Y-93600000I200000J0D01*
G01*
X131575000Y-93600000D01*
G75*
G02*
X131775000Y-93800000I0J-200000D01*
G01*
X131775000Y-95100000D01*
G75*
G02*
X131575000Y-95300000I-200000J0D01*
G01*
G37*
G36*
G01*
X132075000Y-95300000D02*
X131825000Y-95300000D01*
G75*
G02*
X131625000Y-95100000I0J200000D01*
G01*
X131625000Y-93800000D01*
G75*
G02*
X131825000Y-93600000I200000J0D01*
G01*
X132075000Y-93600000D01*
G75*
G02*
X132275000Y-93800000I0J-200000D01*
G01*
X132275000Y-95100000D01*
G75*
G02*
X132075000Y-95300000I-200000J0D01*
G01*
G37*
G36*
G01*
X132575000Y-95300000D02*
X132325000Y-95300000D01*
G75*
G02*
X132125000Y-95100000I0J200000D01*
G01*
X132125000Y-93800000D01*
G75*
G02*
X132325000Y-93600000I200000J0D01*
G01*
X132575000Y-93600000D01*
G75*
G02*
X132775000Y-93800000I0J-200000D01*
G01*
X132775000Y-95100000D01*
G75*
G02*
X132575000Y-95300000I-200000J0D01*
G01*
G37*
G36*
G01*
X133075000Y-95300000D02*
X132825000Y-95300000D01*
G75*
G02*
X132625000Y-95100000I0J200000D01*
G01*
X132625000Y-93800000D01*
G75*
G02*
X132825000Y-93600000I200000J0D01*
G01*
X133075000Y-93600000D01*
G75*
G02*
X133275000Y-93800000I0J-200000D01*
G01*
X133275000Y-95100000D01*
G75*
G02*
X133075000Y-95300000I-200000J0D01*
G01*
G37*
G36*
G01*
X133575000Y-95300000D02*
X133325000Y-95300000D01*
G75*
G02*
X133125000Y-95100000I0J200000D01*
G01*
X133125000Y-93800000D01*
G75*
G02*
X133325000Y-93600000I200000J0D01*
G01*
X133575000Y-93600000D01*
G75*
G02*
X133775000Y-93800000I0J-200000D01*
G01*
X133775000Y-95100000D01*
G75*
G02*
X133575000Y-95300000I-200000J0D01*
G01*
G37*
G36*
G01*
X134075000Y-95300000D02*
X133825000Y-95300000D01*
G75*
G02*
X133625000Y-95100000I0J200000D01*
G01*
X133625000Y-93800000D01*
G75*
G02*
X133825000Y-93600000I200000J0D01*
G01*
X134075000Y-93600000D01*
G75*
G02*
X134275000Y-93800000I0J-200000D01*
G01*
X134275000Y-95100000D01*
G75*
G02*
X134075000Y-95300000I-200000J0D01*
G01*
G37*
G36*
G01*
X134575000Y-95300000D02*
X134325000Y-95300000D01*
G75*
G02*
X134125000Y-95100000I0J200000D01*
G01*
X134125000Y-93800000D01*
G75*
G02*
X134325000Y-93600000I200000J0D01*
G01*
X134575000Y-93600000D01*
G75*
G02*
X134775000Y-93800000I0J-200000D01*
G01*
X134775000Y-95100000D01*
G75*
G02*
X134575000Y-95300000I-200000J0D01*
G01*
G37*
G36*
G01*
X135075000Y-95300000D02*
X134825000Y-95300000D01*
G75*
G02*
X134625000Y-95100000I0J200000D01*
G01*
X134625000Y-93800000D01*
G75*
G02*
X134825000Y-93600000I200000J0D01*
G01*
X135075000Y-93600000D01*
G75*
G02*
X135275000Y-93800000I0J-200000D01*
G01*
X135275000Y-95100000D01*
G75*
G02*
X135075000Y-95300000I-200000J0D01*
G01*
G37*
G36*
G01*
X135575000Y-95300000D02*
X135325000Y-95300000D01*
G75*
G02*
X135125000Y-95100000I0J200000D01*
G01*
X135125000Y-93800000D01*
G75*
G02*
X135325000Y-93600000I200000J0D01*
G01*
X135575000Y-93600000D01*
G75*
G02*
X135775000Y-93800000I0J-200000D01*
G01*
X135775000Y-95100000D01*
G75*
G02*
X135575000Y-95300000I-200000J0D01*
G01*
G37*
G36*
G01*
X136075000Y-95300000D02*
X135825000Y-95300000D01*
G75*
G02*
X135625000Y-95100000I0J200000D01*
G01*
X135625000Y-93800000D01*
G75*
G02*
X135825000Y-93600000I200000J0D01*
G01*
X136075000Y-93600000D01*
G75*
G02*
X136275000Y-93800000I0J-200000D01*
G01*
X136275000Y-95100000D01*
G75*
G02*
X136075000Y-95300000I-200000J0D01*
G01*
G37*
G36*
G01*
X136575000Y-95300000D02*
X136325000Y-95300000D01*
G75*
G02*
X136125000Y-95100000I0J200000D01*
G01*
X136125000Y-93800000D01*
G75*
G02*
X136325000Y-93600000I200000J0D01*
G01*
X136575000Y-93600000D01*
G75*
G02*
X136775000Y-93800000I0J-200000D01*
G01*
X136775000Y-95100000D01*
G75*
G02*
X136575000Y-95300000I-200000J0D01*
G01*
G37*
G36*
G01*
X137200000Y-92975000D02*
X137200000Y-92725000D01*
G75*
G02*
X137400000Y-92525000I200000J0D01*
G01*
X138700000Y-92525000D01*
G75*
G02*
X138900000Y-92725000I0J-200000D01*
G01*
X138900000Y-92975000D01*
G75*
G02*
X138700000Y-93175000I-200000J0D01*
G01*
X137400000Y-93175000D01*
G75*
G02*
X137200000Y-92975000I0J200000D01*
G01*
G37*
G36*
G01*
X137200000Y-92475000D02*
X137200000Y-92225000D01*
G75*
G02*
X137400000Y-92025000I200000J0D01*
G01*
X138700000Y-92025000D01*
G75*
G02*
X138900000Y-92225000I0J-200000D01*
G01*
X138900000Y-92475000D01*
G75*
G02*
X138700000Y-92675000I-200000J0D01*
G01*
X137400000Y-92675000D01*
G75*
G02*
X137200000Y-92475000I0J200000D01*
G01*
G37*
G36*
G01*
X137200000Y-91975000D02*
X137200000Y-91725000D01*
G75*
G02*
X137400000Y-91525000I200000J0D01*
G01*
X138700000Y-91525000D01*
G75*
G02*
X138900000Y-91725000I0J-200000D01*
G01*
X138900000Y-91975000D01*
G75*
G02*
X138700000Y-92175000I-200000J0D01*
G01*
X137400000Y-92175000D01*
G75*
G02*
X137200000Y-91975000I0J200000D01*
G01*
G37*
G36*
G01*
X137200000Y-91475000D02*
X137200000Y-91225000D01*
G75*
G02*
X137400000Y-91025000I200000J0D01*
G01*
X138700000Y-91025000D01*
G75*
G02*
X138900000Y-91225000I0J-200000D01*
G01*
X138900000Y-91475000D01*
G75*
G02*
X138700000Y-91675000I-200000J0D01*
G01*
X137400000Y-91675000D01*
G75*
G02*
X137200000Y-91475000I0J200000D01*
G01*
G37*
G36*
G01*
X137200000Y-90975000D02*
X137200000Y-90725000D01*
G75*
G02*
X137400000Y-90525000I200000J0D01*
G01*
X138700000Y-90525000D01*
G75*
G02*
X138900000Y-90725000I0J-200000D01*
G01*
X138900000Y-90975000D01*
G75*
G02*
X138700000Y-91175000I-200000J0D01*
G01*
X137400000Y-91175000D01*
G75*
G02*
X137200000Y-90975000I0J200000D01*
G01*
G37*
G36*
G01*
X137200000Y-90475000D02*
X137200000Y-90225000D01*
G75*
G02*
X137400000Y-90025000I200000J0D01*
G01*
X138700000Y-90025000D01*
G75*
G02*
X138900000Y-90225000I0J-200000D01*
G01*
X138900000Y-90475000D01*
G75*
G02*
X138700000Y-90675000I-200000J0D01*
G01*
X137400000Y-90675000D01*
G75*
G02*
X137200000Y-90475000I0J200000D01*
G01*
G37*
G36*
G01*
X137200000Y-89975000D02*
X137200000Y-89725000D01*
G75*
G02*
X137400000Y-89525000I200000J0D01*
G01*
X138700000Y-89525000D01*
G75*
G02*
X138900000Y-89725000I0J-200000D01*
G01*
X138900000Y-89975000D01*
G75*
G02*
X138700000Y-90175000I-200000J0D01*
G01*
X137400000Y-90175000D01*
G75*
G02*
X137200000Y-89975000I0J200000D01*
G01*
G37*
G36*
G01*
X137200000Y-89475000D02*
X137200000Y-89225000D01*
G75*
G02*
X137400000Y-89025000I200000J0D01*
G01*
X138700000Y-89025000D01*
G75*
G02*
X138900000Y-89225000I0J-200000D01*
G01*
X138900000Y-89475000D01*
G75*
G02*
X138700000Y-89675000I-200000J0D01*
G01*
X137400000Y-89675000D01*
G75*
G02*
X137200000Y-89475000I0J200000D01*
G01*
G37*
G36*
G01*
X137200000Y-88975000D02*
X137200000Y-88725000D01*
G75*
G02*
X137400000Y-88525000I200000J0D01*
G01*
X138700000Y-88525000D01*
G75*
G02*
X138900000Y-88725000I0J-200000D01*
G01*
X138900000Y-88975000D01*
G75*
G02*
X138700000Y-89175000I-200000J0D01*
G01*
X137400000Y-89175000D01*
G75*
G02*
X137200000Y-88975000I0J200000D01*
G01*
G37*
G36*
G01*
X137200000Y-88475000D02*
X137200000Y-88225000D01*
G75*
G02*
X137400000Y-88025000I200000J0D01*
G01*
X138700000Y-88025000D01*
G75*
G02*
X138900000Y-88225000I0J-200000D01*
G01*
X138900000Y-88475000D01*
G75*
G02*
X138700000Y-88675000I-200000J0D01*
G01*
X137400000Y-88675000D01*
G75*
G02*
X137200000Y-88475000I0J200000D01*
G01*
G37*
G36*
G01*
X137200000Y-87975000D02*
X137200000Y-87725000D01*
G75*
G02*
X137400000Y-87525000I200000J0D01*
G01*
X138700000Y-87525000D01*
G75*
G02*
X138900000Y-87725000I0J-200000D01*
G01*
X138900000Y-87975000D01*
G75*
G02*
X138700000Y-88175000I-200000J0D01*
G01*
X137400000Y-88175000D01*
G75*
G02*
X137200000Y-87975000I0J200000D01*
G01*
G37*
G36*
G01*
X137200000Y-87475000D02*
X137200000Y-87225000D01*
G75*
G02*
X137400000Y-87025000I200000J0D01*
G01*
X138700000Y-87025000D01*
G75*
G02*
X138900000Y-87225000I0J-200000D01*
G01*
X138900000Y-87475000D01*
G75*
G02*
X138700000Y-87675000I-200000J0D01*
G01*
X137400000Y-87675000D01*
G75*
G02*
X137200000Y-87475000I0J200000D01*
G01*
G37*
G36*
G01*
X136575000Y-86600000D02*
X136325000Y-86600000D01*
G75*
G02*
X136125000Y-86400000I0J200000D01*
G01*
X136125000Y-85100000D01*
G75*
G02*
X136325000Y-84900000I200000J0D01*
G01*
X136575000Y-84900000D01*
G75*
G02*
X136775000Y-85100000I0J-200000D01*
G01*
X136775000Y-86400000D01*
G75*
G02*
X136575000Y-86600000I-200000J0D01*
G01*
G37*
G36*
G01*
X136075000Y-86600000D02*
X135825000Y-86600000D01*
G75*
G02*
X135625000Y-86400000I0J200000D01*
G01*
X135625000Y-85100000D01*
G75*
G02*
X135825000Y-84900000I200000J0D01*
G01*
X136075000Y-84900000D01*
G75*
G02*
X136275000Y-85100000I0J-200000D01*
G01*
X136275000Y-86400000D01*
G75*
G02*
X136075000Y-86600000I-200000J0D01*
G01*
G37*
G36*
G01*
X135575000Y-86600000D02*
X135325000Y-86600000D01*
G75*
G02*
X135125000Y-86400000I0J200000D01*
G01*
X135125000Y-85100000D01*
G75*
G02*
X135325000Y-84900000I200000J0D01*
G01*
X135575000Y-84900000D01*
G75*
G02*
X135775000Y-85100000I0J-200000D01*
G01*
X135775000Y-86400000D01*
G75*
G02*
X135575000Y-86600000I-200000J0D01*
G01*
G37*
G36*
G01*
X135075000Y-86600000D02*
X134825000Y-86600000D01*
G75*
G02*
X134625000Y-86400000I0J200000D01*
G01*
X134625000Y-85100000D01*
G75*
G02*
X134825000Y-84900000I200000J0D01*
G01*
X135075000Y-84900000D01*
G75*
G02*
X135275000Y-85100000I0J-200000D01*
G01*
X135275000Y-86400000D01*
G75*
G02*
X135075000Y-86600000I-200000J0D01*
G01*
G37*
G36*
G01*
X134575000Y-86600000D02*
X134325000Y-86600000D01*
G75*
G02*
X134125000Y-86400000I0J200000D01*
G01*
X134125000Y-85100000D01*
G75*
G02*
X134325000Y-84900000I200000J0D01*
G01*
X134575000Y-84900000D01*
G75*
G02*
X134775000Y-85100000I0J-200000D01*
G01*
X134775000Y-86400000D01*
G75*
G02*
X134575000Y-86600000I-200000J0D01*
G01*
G37*
G36*
G01*
X134075000Y-86600000D02*
X133825000Y-86600000D01*
G75*
G02*
X133625000Y-86400000I0J200000D01*
G01*
X133625000Y-85100000D01*
G75*
G02*
X133825000Y-84900000I200000J0D01*
G01*
X134075000Y-84900000D01*
G75*
G02*
X134275000Y-85100000I0J-200000D01*
G01*
X134275000Y-86400000D01*
G75*
G02*
X134075000Y-86600000I-200000J0D01*
G01*
G37*
G36*
G01*
X133575000Y-86600000D02*
X133325000Y-86600000D01*
G75*
G02*
X133125000Y-86400000I0J200000D01*
G01*
X133125000Y-85100000D01*
G75*
G02*
X133325000Y-84900000I200000J0D01*
G01*
X133575000Y-84900000D01*
G75*
G02*
X133775000Y-85100000I0J-200000D01*
G01*
X133775000Y-86400000D01*
G75*
G02*
X133575000Y-86600000I-200000J0D01*
G01*
G37*
G36*
G01*
X133075000Y-86600000D02*
X132825000Y-86600000D01*
G75*
G02*
X132625000Y-86400000I0J200000D01*
G01*
X132625000Y-85100000D01*
G75*
G02*
X132825000Y-84900000I200000J0D01*
G01*
X133075000Y-84900000D01*
G75*
G02*
X133275000Y-85100000I0J-200000D01*
G01*
X133275000Y-86400000D01*
G75*
G02*
X133075000Y-86600000I-200000J0D01*
G01*
G37*
G36*
G01*
X132575000Y-86600000D02*
X132325000Y-86600000D01*
G75*
G02*
X132125000Y-86400000I0J200000D01*
G01*
X132125000Y-85100000D01*
G75*
G02*
X132325000Y-84900000I200000J0D01*
G01*
X132575000Y-84900000D01*
G75*
G02*
X132775000Y-85100000I0J-200000D01*
G01*
X132775000Y-86400000D01*
G75*
G02*
X132575000Y-86600000I-200000J0D01*
G01*
G37*
G36*
G01*
X132075000Y-86600000D02*
X131825000Y-86600000D01*
G75*
G02*
X131625000Y-86400000I0J200000D01*
G01*
X131625000Y-85100000D01*
G75*
G02*
X131825000Y-84900000I200000J0D01*
G01*
X132075000Y-84900000D01*
G75*
G02*
X132275000Y-85100000I0J-200000D01*
G01*
X132275000Y-86400000D01*
G75*
G02*
X132075000Y-86600000I-200000J0D01*
G01*
G37*
G36*
G01*
X131575000Y-86600000D02*
X131325000Y-86600000D01*
G75*
G02*
X131125000Y-86400000I0J200000D01*
G01*
X131125000Y-85100000D01*
G75*
G02*
X131325000Y-84900000I200000J0D01*
G01*
X131575000Y-84900000D01*
G75*
G02*
X131775000Y-85100000I0J-200000D01*
G01*
X131775000Y-86400000D01*
G75*
G02*
X131575000Y-86600000I-200000J0D01*
G01*
G37*
G36*
G01*
X131075000Y-86600000D02*
X130825000Y-86600000D01*
G75*
G02*
X130625000Y-86400000I0J200000D01*
G01*
X130625000Y-85100000D01*
G75*
G02*
X130825000Y-84900000I200000J0D01*
G01*
X131075000Y-84900000D01*
G75*
G02*
X131275000Y-85100000I0J-200000D01*
G01*
X131275000Y-86400000D01*
G75*
G02*
X131075000Y-86600000I-200000J0D01*
G01*
G37*
%TD*%
%TO.C,C1*%
G36*
G01*
X117400000Y-89650000D02*
X117400000Y-90350000D01*
G75*
G02*
X117200000Y-90550000I-200000J0D01*
G01*
X116400000Y-90550000D01*
G75*
G02*
X116200000Y-90350000I0J200000D01*
G01*
X116200000Y-89650000D01*
G75*
G02*
X116400000Y-89450000I200000J0D01*
G01*
X117200000Y-89450000D01*
G75*
G02*
X117400000Y-89650000I0J-200000D01*
G01*
G37*
G36*
G01*
X119200000Y-89650000D02*
X119200000Y-90350000D01*
G75*
G02*
X119000000Y-90550000I-200000J0D01*
G01*
X118200000Y-90550000D01*
G75*
G02*
X118000000Y-90350000I0J200000D01*
G01*
X118000000Y-89650000D01*
G75*
G02*
X118200000Y-89450000I200000J0D01*
G01*
X119000000Y-89450000D01*
G75*
G02*
X119200000Y-89650000I0J-200000D01*
G01*
G37*
%TD*%
%TO.C,C2*%
G36*
G01*
X117400000Y-94050000D02*
X117400000Y-94750000D01*
G75*
G02*
X117200000Y-94950000I-200000J0D01*
G01*
X116400000Y-94950000D01*
G75*
G02*
X116200000Y-94750000I0J200000D01*
G01*
X116200000Y-94050000D01*
G75*
G02*
X116400000Y-93850000I200000J0D01*
G01*
X117200000Y-93850000D01*
G75*
G02*
X117400000Y-94050000I0J-200000D01*
G01*
G37*
G36*
G01*
X119200000Y-94050000D02*
X119200000Y-94750000D01*
G75*
G02*
X119000000Y-94950000I-200000J0D01*
G01*
X118200000Y-94950000D01*
G75*
G02*
X118000000Y-94750000I0J200000D01*
G01*
X118000000Y-94050000D01*
G75*
G02*
X118200000Y-93850000I200000J0D01*
G01*
X119000000Y-93850000D01*
G75*
G02*
X119200000Y-94050000I0J-200000D01*
G01*
G37*
%TD*%
%TO.C,D1*%
G36*
G01*
X96550000Y-85350000D02*
X97450000Y-85350000D01*
G75*
G02*
X97650000Y-85550000I0J-200000D01*
G01*
X97650000Y-86350000D01*
G75*
G02*
X97450000Y-86550000I-200000J0D01*
G01*
X96550000Y-86550000D01*
G75*
G02*
X96350000Y-86350000I0J200000D01*
G01*
X96350000Y-85550000D01*
G75*
G02*
X96550000Y-85350000I200000J0D01*
G01*
G37*
G36*
G01*
X96550000Y-87450000D02*
X97450000Y-87450000D01*
G75*
G02*
X97650000Y-87650000I0J-200000D01*
G01*
X97650000Y-88450000D01*
G75*
G02*
X97450000Y-88650000I-200000J0D01*
G01*
X96550000Y-88650000D01*
G75*
G02*
X96350000Y-88450000I0J200000D01*
G01*
X96350000Y-87650000D01*
G75*
G02*
X96550000Y-87450000I200000J0D01*
G01*
G37*
%TD*%
%TO.C,J5*%
G36*
G01*
X96075000Y-79875000D02*
X97925000Y-79875000D01*
G75*
G02*
X98125000Y-80075000I0J-200000D01*
G01*
X98125000Y-81925000D01*
G75*
G02*
X97925000Y-82125000I-200000J0D01*
G01*
X96075000Y-82125000D01*
G75*
G02*
X95875000Y-81925000I0J200000D01*
G01*
X95875000Y-80075000D01*
G75*
G02*
X96075000Y-79875000I200000J0D01*
G01*
G37*
D20*
X97000000Y-83500000D03*
%TD*%
%TO.C,R1*%
G36*
G01*
X130850000Y-99700000D02*
X129950000Y-99700000D01*
G75*
G02*
X129750000Y-99500000I0J200000D01*
G01*
X129750000Y-99000000D01*
G75*
G02*
X129950000Y-98800000I200000J0D01*
G01*
X130850000Y-98800000D01*
G75*
G02*
X131050000Y-99000000I0J-200000D01*
G01*
X131050000Y-99500000D01*
G75*
G02*
X130850000Y-99700000I-200000J0D01*
G01*
G37*
G36*
G01*
X130850000Y-98200000D02*
X129950000Y-98200000D01*
G75*
G02*
X129750000Y-98000000I0J200000D01*
G01*
X129750000Y-97500000D01*
G75*
G02*
X129950000Y-97300000I200000J0D01*
G01*
X130850000Y-97300000D01*
G75*
G02*
X131050000Y-97500000I0J-200000D01*
G01*
X131050000Y-98000000D01*
G75*
G02*
X130850000Y-98200000I-200000J0D01*
G01*
G37*
%TD*%
%TO.C,R2*%
G36*
G01*
X128950000Y-99800000D02*
X128050000Y-99800000D01*
G75*
G02*
X127850000Y-99600000I0J200000D01*
G01*
X127850000Y-99100000D01*
G75*
G02*
X128050000Y-98900000I200000J0D01*
G01*
X128950000Y-98900000D01*
G75*
G02*
X129150000Y-99100000I0J-200000D01*
G01*
X129150000Y-99600000D01*
G75*
G02*
X128950000Y-99800000I-200000J0D01*
G01*
G37*
G36*
G01*
X128950000Y-98300000D02*
X128050000Y-98300000D01*
G75*
G02*
X127850000Y-98100000I0J200000D01*
G01*
X127850000Y-97600000D01*
G75*
G02*
X128050000Y-97400000I200000J0D01*
G01*
X128950000Y-97400000D01*
G75*
G02*
X129150000Y-97600000I0J-200000D01*
G01*
X129150000Y-98100000D01*
G75*
G02*
X128950000Y-98300000I-200000J0D01*
G01*
G37*
%TD*%
%TO.C,R3*%
G36*
G01*
X189200000Y-82550000D02*
X189200000Y-83450000D01*
G75*
G02*
X189000000Y-83650000I-200000J0D01*
G01*
X188500000Y-83650000D01*
G75*
G02*
X188300000Y-83450000I0J200000D01*
G01*
X188300000Y-82550000D01*
G75*
G02*
X188500000Y-82350000I200000J0D01*
G01*
X189000000Y-82350000D01*
G75*
G02*
X189200000Y-82550000I0J-200000D01*
G01*
G37*
G36*
G01*
X187700000Y-82550000D02*
X187700000Y-83450000D01*
G75*
G02*
X187500000Y-83650000I-200000J0D01*
G01*
X187000000Y-83650000D01*
G75*
G02*
X186800000Y-83450000I0J200000D01*
G01*
X186800000Y-82550000D01*
G75*
G02*
X187000000Y-82350000I200000J0D01*
G01*
X187500000Y-82350000D01*
G75*
G02*
X187700000Y-82550000I0J-200000D01*
G01*
G37*
%TD*%
%TO.C,R4*%
G36*
G01*
X165400000Y-114550000D02*
X165400000Y-115450000D01*
G75*
G02*
X165200000Y-115650000I-200000J0D01*
G01*
X164700000Y-115650000D01*
G75*
G02*
X164500000Y-115450000I0J200000D01*
G01*
X164500000Y-114550000D01*
G75*
G02*
X164700000Y-114350000I200000J0D01*
G01*
X165200000Y-114350000D01*
G75*
G02*
X165400000Y-114550000I0J-200000D01*
G01*
G37*
G36*
G01*
X163900000Y-114550000D02*
X163900000Y-115450000D01*
G75*
G02*
X163700000Y-115650000I-200000J0D01*
G01*
X163200000Y-115650000D01*
G75*
G02*
X163000000Y-115450000I0J200000D01*
G01*
X163000000Y-114550000D01*
G75*
G02*
X163200000Y-114350000I200000J0D01*
G01*
X163700000Y-114350000D01*
G75*
G02*
X163900000Y-114550000I0J-200000D01*
G01*
G37*
%TD*%
%TO.C,R5*%
G36*
G01*
X212800000Y-82550000D02*
X212800000Y-83450000D01*
G75*
G02*
X212600000Y-83650000I-200000J0D01*
G01*
X212100000Y-83650000D01*
G75*
G02*
X211900000Y-83450000I0J200000D01*
G01*
X211900000Y-82550000D01*
G75*
G02*
X212100000Y-82350000I200000J0D01*
G01*
X212600000Y-82350000D01*
G75*
G02*
X212800000Y-82550000I0J-200000D01*
G01*
G37*
G36*
G01*
X211300000Y-82550000D02*
X211300000Y-83450000D01*
G75*
G02*
X211100000Y-83650000I-200000J0D01*
G01*
X210600000Y-83650000D01*
G75*
G02*
X210400000Y-83450000I0J200000D01*
G01*
X210400000Y-82550000D01*
G75*
G02*
X210600000Y-82350000I200000J0D01*
G01*
X211100000Y-82350000D01*
G75*
G02*
X211300000Y-82550000I0J-200000D01*
G01*
G37*
%TD*%
%TO.C,R6*%
G36*
G01*
X159800000Y-88650000D02*
X159800000Y-87750000D01*
G75*
G02*
X160000000Y-87550000I200000J0D01*
G01*
X160500000Y-87550000D01*
G75*
G02*
X160700000Y-87750000I0J-200000D01*
G01*
X160700000Y-88650000D01*
G75*
G02*
X160500000Y-88850000I-200000J0D01*
G01*
X160000000Y-88850000D01*
G75*
G02*
X159800000Y-88650000I0J200000D01*
G01*
G37*
G36*
G01*
X161300000Y-88650000D02*
X161300000Y-87750000D01*
G75*
G02*
X161500000Y-87550000I200000J0D01*
G01*
X162000000Y-87550000D01*
G75*
G02*
X162200000Y-87750000I0J-200000D01*
G01*
X162200000Y-88650000D01*
G75*
G02*
X162000000Y-88850000I-200000J0D01*
G01*
X161500000Y-88850000D01*
G75*
G02*
X161300000Y-88650000I0J200000D01*
G01*
G37*
%TD*%
%TO.C,C8*%
G36*
G01*
X105700000Y-84400000D02*
X104100000Y-84400000D01*
G75*
G02*
X103900000Y-84200000I0J200000D01*
G01*
X103900000Y-82600000D01*
G75*
G02*
X104100000Y-82400000I200000J0D01*
G01*
X105700000Y-82400000D01*
G75*
G02*
X105900000Y-82600000I0J-200000D01*
G01*
X105900000Y-84200000D01*
G75*
G02*
X105700000Y-84400000I-200000J0D01*
G01*
G37*
D12*
X104900000Y-81400000D03*
%TD*%
%TO.C,JS-1*%
G36*
G01*
X205150000Y-123900000D02*
X205150000Y-125700000D01*
G75*
G02*
X204950000Y-125900000I-200000J0D01*
G01*
X203450000Y-125900000D01*
G75*
G02*
X203250000Y-125700000I0J200000D01*
G01*
X203250000Y-123900000D01*
G75*
G02*
X203450000Y-123700000I200000J0D01*
G01*
X204950000Y-123700000D01*
G75*
G02*
X205150000Y-123900000I0J-200000D01*
G01*
G37*
D21*
X202200000Y-124800000D03*
X200200000Y-124800000D03*
X198200000Y-124800000D03*
X196200000Y-124800000D03*
X194200000Y-124800000D03*
X192200000Y-124800000D03*
%TD*%
%TO.C,JS-2*%
G36*
G01*
X179150000Y-123700000D02*
X179150000Y-125500000D01*
G75*
G02*
X178950000Y-125700000I-200000J0D01*
G01*
X177450000Y-125700000D01*
G75*
G02*
X177250000Y-125500000I0J200000D01*
G01*
X177250000Y-123700000D01*
G75*
G02*
X177450000Y-123500000I200000J0D01*
G01*
X178950000Y-123500000D01*
G75*
G02*
X179150000Y-123700000I0J-200000D01*
G01*
G37*
X176200000Y-124600000D03*
X174200000Y-124600000D03*
X172200000Y-124600000D03*
X170200000Y-124600000D03*
X168200000Y-124600000D03*
%TD*%
%TO.C,JS-3*%
G36*
G01*
X171863600Y-77216000D02*
X170136400Y-77216000D01*
G75*
G02*
X169936400Y-77016000I0J200000D01*
G01*
X169936400Y-74984000D01*
G75*
G02*
X170136400Y-74784000I200000J0D01*
G01*
X171863600Y-74784000D01*
G75*
G02*
X172063600Y-74984000I0J-200000D01*
G01*
X172063600Y-77016000D01*
G75*
G02*
X171863600Y-77216000I-200000J0D01*
G01*
G37*
D22*
X173540000Y-76000000D03*
X176080000Y-76000000D03*
X178620000Y-76000000D03*
%TD*%
%TO.C,JS-4*%
G36*
G01*
X201136400Y-74784000D02*
X202863600Y-74784000D01*
G75*
G02*
X203063600Y-74984000I0J-200000D01*
G01*
X203063600Y-77016000D01*
G75*
G02*
X202863600Y-77216000I-200000J0D01*
G01*
X201136400Y-77216000D01*
G75*
G02*
X200936400Y-77016000I0J200000D01*
G01*
X200936400Y-74984000D01*
G75*
G02*
X201136400Y-74784000I200000J0D01*
G01*
G37*
X199460000Y-76000000D03*
X196920000Y-76000000D03*
X194380000Y-76000000D03*
%TD*%
D17*
%TO.C,*%
X162450000Y-100150000D03*
%TD*%
D23*
%TO.C,*%
X102600000Y-75200000D03*
%TD*%
%TO.C,*%
X105400000Y-75200000D03*
%TD*%
%TO.C,*%
X108600000Y-75200000D03*
%TD*%
%TO.C,*%
X111800000Y-75200000D03*
%TD*%
%TO.C,*%
X115000000Y-75400000D03*
%TD*%
%TO.C,*%
X119000000Y-75400000D03*
%TD*%
%TO.C,*%
X123200000Y-75200000D03*
%TD*%
%TO.C,*%
X186000000Y-77000000D03*
%TD*%
%TO.C,*%
X138500000Y-75100000D03*
%TD*%
%TO.C,*%
X145700000Y-75100000D03*
%TD*%
%TO.C,*%
X152300000Y-75300000D03*
%TD*%
%TO.C,*%
X214800000Y-79600000D03*
%TD*%
%TO.C,*%
X223200000Y-79600000D03*
%TD*%
%TO.C,*%
X231400000Y-80200000D03*
%TD*%
%TO.C,*%
X232000000Y-96800000D03*
%TD*%
%TO.C,*%
X231400000Y-106600000D03*
%TD*%
%TO.C,*%
X231600000Y-115000000D03*
%TD*%
%TO.C,*%
X226800000Y-121000000D03*
%TD*%
%TO.C,*%
X186800000Y-122800000D03*
%TD*%
%TO.C,*%
X222200000Y-100400000D03*
%TD*%
%TO.C,*%
X214400000Y-98600000D03*
%TD*%
%TO.C,*%
X202600000Y-100400000D03*
%TD*%
%TO.C,*%
X214400000Y-104400000D03*
%TD*%
%TO.C,*%
X206200000Y-104200000D03*
%TD*%
%TO.C,*%
X195600000Y-99200000D03*
%TD*%
%TO.C,*%
X195600000Y-99200000D03*
%TD*%
%TO.C,*%
X208400000Y-94600000D03*
%TD*%
%TO.C,*%
X206800000Y-88400000D03*
%TD*%
%TO.C,*%
X217800000Y-94200000D03*
%TD*%
%TO.C,*%
X225800000Y-94200000D03*
%TD*%
%TO.C,*%
X188000000Y-103200000D03*
%TD*%
%TO.C,*%
X183000000Y-88800000D03*
%TD*%
%TO.C,*%
X158800000Y-100800000D03*
%TD*%
%TO.C,*%
X165400000Y-125200000D03*
%TD*%
%TO.C,*%
X123300000Y-116500000D03*
%TD*%
%TO.C,*%
X146700000Y-119000000D03*
%TD*%
%TO.C,*%
X124300000Y-124600000D03*
%TD*%
%TO.C,*%
X96000000Y-118600000D03*
%TD*%
%TO.C,*%
X94800000Y-113800000D03*
%TD*%
%TO.C,*%
X92400000Y-122600000D03*
%TD*%
%TO.C,*%
X91800000Y-101400000D03*
%TD*%
%TO.C,*%
X108800000Y-91600000D03*
%TD*%
%TO.C,*%
X116800000Y-86600000D03*
%TD*%
%TO.C,*%
X130200000Y-77600000D03*
%TD*%
%TO.C,*%
X120000000Y-80600000D03*
%TD*%
%TO.C,*%
X129000000Y-80600000D03*
%TD*%
%TO.C,*%
X116200000Y-81400000D03*
%TD*%
%TO.C,*%
X110400000Y-81000000D03*
%TD*%
%TO.C,*%
X100200000Y-80400000D03*
%TD*%
%TO.C,*%
X93000000Y-78000000D03*
%TD*%
%TO.C,*%
X91800000Y-96200000D03*
%TD*%
%TO.C,*%
X92000000Y-90600000D03*
%TD*%
%TO.C,*%
X92000000Y-83600000D03*
%TD*%
%TO.C,*%
X92000000Y-79600000D03*
%TD*%
%TO.C,*%
X139200000Y-104200000D03*
%TD*%
%TO.C,*%
X159400000Y-115500000D03*
%TD*%
%TO.C,*%
X177600000Y-113200000D03*
%TD*%
%TO.C,*%
X195000000Y-106200000D03*
%TD*%
%TO.C,*%
X162400000Y-91200000D03*
%TD*%
%TO.C,*%
X137000000Y-96600000D03*
%TD*%
%TO.C,*%
X142000000Y-103000000D03*
%TD*%
%TO.C,L1*%
G36*
G01*
X112900000Y-122081250D02*
X112900000Y-121118750D01*
G75*
G02*
X113218750Y-120800000I318750J0D01*
G01*
X113856250Y-120800000D01*
G75*
G02*
X114175000Y-121118750I0J-318750D01*
G01*
X114175000Y-122081250D01*
G75*
G02*
X113856250Y-122400000I-318750J0D01*
G01*
X113218750Y-122400000D01*
G75*
G02*
X112900000Y-122081250I0J318750D01*
G01*
G37*
G36*
G01*
X115025000Y-122081250D02*
X115025000Y-121118750D01*
G75*
G02*
X115343750Y-120800000I318750J0D01*
G01*
X115981250Y-120800000D01*
G75*
G02*
X116300000Y-121118750I0J-318750D01*
G01*
X116300000Y-122081250D01*
G75*
G02*
X115981250Y-122400000I-318750J0D01*
G01*
X115343750Y-122400000D01*
G75*
G02*
X115025000Y-122081250I0J318750D01*
G01*
G37*
%TD*%
M02*
