%TF.GenerationSoftware,KiCad,Pcbnew,(5.1.10)-1*%
%TF.CreationDate,2022-09-03T16:46:32+05:30*%
%TF.ProjectId,ENC-nrf-301-02-REV05,454e432d-6e72-4662-9d33-30312d30322d,rev?*%
%TF.SameCoordinates,Original*%
%TF.FileFunction,Other,Fab,Bot*%
%FSLAX46Y46*%
G04 Gerber Fmt 4.6, Leading zero omitted, Abs format (unit mm)*
G04 Created by KiCad (PCBNEW (5.1.10)-1) date 2022-09-03 16:46:32*
%MOMM*%
%LPD*%
G01*
G04 APERTURE LIST*
%ADD10C,0.100000*%
%ADD11C,0.150000*%
G04 APERTURE END LIST*
D10*
%TO.C,D14*%
X111300000Y-100105000D02*
G75*
G03*
X111300000Y-100105000I-2500000J0D01*
G01*
X107330306Y-97605000D02*
X110269694Y-97605000D01*
X110269666Y-97604984D02*
G75*
G02*
X107330306Y-97605000I-1469666J-2500016D01*
G01*
%TD*%
%TO.C,SW12*%
D11*
X181342857Y-125154761D02*
X181200000Y-125202380D01*
X180961904Y-125202380D01*
X180866666Y-125154761D01*
X180819047Y-125107142D01*
X180771428Y-125011904D01*
X180771428Y-124916666D01*
X180819047Y-124821428D01*
X180866666Y-124773809D01*
X180961904Y-124726190D01*
X181152380Y-124678571D01*
X181247619Y-124630952D01*
X181295238Y-124583333D01*
X181342857Y-124488095D01*
X181342857Y-124392857D01*
X181295238Y-124297619D01*
X181247619Y-124250000D01*
X181152380Y-124202380D01*
X180914285Y-124202380D01*
X180771428Y-124250000D01*
X180342857Y-125202380D02*
X180342857Y-124202380D01*
X179961904Y-124202380D01*
X179866666Y-124250000D01*
X179819047Y-124297619D01*
X179771428Y-124392857D01*
X179771428Y-124535714D01*
X179819047Y-124630952D01*
X179866666Y-124678571D01*
X179961904Y-124726190D01*
X180342857Y-124726190D01*
X179390476Y-125154761D02*
X179247619Y-125202380D01*
X179009523Y-125202380D01*
X178914285Y-125154761D01*
X178866666Y-125107142D01*
X178819047Y-125011904D01*
X178819047Y-124916666D01*
X178866666Y-124821428D01*
X178914285Y-124773809D01*
X179009523Y-124726190D01*
X179200000Y-124678571D01*
X179295238Y-124630952D01*
X179342857Y-124583333D01*
X179390476Y-124488095D01*
X179390476Y-124392857D01*
X179342857Y-124297619D01*
X179295238Y-124250000D01*
X179200000Y-124202380D01*
X178961904Y-124202380D01*
X178819047Y-124250000D01*
X178533333Y-124202380D02*
X177961904Y-124202380D01*
X178247619Y-125202380D02*
X178247619Y-124202380D01*
%TO.C,SW9*%
X126242857Y-67254761D02*
X126100000Y-67302380D01*
X125861904Y-67302380D01*
X125766666Y-67254761D01*
X125719047Y-67207142D01*
X125671428Y-67111904D01*
X125671428Y-67016666D01*
X125719047Y-66921428D01*
X125766666Y-66873809D01*
X125861904Y-66826190D01*
X126052380Y-66778571D01*
X126147619Y-66730952D01*
X126195238Y-66683333D01*
X126242857Y-66588095D01*
X126242857Y-66492857D01*
X126195238Y-66397619D01*
X126147619Y-66350000D01*
X126052380Y-66302380D01*
X125814285Y-66302380D01*
X125671428Y-66350000D01*
X125242857Y-67302380D02*
X125242857Y-66302380D01*
X124861904Y-66302380D01*
X124766666Y-66350000D01*
X124719047Y-66397619D01*
X124671428Y-66492857D01*
X124671428Y-66635714D01*
X124719047Y-66730952D01*
X124766666Y-66778571D01*
X124861904Y-66826190D01*
X125242857Y-66826190D01*
X124290476Y-67254761D02*
X124147619Y-67302380D01*
X123909523Y-67302380D01*
X123814285Y-67254761D01*
X123766666Y-67207142D01*
X123719047Y-67111904D01*
X123719047Y-67016666D01*
X123766666Y-66921428D01*
X123814285Y-66873809D01*
X123909523Y-66826190D01*
X124100000Y-66778571D01*
X124195238Y-66730952D01*
X124242857Y-66683333D01*
X124290476Y-66588095D01*
X124290476Y-66492857D01*
X124242857Y-66397619D01*
X124195238Y-66350000D01*
X124100000Y-66302380D01*
X123861904Y-66302380D01*
X123719047Y-66350000D01*
X123433333Y-66302380D02*
X122861904Y-66302380D01*
X123147619Y-67302380D02*
X123147619Y-66302380D01*
%TO.C,SW8*%
X189342857Y-125954761D02*
X189200000Y-126002380D01*
X188961904Y-126002380D01*
X188866666Y-125954761D01*
X188819047Y-125907142D01*
X188771428Y-125811904D01*
X188771428Y-125716666D01*
X188819047Y-125621428D01*
X188866666Y-125573809D01*
X188961904Y-125526190D01*
X189152380Y-125478571D01*
X189247619Y-125430952D01*
X189295238Y-125383333D01*
X189342857Y-125288095D01*
X189342857Y-125192857D01*
X189295238Y-125097619D01*
X189247619Y-125050000D01*
X189152380Y-125002380D01*
X188914285Y-125002380D01*
X188771428Y-125050000D01*
X188342857Y-126002380D02*
X188342857Y-125002380D01*
X187961904Y-125002380D01*
X187866666Y-125050000D01*
X187819047Y-125097619D01*
X187771428Y-125192857D01*
X187771428Y-125335714D01*
X187819047Y-125430952D01*
X187866666Y-125478571D01*
X187961904Y-125526190D01*
X188342857Y-125526190D01*
X187390476Y-125954761D02*
X187247619Y-126002380D01*
X187009523Y-126002380D01*
X186914285Y-125954761D01*
X186866666Y-125907142D01*
X186819047Y-125811904D01*
X186819047Y-125716666D01*
X186866666Y-125621428D01*
X186914285Y-125573809D01*
X187009523Y-125526190D01*
X187200000Y-125478571D01*
X187295238Y-125430952D01*
X187342857Y-125383333D01*
X187390476Y-125288095D01*
X187390476Y-125192857D01*
X187342857Y-125097619D01*
X187295238Y-125050000D01*
X187200000Y-125002380D01*
X186961904Y-125002380D01*
X186819047Y-125050000D01*
X186533333Y-125002380D02*
X185961904Y-125002380D01*
X186247619Y-126002380D02*
X186247619Y-125002380D01*
%TO.C,SW1*%
X177342857Y-68604761D02*
X177200000Y-68652380D01*
X176961904Y-68652380D01*
X176866666Y-68604761D01*
X176819047Y-68557142D01*
X176771428Y-68461904D01*
X176771428Y-68366666D01*
X176819047Y-68271428D01*
X176866666Y-68223809D01*
X176961904Y-68176190D01*
X177152380Y-68128571D01*
X177247619Y-68080952D01*
X177295238Y-68033333D01*
X177342857Y-67938095D01*
X177342857Y-67842857D01*
X177295238Y-67747619D01*
X177247619Y-67700000D01*
X177152380Y-67652380D01*
X176914285Y-67652380D01*
X176771428Y-67700000D01*
X176342857Y-68652380D02*
X176342857Y-67652380D01*
X175961904Y-67652380D01*
X175866666Y-67700000D01*
X175819047Y-67747619D01*
X175771428Y-67842857D01*
X175771428Y-67985714D01*
X175819047Y-68080952D01*
X175866666Y-68128571D01*
X175961904Y-68176190D01*
X176342857Y-68176190D01*
X175390476Y-68604761D02*
X175247619Y-68652380D01*
X175009523Y-68652380D01*
X174914285Y-68604761D01*
X174866666Y-68557142D01*
X174819047Y-68461904D01*
X174819047Y-68366666D01*
X174866666Y-68271428D01*
X174914285Y-68223809D01*
X175009523Y-68176190D01*
X175200000Y-68128571D01*
X175295238Y-68080952D01*
X175342857Y-68033333D01*
X175390476Y-67938095D01*
X175390476Y-67842857D01*
X175342857Y-67747619D01*
X175295238Y-67700000D01*
X175200000Y-67652380D01*
X174961904Y-67652380D01*
X174819047Y-67700000D01*
X174533333Y-67652380D02*
X173961904Y-67652380D01*
X174247619Y-68652380D02*
X174247619Y-67652380D01*
%TO.C,SW4*%
X171642857Y-66754761D02*
X171500000Y-66802380D01*
X171261904Y-66802380D01*
X171166666Y-66754761D01*
X171119047Y-66707142D01*
X171071428Y-66611904D01*
X171071428Y-66516666D01*
X171119047Y-66421428D01*
X171166666Y-66373809D01*
X171261904Y-66326190D01*
X171452380Y-66278571D01*
X171547619Y-66230952D01*
X171595238Y-66183333D01*
X171642857Y-66088095D01*
X171642857Y-65992857D01*
X171595238Y-65897619D01*
X171547619Y-65850000D01*
X171452380Y-65802380D01*
X171214285Y-65802380D01*
X171071428Y-65850000D01*
X170642857Y-66802380D02*
X170642857Y-65802380D01*
X170261904Y-65802380D01*
X170166666Y-65850000D01*
X170119047Y-65897619D01*
X170071428Y-65992857D01*
X170071428Y-66135714D01*
X170119047Y-66230952D01*
X170166666Y-66278571D01*
X170261904Y-66326190D01*
X170642857Y-66326190D01*
X169690476Y-66754761D02*
X169547619Y-66802380D01*
X169309523Y-66802380D01*
X169214285Y-66754761D01*
X169166666Y-66707142D01*
X169119047Y-66611904D01*
X169119047Y-66516666D01*
X169166666Y-66421428D01*
X169214285Y-66373809D01*
X169309523Y-66326190D01*
X169500000Y-66278571D01*
X169595238Y-66230952D01*
X169642857Y-66183333D01*
X169690476Y-66088095D01*
X169690476Y-65992857D01*
X169642857Y-65897619D01*
X169595238Y-65850000D01*
X169500000Y-65802380D01*
X169261904Y-65802380D01*
X169119047Y-65850000D01*
X168833333Y-65802380D02*
X168261904Y-65802380D01*
X168547619Y-66802380D02*
X168547619Y-65802380D01*
%TO.C,SW_e1*%
X84752380Y-96164285D02*
X84276190Y-95830952D01*
X84752380Y-95592857D02*
X83752380Y-95592857D01*
X83752380Y-95973809D01*
X83800000Y-96069047D01*
X83847619Y-96116666D01*
X83942857Y-96164285D01*
X84085714Y-96164285D01*
X84180952Y-96116666D01*
X84228571Y-96069047D01*
X84276190Y-95973809D01*
X84276190Y-95592857D01*
X84752380Y-96592857D02*
X83752380Y-96592857D01*
X83752380Y-96830952D01*
X83800000Y-96973809D01*
X83895238Y-97069047D01*
X83990476Y-97116666D01*
X84180952Y-97164285D01*
X84323809Y-97164285D01*
X84514285Y-97116666D01*
X84609523Y-97069047D01*
X84704761Y-96973809D01*
X84752380Y-96830952D01*
X84752380Y-96592857D01*
X84847619Y-97354761D02*
X84847619Y-98116666D01*
X84752380Y-98926190D02*
X84276190Y-98592857D01*
X84752380Y-98354761D02*
X83752380Y-98354761D01*
X83752380Y-98735714D01*
X83800000Y-98830952D01*
X83847619Y-98878571D01*
X83942857Y-98926190D01*
X84085714Y-98926190D01*
X84180952Y-98878571D01*
X84228571Y-98830952D01*
X84276190Y-98735714D01*
X84276190Y-98354761D01*
X84228571Y-99354761D02*
X84228571Y-99688095D01*
X84752380Y-99830952D02*
X84752380Y-99354761D01*
X83752380Y-99354761D01*
X83752380Y-99830952D01*
X84752380Y-100735714D02*
X84752380Y-100259523D01*
X83752380Y-100259523D01*
X84466666Y-101021428D02*
X84466666Y-101497619D01*
X84752380Y-100926190D02*
X83752380Y-101259523D01*
X84752380Y-101592857D01*
X84276190Y-102116666D02*
X84752380Y-102116666D01*
X83752380Y-101783333D02*
X84276190Y-102116666D01*
X83752380Y-102450000D01*
%TO.C,D14*%
X82952380Y-92071428D02*
X82952380Y-91595238D01*
X81952380Y-91595238D01*
X82428571Y-92404761D02*
X82428571Y-92738095D01*
X82952380Y-92880952D02*
X82952380Y-92404761D01*
X81952380Y-92404761D01*
X81952380Y-92880952D01*
X82952380Y-93309523D02*
X81952380Y-93309523D01*
X81952380Y-93547619D01*
X82000000Y-93690476D01*
X82095238Y-93785714D01*
X82190476Y-93833333D01*
X82380952Y-93880952D01*
X82523809Y-93880952D01*
X82714285Y-93833333D01*
X82809523Y-93785714D01*
X82904761Y-93690476D01*
X82952380Y-93547619D01*
X82952380Y-93309523D01*
X83047619Y-94071428D02*
X83047619Y-94833333D01*
X81952380Y-94976190D02*
X81952380Y-95595238D01*
X82333333Y-95261904D01*
X82333333Y-95404761D01*
X82380952Y-95500000D01*
X82428571Y-95547619D01*
X82523809Y-95595238D01*
X82761904Y-95595238D01*
X82857142Y-95547619D01*
X82904761Y-95500000D01*
X82952380Y-95404761D01*
X82952380Y-95119047D01*
X82904761Y-95023809D01*
X82857142Y-94976190D01*
X81952380Y-96500000D02*
X81952380Y-96023809D01*
X82428571Y-95976190D01*
X82380952Y-96023809D01*
X82333333Y-96119047D01*
X82333333Y-96357142D01*
X82380952Y-96452380D01*
X82428571Y-96500000D01*
X82523809Y-96547619D01*
X82761904Y-96547619D01*
X82857142Y-96500000D01*
X82904761Y-96452380D01*
X82952380Y-96357142D01*
X82952380Y-96119047D01*
X82904761Y-96023809D01*
X82857142Y-95976190D01*
X82047619Y-96928571D02*
X82000000Y-96976190D01*
X81952380Y-97071428D01*
X81952380Y-97309523D01*
X82000000Y-97404761D01*
X82047619Y-97452380D01*
X82142857Y-97500000D01*
X82238095Y-97500000D01*
X82380952Y-97452380D01*
X82952380Y-96880952D01*
X82952380Y-97500000D01*
X82380952Y-98071428D02*
X82333333Y-97976190D01*
X82285714Y-97928571D01*
X82190476Y-97880952D01*
X82142857Y-97880952D01*
X82047619Y-97928571D01*
X82000000Y-97976190D01*
X81952380Y-98071428D01*
X81952380Y-98261904D01*
X82000000Y-98357142D01*
X82047619Y-98404761D01*
X82142857Y-98452380D01*
X82190476Y-98452380D01*
X82285714Y-98404761D01*
X82333333Y-98357142D01*
X82380952Y-98261904D01*
X82380952Y-98071428D01*
X82428571Y-97976190D01*
X82476190Y-97928571D01*
X82571428Y-97880952D01*
X82761904Y-97880952D01*
X82857142Y-97928571D01*
X82904761Y-97976190D01*
X82952380Y-98071428D01*
X82952380Y-98261904D01*
X82904761Y-98357142D01*
X82857142Y-98404761D01*
X82761904Y-98452380D01*
X82571428Y-98452380D01*
X82476190Y-98404761D01*
X82428571Y-98357142D01*
X82380952Y-98261904D01*
%TD*%
M02*
